<svg width="150" height="150" viewBox="0 0 150 150" fill="none" xmlns="http://www.w3.org/2000/svg">
<path d="M47.8778 20.754C48.871 20.1409 48.3117 20.9745 49.6611 21.5128M47.886 21.7487C47.5596 21.4807 48.1339 21.291 48.7727 20.6057M47.2446 22.6871C50.4972 20.9113 50.7632 19.3481 49.3577 19.188M46.8902 23.5689C48.6842 20.7463 50.3055 19.8574 50.254 20.0214M53.8517 14.8279C55.2782 13.6316 56.0646 13.836 55.2422 14.5614M54.0664 15.0577C55.5143 14.1739 55.8315 13.8405 55.776 13.317M47.9687 26.1954C48.0497 19.2371 49.1132 18.9975 48.0932 20.096M46.4804 23.4277C48.6004 22.0914 49.5079 21.5274 50.3592 19.125M56.4109 14.6186C56.4465 15.9529 56.5337 13.8709 54.6462 15.3079M55.2794 16.4338C57.0325 15.9047 56.4201 15.3879 55.5992 13.1927M48.8766 23.397C46.8764 22.9181 50.5935 20.1474 52.9472 18.1554M46.4601 24.2497C49.8197 25.956 50.0892 21.9497 52.638 21.7157M51.9085 14.4133C53.8035 15.2357 57.3979 14.4549 59.6725 16.0926M55.2319 17.6769C56.701 17.0645 57.025 14.6561 56.3625 14.1161M46.8597 25.8872C52.4249 23.3784 53.0496 26.0387 51.8601 19.8497M48.7077 26.0496C50.3918 23.3931 52.3154 20.8762 52.476 20.2331M52.5606 20.5505C52.9926 18.2068 54.9584 17.4904 60.6109 14.3499M55.0742 18.9039C57.9818 17.1484 60.4885 16.806 59.7951 12.4697M47.8765 28.158C51.8226 23.448 55.1804 23.7705 51.1842 20.6728M48.261 26.5747C50.2249 23.7874 50.4947 21.3952 52.8852 19.8954M52.2947 18.6864C54.6653 18.4989 59.7057 17.4067 58.9992 14.1311M53.854 19.2988C55.8649 17.9375 57.9885 15.4575 60.1793 13.0524M41.1075 36.2726C41.2067 35.5588 41.3652 36.3291 41.5892 33.5586M41.4552 35.6921C41.7319 35.2149 41.4407 35.088 42.7656 35.0586M47.2392 25.8949C42.907 19.2641 51.7832 17.6837 58.2737 12.7376M47.1177 28.1936C56.8605 30.503 60.0979 25.1501 59.4325 14.0512M41.5137 38.4231C40.6045 34.4955 41.5847 34.0877 44.5332 35.001M42.1215 36.0887C42.5209 35.3458 41.5969 35.0569 42.9602 34.593M48.331 30.9439C58.0442 26.2504 60.8687 22.2744 63.5192 13.2206M47.7608 28.6914C57.3647 16.259 60.7457 11.7414 61.8865 13.668M42.6923 35.9019C44.3939 39.6377 45.1523 33.759 44.8204 33.2445M41.619 38.2884C42.6297 37.0646 42.9902 36.6234 44.4837 35.8084M49.4699 28.2737C55.4397 33.2173 56.4764 26.4555 63.1592 15.9225M47.0914 31.0901C42.538 29.7185 47.2309 24.2158 62.964 14.1973M42.9797 40.3035C44.163 37.0477 46.1174 39.0264 45.6254 33.7761M40.1312 39.576C40.1357 37.2829 43.8582 35.2989 45.183 35.2513M45.2749 34.3018C43.9489 29.3111 50.9342 24.3036 62.6387 14.4418M46.7466 32.2976C46.2531 27.3455 49.4511 24.2336 62.4522 13.4533M39.5166 42.6497C42.0659 39.1363 43.452 38.5284 48.9537 32.8324M40.9965 41.5828C42.7382 41.2209 44.3138 39.5779 47.5362 34.0322M46.1682 32.135C61.2465 29.9304 64.7693 21.6709 62.8964 12.4569M48.2284 33.558C61.1794 30.5983 63.5738 27.872 65.8617 12.5059M35.5388 49.9987C34.6767 49.5201 36.1107 48.0092 36.102 47.4671M34.4586 49.5981C35.6862 48.1339 35.6415 48.3281 35.7044 48.5818M43.6101 42.177C42.7557 30.3861 53.4344 23.5265 63.9233 14.4697M42.1472 42.2201C39.148 32.4521 45.4712 23.334 64.3885 15.0744M34.1882 48.7796C35.346 50.9762 36.6949 50.637 34.8743 46.5553M35.1254 49.5964C34.3812 50.0781 35.0301 48.4417 37.1445 47.3066M43.1492 42.8426C48.3394 45.0251 52.6032 37.6149 68.5847 12.8227M40.7678 43.3243C57.1782 21.5599 66.6679 12.0774 66.319 12.551M34.5874 52.7128C38.0492 49.2409 34.8021 50.757 40.2531 50.5125M34.1479 50.3827C33.547 52.1912 33.891 50.7711 38.6918 48.8625M41.7623 44.8952C42.8895 28.1953 50.2926 21.2411 68.8544 15.9384M41.5692 43.152C51.5204 40.5765 59.3729 29.4697 66.9895 14.4877M37.3073 52.1012C33.7463 51.2233 39.2993 47.2235 40.1342 46.0723M35.0309 51.6459C37.5503 48.9077 38.572 48.0964 39.8556 49.1079M43.2096 42.9515C36.9351 30.672 42.001 20.7555 66.8245 15.4699M40.629 45.6017C35.6541 32.5912 39.9263 24.6748 67.6682 14.5957M34.2497 55.7972C33.1446 54.948 35.842 48.9266 40.8681 49.8752M35.2512 54.3667C33.2682 53.3392 35.2452 51.9484 39.4855 46.7672M39.8845 44.0124C42.735 28.3984 53.3747 16.3757 67.264 12.0022M41.1012 45.9482C40.036 42.4543 48.5845 31.2934 70.2915 13.9269M27.6835 62.2697C26.7587 62.9044 28.564 62.5899 27.7778 62.0966M27.4054 62.7088C27.8185 62.3456 28.0506 62.0325 28.9099 61.9539M33.4125 55.3168C40.7151 40.2384 53.2967 23.6621 69.3608 13.1285M35.2397 54.5762C49.1147 52.5407 59.7398 41.6201 70.8047 14.1851M29.2709 66.114C31.1134 63.6148 28.5692 61.1664 28.125 62.2085M26.7004 64.2125C28.6969 64.6337 28.5893 63.6577 29.5881 62.3372M36.3666 56.9593C46.6146 55.4563 55.228 42.6538 70.4312 12.7798M33.759 56.631C43.3934 38.4817 50.8227 29.4889 72.0175 12.9937M30.3023 63.0429C32.9419 62.4399 30.6814 61.4057 29.3035 61.3159M27.9983 64.0061C28.4442 64.6419 29.7158 63.1072 31.4042 61.7876M33.6539 56.6893C39.6426 39.8675 52.7069 26.0855 72.7127 11.8691M34.2231 57.0523C29.4546 37.4608 40.8666 26.7347 73.1042 13.9764M24.9917 66.5385C26.8204 67.2182 29.7599 64.4604 30.346 60.906M27.36 65.4727C28.2096 65.7514 28.1192 64.5448 32.5043 62.9809M32.9601 58.4017C44.5935 59.1662 50.2834 52.9144 60.9702 28.971M33.529 58.4685C47.209 44.5738 56.998 31.4542 62.2624 27.2449M63.0602 29.8522C61.8059 27.5887 66.9014 21.4772 72.1199 10.9569M62.6834 27.3932C61.3964 21.3054 62.6406 19.1499 74.116 14.2809M29.3999 68.1701C26.9033 64.5945 28.8435 60.7759 33.6471 61.4765M26.6455 67.9667C30.9855 67.8386 31.3337 66.2741 32.7795 61.4194M32.3522 61.641C35.9607 44.4544 44.5482 36.149 61.8381 28.979M34.7655 58.686C39.1849 51.5077 48.0857 39.2137 61.0452 27.777M59.8804 25.7304C61.1162 28.0824 67.0274 22.526 72.9814 13.1314M62.061 27.7477C63.679 21.6799 66.3872 18.8141 74.0324 12.4903M19.8705 76.1848C21.3803 76.9282 20.4411 76.2617 22.8852 76.2009M20.8872 76.5887C20.8679 75.9499 21.5534 75.7811 22.2786 74.9104M28.161 66.9356C30.3287 66.2053 31.6444 64.8662 32.0185 64.0483M27.4943 69.6549C26.3989 69.1189 27.9692 66.822 34.3656 63.1207M34.7151 61.0895C49.5117 54.9075 61.1205 41.6962 63.6842 31.2746M33.9124 60.234C39.6707 48.2591 47.0063 41.3899 61.653 29.0246M66.2348 29.7695C68.2459 20.7103 72.1013 15.0343 76.362 13.5641M62.8514 26.9235C61.4777 28.6633 64.8147 22.5695 74.7029 13.5379M19.2827 77.8348C22.7352 76.4362 21.8294 77.7857 21.897 76.8429M20.0142 77.7782C19.4691 78.4794 22.2454 76.2671 22.2824 74.4849M29.713 68.9325C27.1384 69.207 36.4296 60.8576 61.2837 30.6212M26.6802 69.3802C55.7104 53.088 68.5172 37.6611 61.374 29.9852M64.9812 27.2672C70.9821 26.1917 69.4842 23.2884 75.8024 16.3093M64.3266 26.2894C71.2675 19.8741 76.6512 16.5984 75.8942 14.1199M18.5492 77.2445C22.8218 78.9892 24.1564 74.5363 21.2745 73.9564M20.5898 77.4392C19.3538 78.0095 20.7754 77.7643 24.9572 76.1122M27.8972 71.9957C49.7892 51.6334 59.2043 40.0956 62.4906 33.6264M27.4639 71.4463C30.2412 51.7633 41.1325 37.1282 62.4548 31.3213M63.9672 25.8859C73.5867 22.7347 77.8956 19.1809 75.8751 13.6577M65.6153 27.5456C75.0527 24.6621 77.4141 19.5521 77.4254 13.9631M19.8889 77.5457C22.0825 80.3567 21.417 79.611 22.3345 76.368M21.1752 79.6387C21.2087 78.41 22.7599 77.2522 24.1204 75.1939M29.946 71.3704C24.114 62.7817 33.4285 51.7202 56.7495 40.337M27.7658 71.1457C28.9086 76.0852 35.2041 69.1762 55.2182 40.026M52.7715 40.0877C55.6626 37.8118 58.5079 35.5892 60.6173 33.5079M55.6189 40.902C56.2305 40.047 57.6342 40.3097 62.6595 31.7721M66.6765 29.3919C67.363 23.8954 73.2445 22.7002 77.554 16.2686M66.7902 28.4852C68.5975 23.1366 69.6263 18.03 78.9522 12.5224M21.5637 83.7575C19.1449 79.6995 24.1294 72.9682 24.1716 74.9214M22.2119 81.9232C24.5129 79.9567 26.2302 77.6096 24.8841 74.7733M29.956 72.9714C42.4667 59.3758 49.309 50.6379 53.8979 41.3368M27.658 74.3426C44.3779 61.3714 50.6175 54.4834 54.991 43.1034M57.5404 40.0513C61.4134 34.9048 59.08 34.7184 59.9117 36.7695M56.0976 41.1516C59.1758 37.2763 61.7661 36.1648 62.44 34.0939M67.1224 28.6324C76.2329 20.0441 81.016 15.5085 78.4354 12.1856M67.9656 28.2662C68.5658 27.4993 72.3486 25.5799 78.3255 12.4796M14.118 90.825C14.0849 89.3732 13.2964 90.3146 14.3292 89.2489M14.4233 90.3317C14.2225 89.7675 13.5674 89.01 15.4302 88.5605M18.5318 83.7977C21.2466 78.7063 24.2389 77.1397 25.6422 74.2535M21.7534 80.9959C25.4807 80.8674 26.1625 79.2122 27.192 75.9107M26.8658 74.0679C29.5789 67.0595 41.0693 53.6955 53.1713 41.1547M27.672 74.4859C39.2584 69.0971 48.8614 58.2757 54.778 44.0398M59.1419 42.1597C57.885 39.4978 57.5275 36.2323 62.0112 32.8543M55.4402 41.3563C55.7843 37.1392 59.0558 34.3312 62.1966 35.1099M66.2402 24.9347C68.329 20.6629 70.1655 17.538 77.778 15.1468M67.2899 26.5449C67.3868 26.6977 72.7808 24.5874 80.3792 14.7559M14.5392 92.1765C15.3904 91.3875 13.5254 91.9745 15.6207 88.3134M13.8066 91.9078C15.2738 89.6527 15.6852 90.2021 15.6754 89.1555M22.0172 83.7105C18.7712 68.3614 27.7236 61.3708 55.9103 44.6107M21.507 84.2675C38.9194 66.0607 48.4275 52.4389 54.0415 43.9054M60.0557 38.3413C57.2054 40.1261 57.8369 38.139 62.004 38.8324M56.4402 41.0128C58.9234 37.2964 59.1308 36.126 62.1882 36.6394M68.062 26.2552C78.34 22.2607 82.7832 16.5247 78.9255 15.5064M69.3687 26.9953C75.3975 26.7832 77.9307 22.5026 81.4176 14.5565M14.9642 94.0145C13.7888 88.8232 18.9615 91.8628 15.1382 89.7047M15.3366 91.9813C16.2117 91.4625 16.0716 90.3311 17.7762 87.99M21.7028 83.7015C28.2475 66.6737 35.9948 53.8543 53.7786 47.1039M20.3114 85.5146C25.4194 85.4722 34.0032 75.0274 53.85 45.9444M59.3916 38.8359C59.011 40.7124 59.8386 40.4246 59.8279 40.0959M57.3546 42.182C60.2235 41.2292 63.2644 38.6156 61.3292 38.7832M71.9678 28.8358C68.9367 23.4748 69.3068 16.7749 84.3342 12.8495M71.3584 28.5615C76.1415 27.7822 80.7947 23.0451 81.114 12.9232M16.783 92.5016C15.8725 92.2532 14.1582 87.9082 16.5287 87.7324M13.5186 92.8166C16.7565 91.875 17.079 90.8585 18.3344 88.3142M23.029 84.8499C20.7 65.3599 30.679 56.4002 49.4961 56.6587M21.9169 86.2344C24.9985 70.0712 34.03 58.8247 46.7434 54.1631M48.5774 56.3428C48.021 56.1752 48.7827 50.2419 53.3594 45.7102M46.9817 55.7981C48.7084 51.6373 50.5412 48.8413 55.7279 45.8977M59.4675 40.5688C61.6919 39.4564 61.9669 38.9368 60.8661 40.2337M60.1995 41.8701C61.2634 40.4473 60.5811 39.5775 60.8245 38.5099M70.6215 27.0799C77.6301 20.3224 82.7798 15.8278 85.9962 11.1489M71.2677 27.3337C76.2861 21.6814 78.9752 15.2462 83.4422 13.7632M15.9417 94.26C12.7733 93.5164 13.5595 88.8 17.9565 89.6608M14.3429 94.2232C16.2351 91.9005 16.7412 89.3075 19.1414 89.505M22.0169 88.3153C24.7902 69.4856 30.6072 64.041 49.411 56.8363M20.133 87.8865C41.8339 71.6514 52.138 59.9173 48.931 55.2287M47.8737 53.9119C52.5008 53.3912 53.2669 53.192 53.1539 45.2083M49.462 55.7141C47.7807 54.9397 50.8632 50.8907 55.9058 47.6803M59.8939 41.8491C60.6222 40.8169 60.5976 40.8212 62.0875 40.6307M60.8603 41.4429C61.3774 40.0783 61.87 39.8584 61.9649 40.166M72.7544 29.6546C70.6234 20.6334 73.9514 13.8259 84.8295 13.029M72.2147 27.6718C82.1804 26.8472 84.3645 25.9832 84.6844 14.5425M8.1353 103.105C6.88748 103.796 8.40023 103.513 8.84048 102.189M7.02136 103.218C7.07817 103.6 7.98773 103.349 8.66742 102.02M15.51 94.575C17.5709 91.4704 15.5217 90.0999 19.8471 91.61M13.9553 96.4222C13.7423 94.8206 16.4978 92.1774 20.5034 89.7155M22.9349 88.2028C27.4373 79.2778 34.3255 70.3444 48.991 58.0483M20.2635 87.4487C31.8437 69.21 43.5225 55.7799 48.2192 56.8303M49.9214 54.8925C52.6142 53.5991 51.5204 52.4683 52.6017 50.45M50.0187 55.0751C50.899 52.6935 54.1857 50.0473 55.4877 48.6034M76.2383 25.8079C76.5779 18.5687 82.4532 14.4281 86.2604 15.3382M73.2584 27.3744C70.7305 24.3889 72.906 21.473 84.939 14.3788M5.95448 103.726C9.31655 105.311 8.83486 102.672 7.08042 101.263M7.77398 104.42C8.03123 103.736 8.77898 103.839 9.93098 102.127M15.0336 97.139C17.2352 73.0982 27.9314 60.3581 47.3477 59.123M13.7927 97.7135C18.8102 79.3432 29.0794 66.5062 48.3276 57.0694M50.691 57.3127C52.0386 53.646 54.2655 53.6732 56.9839 49.6106M51.0482 53.9458C51.7307 52.8255 53.8669 52.542 54.2826 49.5688M77.116 29.6467C75.2483 27.992 75.8134 22.6552 88.3999 13.955M74.6534 26.8824C74.3224 22.404 78.2882 16.5084 85.2368 13.0367M9.04805 106.398C5.71842 103.93 8.6453 105.812 12.1277 101.08M8.25342 106.991C8.93592 104.299 7.23398 103.351 10.3697 101.692M15.1259 99.2467C14.8754 83.1832 22.7558 69.9966 47.0873 58.9511M13.9189 98.7469C27.813 100.999 36.208 94.6556 48.3032 59.6227M53.5334 52.1867C52.8435 57.0037 52.6791 53.421 53.6018 49.9821M51.5099 54.1496C53.2829 53.3542 53.8904 51.9032 54.021 51.4151M74.4315 28.9065C75.238 27.7744 80.0592 22.4025 87.5877 11.0859M75.3771 27.6373C80.1216 21.7624 82.7976 18.0401 87.7643 14.2869M7.31386 109.619C4.81336 102.943 7.62698 101.508 11.0314 102.077M7.41942 107.906C9.36661 105.125 9.93755 104.383 12.3912 101.923M14.5583 97.5641C13.3748 84.2559 21.2466 74.0205 42.112 69.6808M12.8974 99.9735C34.3444 89.6477 40.6103 79.34 41.1747 68.496M41.8769 65.871C44.989 64.8598 46.5887 63.858 48.6947 60.6191M41.4285 67.3877C41.0204 65.0906 43.5657 64.2052 48.4755 59.2528M54.2181 54.4011C53.8364 54.3373 54.5942 53.4523 53.1882 53.0874M52.2471 55.6209C54.8333 54.0337 54.6464 53.8361 53.9974 52.2107M77.3241 25.4651C77.7029 19.8626 80.7319 13.668 85.7012 12.8447M76.7106 27.4479C76.3354 21.1899 80.3042 15.3945 89.2941 14.223M9.74836 108.605C9.01973 110.124 7.56211 103.498 13.072 103.194M5.7668 108.551C8.17017 108.382 9.9053 105.395 11.2127 101.294M15.079 101.078C25.4504 92.4253 34.5113 84.6157 38.818 70.4837M14.2939 100.067C33.9175 85.5731 43.9922 75.1239 41.6378 69.8739M42.6006 66.7177C44.442 65.3702 46.2441 64.1975 48.1542 63.1121M43.1689 69.1625C43.8165 69.224 45.6614 66.8141 49.0459 62.036M53.5658 55.2866C53.6288 53.6261 53.9922 53.5012 54.8564 54.2383M53.3297 54.5481C53.3012 54.3306 53.3425 54.2162 54.4414 53.3224M77.4602 27.5314C76.2996 18.6369 82.3234 17.2104 90.9179 15.0872M77.2339 28.2902C78.4367 30.4024 80.028 26.8286 90.4607 12.9673M7.07086 109.523C9.0383 105.56 5.2148 107.364 13.9172 100.987M6.23836 110.496C12.2209 108.91 14.4585 106.016 12.1562 101.388M14.4855 103.221C18.0582 94.4111 26.9704 86.8652 38.6196 70.1906M12.8967 101.009C18.5462 93.2923 24.2303 84.8593 39.9244 70.553M41.9147 65.8535C44.4289 67.6787 40.6827 67.0824 47.0505 64.0522M43.2974 68.8674C41.9234 67.3035 43.1674 66.4967 47.055 61.5984M76.1282 27.0725C87.3593 24.5524 88.4147 17.7605 92.9436 12.1652M79.783 26.8867C88.8345 20.3364 90.7667 17.0105 89.3745 14.5946M5.57142 110.538C24.2892 97.4402 31.5632 87.2332 39.82 72.4736M7.4948 110.502C17.628 95.9023 29.7351 81.4339 41.4471 70.9121M45.031 66.3214C46.7907 65.7264 47.9712 66.4744 45.7862 63.8334M43.7819 69.6234C45.573 66.8327 48.2635 66.4764 49.204 62.4238M79.0146 26.7581C77.488 30.0067 80.248 27.0446 92.2525 14.8434M79.4939 26.1103C86.2853 28.1942 93.117 21.1807 90.2804 14.4964M6.89705 110.568C5.33142 92.6372 17.6654 83.6194 42.202 71.8504M6.45867 112.721C22.0167 98.2618 32.1407 84.51 40.764 73.4636M45.4245 70.7902C44.6954 65.3344 49.2087 65.4185 45.69 64.0104M43.834 68.4424C44.1797 66.5576 47.3802 66.8248 47.4902 65.2933M77.9672 26.8286C84.3957 19.0948 83.8658 14.8588 91.5194 11.3034M81.6749 27.4449C81.7778 25.1527 87.0195 18.2392 93.6424 14.4195M9.24755 114.319C10.7127 89.3072 17.9918 80.5929 36.3702 83.3882M6.07711 111.85C23.6003 94.3834 31.1687 83.9983 34.0086 82.9258M33.6936 79.2347C33.151 79.2785 35.5133 76.7719 42.3567 72.0122M32.7839 81.5822C36.9512 76.1002 38.3337 75.0508 41.6633 73.1415M46.4273 69.6769C46.7399 68.3137 46.5612 68.5196 48.8571 65.7956M45.7019 67.9265C45.5744 68.2764 45.729 68.3499 46.9624 66.521M82.1654 25.7475C88.9122 29.2976 93.0518 25.3296 91.41 13.3717M80.4085 28.6607C79.0414 20.8856 81.7064 17.4517 92.2757 14.2211M8.91248 116.134C23.8305 99.8278 32.8645 88.2245 34.2263 81.7089M7.32342 114.623C20.391 114.756 28.5272 106.083 34.1685 83.4225M36.111 80.7281C35.9475 79.4668 41.5767 76.1227 43.3602 73.1079M36.0492 83.0287C36.7673 83.0713 39.1572 81.6135 40.8713 74.8337M47.3595 67.5909C47.3772 67.6436 46.8557 66.6806 48.6818 66.6337M46.833 67.8137C47.6809 68.0719 47.5847 68.3006 48.2269 67.0459M80.8369 25.4047C84.6638 24.7198 85.8975 19.1184 93.5436 15.9152M82.3365 26.3182C90.5639 21.3725 94.8413 16.239 93.2939 12.8104M4.85742 113.636C8.26598 105.934 17.5414 100.892 36.1814 84.9902M7.30842 115.381C16.9067 99.5705 26.8028 91.8525 34.1567 83.4956M35.0603 82.1404C39.3349 78.0206 40.6229 79.1419 39.061 76.865M34.7922 82.6134C37.572 81.2107 41.322 78.4123 40.2327 76.6586M83.3174 27.4657C86.0569 26.465 88.8987 26.8271 95.0217 14.7885M83.6528 28.274C87.8412 26.8054 91.4667 25.0612 95.1827 12.89M8.67848 117.799C21.127 101.023 24.9079 97.4278 35.7728 86.7632M6.74142 115.286C23.7915 100.384 30.1875 93.0922 33.3242 85.7878M39.3347 80.0636C36.4911 79.7835 37.6759 81.368 42.594 78.3465M36.8603 81.7684C38.4304 81.9939 39.984 78.7564 41.5474 76.0067M85.1054 28.4818C88.7297 21.8075 93.5406 20.3282 98.0121 11.6839M83.1488 27.9883C89.1739 26.9794 93.3542 22.8272 96.5845 15.3789M7.41923 117.128C20.9723 100.266 33.3032 89.4305 34.5158 87.3101M7.14248 117.791C16.5047 113.161 22.296 104.91 33.049 85.917M39.8783 80.0287C39.4086 80.8839 42.466 81.3898 40.086 77.8234M37.5237 81.5023C38.5292 81.8004 37.8034 80.2097 41.2268 78.3515M85.0555 28.7329C83.1629 29.3246 82.9525 26.8269 94.3517 17.2415M85.5668 28.7535C85.5608 28.2906 89.9194 26.171 96.0122 15.8147M9.09755 118.037C28.2497 113.451 35.2605 99.96 32.4314 89.8194M7.46723 118.275C26.5474 101.305 37.4723 89.8607 34.9847 88.4514M39.6835 81.5938C39.9344 80.0677 42.5412 81.1832 42.03 78.6508M39.9979 82.8731C39.1641 79.779 39.5732 80.948 42.0484 78.5561M86.3046 27.0634C88.7543 28.7915 94.4517 26.3186 95.1912 18.6934M86.3985 28.1932C86.554 27.4646 88.4318 22.8101 95.8165 15.204M7.2278 120.862C4.02286 115.312 4.00917 113.202 28.4522 96.933M8.44673 118.452C13.1873 117.869 19.7046 110.549 28.4899 94.9404M29.0515 96.6602C29.4477 91.1777 32.0207 91.341 35.5851 89.669M27.6377 96.5964C31.545 94.3642 33.0516 92.0479 34.3575 87.9712M39.9949 80.939C41.0419 81.2173 42.0608 80.2175 41.4164 80.139M39.9432 81.6866C40.587 81.3761 40.3845 81.0917 41.1218 81.272M68.406 48.2728C68.7002 48.3097 67.9148 49.1319 70.2527 48.1196M68.2112 49.5827C68.5995 48.096 68.7512 48.1037 69.405 48.0532M85.3877 26.7559C93.6239 25.0354 98.3475 18.2824 95.0234 19.1529M86.3222 28.0753C90.267 25.1638 93.6297 23.604 96.8474 16.8817M6.39323 120.803C21.3867 105.627 24.4071 100.021 27.1236 96.5274M7.09186 120.448C24.4915 116.823 30.5676 109.129 29.218 97.4687M30.4142 96.981C29.5635 95.5549 34.7052 94.8673 32.9931 92.0484M28.5156 95.5888C27.1949 95.7124 28.579 94.4195 33.8267 89.4915M67.7342 50.9331C67.5915 47.7797 72.3156 46.4225 72.2978 49.5694M68.5735 49.7083C68.442 49.356 70.6979 47.7302 70.699 47.4645M87.0104 24.8955C90.7005 20.2519 92.7587 19.6352 93.8594 17.4808M89.1679 27.462C86.6682 26.3107 91.399 22.3524 94.7738 18.7337M6.01523 121.867C19.4972 111.448 26.6189 105.245 27.0201 96.3977M8.01361 120.957C12.4596 121.261 18.4337 112.144 26.5294 97.4732M30.4874 96.7957C34.7417 96.2224 34.7102 95.4105 33.3977 93.3624M29.0905 96.6877C32.326 94.5919 32.5694 95.7002 34.6731 89.9972M66.7755 53.5389C70.6656 48.8522 70.5747 49.6076 69.8952 50.0477M67.9714 52.7488C70.0759 50.2819 68.4357 48.1438 71.8146 47.6124M87.3355 28.3239C85.2402 23.0053 86.2917 25.6166 97.4262 19.2206M88.6838 27.4104C93.6302 22.6622 94.564 21.6739 96.382 18.7999M6.78436 122.092C1.12373 113.414 8.78198 106.5 27.4999 98.0259M6.19598 123.666C5.19605 118.705 12.163 111.238 28.7642 99.2709M32.0522 94.3333C28.5169 95.4789 33.0968 92.0488 34.1595 94.6914M31.4042 95.2314C32.2834 94.9322 32.4227 93.4549 34.4631 91.988M70.455 50.5012C69.0816 48.3982 72.0717 46.8287 72.9435 49.8941M67.1243 52.9262C69.589 52.6656 69.7424 53.0572 72.5292 47.7251M90.3696 30.2089C91.8711 21.6739 92.4893 21.9127 97.93 22.2785M87.907 27.5638C93.3992 26.0334 94.1027 26.433 96.7797 19.6025M7.67592 121.728C1.84223 124.66 4.09298 117.35 26.2941 97.8204M8.02805 123.468C23.8806 110.941 32.662 101.761 26.533 99.7307M32.6196 96.4663C33.5509 93.4644 33.5279 91.242 36.6625 94.4522M32.0601 95.7497C32.3916 96.8079 32.7473 95.3782 35.3554 92.69M66.6505 53.7319C69.1255 52.6599 73.4886 51.3812 73.4757 45.8263M68.91 53.7056C71.5802 53.7013 73.0581 51.1648 74.6369 47.5507M88.0639 32.6644C97.4044 29.4471 96.2117 23.8599 97.9761 21.4867M89.7522 29.0447C91.563 30.6495 94.8458 27.3769 97.6334 21.1775M8.86411 124.016C4.74848 122.57 13.8674 116.399 18.8477 110.953M6.01936 124.475C19.6744 118.427 22.738 113.322 21.843 108.828M22.3019 110.563C17.5009 105.858 21.4317 102.766 26.4565 100.249M21.6267 109.482C19.7558 107.253 22.2531 103.986 28.8177 102.906M31.7138 96.11C33.4217 95.978 33.9672 95.8031 34.9907 94.3654M32.3839 96.0069C34.0892 95.7049 34.2765 95.2487 33.5072 94.3108M67.2167 54.6714C74.2695 54.9958 76.3529 51.4504 72.7975 49.7664M69.496 54.5284C71.0125 52.4422 72.5055 50.7315 74.0875 48.8803M88.2424 29.1341C92.761 25.3588 97.1305 21.695 98.0804 20.4005M88.512 30.3311C96.5537 31.5879 98.4001 27.5612 97.6769 21.362M9.04955 126.897C8.91811 122.249 13.8719 119.063 22.9506 107.954M8.01267 125.55C12.3606 117.813 14.205 113.824 20.9661 109.426M22.0904 111.897C23.2054 110.423 22.5942 103.339 25.644 103.574M20.9809 109.085C24.163 106.84 25.5897 103.069 26.6391 101.86M69.45 53.5417C70.8554 56.1966 68.5692 54.4251 75.6068 50.3706M67.1603 56.4223C67.672 53.8239 68.5429 53.186 75.0263 49.1619M90.9109 30.4265C92.4312 24.4852 91.6129 18.6311 96.2911 23.1035M88.231 32.7737C97.0296 24.6707 98.4959 20.229 99.9229 20.0165M8.09798 125.223C7.76667 126.015 10.0356 121.144 18.5909 114.189M6.43186 128.255C7.43367 120.82 9.65761 117.731 20.52 112.718M21.0327 109.91C26.9852 104.664 27.1133 106.086 27.2175 104.889M23.8823 108.832C21.5839 109.706 23.7872 106.833 28.9251 105.25M69.7427 54.9966C70.7099 54.1551 76.7599 50.0059 76.5623 47.3599M67.7455 57.1918C70.0026 52.8426 70.8509 52.1209 77.107 46.7681M91.4397 33.831C94.7646 29.8359 96.6681 26.0927 98.7329 22.0565M90.0145 32.1184C90.7617 26.3728 94.033 19.8898 99.6901 21.5696M7.8893 129.588C11.0052 117.408 12.6396 112.504 21.5331 112.836M7.41942 129.118C9.42061 124.068 14.7199 116.768 21.7654 113.9M22.2617 110.279C23.1032 107.818 24.5545 107.485 28.5342 106.997M24.124 109.987C25.59 108.057 27.4268 108.256 28.8899 106.158M68.4979 57.555C76.6592 56.9314 79.5516 54.3945 75.7952 48.09M68.0991 57.8359C74.9466 54.7479 75.622 50.6799 77.8613 47.5108M90.5391 35.7624C94.5062 37.4263 93.966 32.4382 99.345 19.7989M88.4035 34.0562C96.969 25.151 101.857 19.5754 102.265 20.8614M6.02723 129.643C8.30067 125.805 9.81098 119.552 18.907 113.857M6.12736 130.42C9.85692 126.916 12.3629 121.092 20.9573 113.127M22.8261 107.693C27.0885 106.696 28.6377 104.757 27.2265 103.695M25.5854 110.519C25.486 108.017 27.0516 108.376 27.1502 105.681M70.0836 60.8899C76.1112 56.8046 76.2145 53.361 76.228 48.3011M67.4372 59.4699C68.9164 58.6513 70.6922 55.4046 79.6088 47.1341M89.2647 34.0706C92.5384 37.2936 96.6415 29.601 101.152 18.0484M88.4515 36.7031C88.5788 32.361 93.9638 25.712 102.53 19.4269M10.497 128.279C7.34067 128.742 10.095 124.196 23.3432 114.734M8.53092 131.204C7.23211 125.727 12.4761 118.467 19.9737 115.152M25.6626 109.978C28.6568 107.324 27.12 108.52 25.7997 106.125M25.1927 108.678C27.4474 107.943 28.2467 107.823 27.1547 107.072M68.3012 59.8881C68.9164 62.0434 71.1265 52.9761 81.9623 47.5217M68.7632 61.4325C69.7566 59.5241 73.3184 55.3453 78.1656 46.6836M89.1377 38.5648C86.9222 29.8622 89.4222 25.0762 100.319 21.186M89.9329 37.8268C92.0415 32.6709 94.527 30.7586 103.701 20.3269M9.94148 131.965C10.8357 121.362 17.0732 116.632 18.8387 114.017M9.39286 129.201C17.2587 124.753 21.7536 119.776 22.0542 117.516M70.443 60.3838C71.0826 54.3022 73.0725 48.8676 80.953 46.9449M69.3383 61.4705C66.5423 57.623 68.9652 56.1191 80.607 49.3796M88.3064 37.421C94.8467 31.0532 100.446 26.774 104.99 21.2923M87.996 37.9794C88.7129 39.6109 93.1973 35.3439 102.227 23.9342M7.7948 127.901C16.4129 127.937 18.844 123.217 18.2301 117.78M10.9478 130.602C11.6633 128.768 16.1961 126.105 20.9438 118.046M69.2959 63.1198C68.9607 56.9582 71.1974 53.9653 80.1632 49.4175M68.6685 64.1336C70.0544 59.6199 75.8314 53.5892 81.9702 48.999M86.4212 41.5237C94.4115 42.1536 100.965 33.8614 104.664 21.7794M89.4486 39.941C92.1891 32.5864 95.451 29.3312 103.483 24.276M10.0034 127.382C11.5319 128.261 11.3933 127.948 19.2177 119.3M11.419 129.135C17.9309 124.367 18.5457 121.698 21.645 118.705M70.5512 63.5801C68.3359 62.4452 70.4462 55.2441 79.7487 48.9926M68.9766 62.9484C73.0154 63.036 77.5137 59.3934 83.4857 48.6236M91.0073 37.6715C90.4454 36.281 91.8692 34.3536 101.694 24.0992M88.4759 38.9197C88.084 33.0986 94.092 27.5775 101.578 24.2876M10.7138 127.879C16.798 125.383 15.3698 123.521 22.246 117.872M12.8464 129.652C19.3703 128.179 20.6689 124.711 20.1291 121.202M70.0349 65.2492C71.8744 63.5349 78.4684 58.1614 81.5933 48.2141M67.2282 66.143C74.6663 59.4628 77.0129 57.1519 83.1863 50.522M89.6039 38.7182C91.3 32.0055 95.8945 23.9786 103.6 24.7828M89.1351 40.9097C94.5002 37.7441 101.137 29.7414 103.396 26.1587M14.346 129.346C19.1614 131.287 18.5215 125.039 21.6994 120.617M12.0175 129.082C14.086 130.141 14.521 127.77 19.9735 121.186M67.701 65.7315C68.7698 56.0625 72.619 54.0568 81.4922 50.6076M68.7889 66.6086C67.8038 64.218 73.2715 58.9371 81.8753 50.7538M91.5792 41.7992C91.4282 37.3121 93.8462 29.8775 102.073 28.3357M91.3829 41.4994C92.0736 34.8992 92.6108 31.7169 102.166 27.8837M13.0221 130.266C15.1365 122.593 17.469 123.144 18.8222 121.821M13.0397 129.564C16.5874 130.685 18.0102 128.926 21.8084 123.058M70.8962 69.3189C67.5878 61.9232 75.6075 53.1857 83.3755 51.0585M68.8122 68.0717C68.2551 68.1926 70.474 63.1791 82.4691 52.2028M89.3684 40.3618C93.7487 39.0609 96.7977 33.7607 101.004 26.2989M92.2416 40.8C100.419 37.464 104.45 31.5499 101.308 27.4341M15.4043 130.36C20.0185 131.182 19.645 128.446 21.6124 123.618M14.656 132.372C13.1355 130.35 15.5085 127.707 21.3857 123.655M66.3694 69.1813C70.0922 64.7351 75.172 59.3197 82.5529 53.0859M68.9972 68.5033C73.8876 58.5454 76.5252 57.2619 81.3246 53.1307M94.6035 42.057C96.4964 36.7374 98.2437 34.6605 102.921 29.1212M93.3938 42.7164C95.3505 34.3316 97.4837 31.8898 101.59 30.5636M15.9893 133.058C15.5472 131.983 21.5871 126.864 20.6839 124.175M13.4234 131.461C13.4991 127.466 16.3671 122.824 20.9674 123.759M68.2536 68.3792C71.6194 69.4655 74.3579 63.6832 81.2087 55.8557M69.078 68.9885C74.0584 60.0967 76.4256 55.8232 82.327 54.1072M92.8122 38.9496C95.4792 42.6409 95.2043 39.185 102.376 28.9464M94.0281 41.2382C90.9887 38.2027 95.6082 33.4804 101.932 31.4501M12.7225 133.978C16.9924 131.598 17.655 127.43 20.9925 123.328M15.358 133.167C12.5502 127.67 16.7042 125.525 23.1051 124.303M70.896 69.7309C74.376 69.9643 77.0072 61.9792 84.3008 54.063M69.3199 72.0296C76.4355 66.6484 78.5984 64.0972 83.412 55.2581M96.5401 39.3557C95.0479 38.2123 101.753 36.2274 102.81 31.3761M93.0696 40.2681C94.2267 35.7028 98.3935 33.3366 102.707 30.8681M16.2951 132.417C17.625 136.02 18.381 127.696 25.9185 124.139M15.0375 133.951C16.275 128.973 22.1796 125.443 24.9366 122.837M67.128 73.3777C69.3839 63.3285 75.8839 59.6696 82.3163 53.6857M68.3337 72.4871C77.9228 62.0278 82.7946 57.3352 81.2549 56.6811M97.3997 40.7443C97.257 35.0546 99.1684 33.1562 102.417 34.2615M94.1882 41.8835C94.9054 35.1755 96.9344 32.858 102.5 34.4357M12.3792 134.289C20.9419 131.129 23.7627 132.124 24.9529 120.58M13.5726 134.476C23.7514 133.396 25.1194 129.102 24.067 124.573M69.4748 74.8747C69.6962 75.6834 72.981 68.3514 84.4849 59.231M69.069 73.2988C75.6355 62.813 80.0515 57.4967 83.2862 58.1034M94.5627 40.9129C97.0572 37.8714 97.5672 32.4189 101.278 36.1498M95.6114 40.941C97.7976 41.3927 98.6777 41.2217 103.562 34.2163M16.0862 135.877C11.4312 136.119 16.0154 130.701 27.273 120.518M13.9279 137.664C21.0696 132.678 24.366 128.792 25.8295 122.779M69.6034 72.609C74.8285 71.3582 80.2754 65.1304 80.9532 59.531M67.2336 73.0271C73.1999 66.2927 76.891 61.9425 81.9014 59.1585M94.2615 41.7778C96.874 40.9326 98.3822 34.8523 105.924 31.6504M96.7399 43.7152C99.2537 38.7793 101.145 36.5158 103.193 34.8178M13.0092 138.271C14.0496 140.547 19.0686 136.743 28.44 121.338M14.0425 137.814C15.0797 133.014 16.9544 128.057 25.7189 121.957M65.9159 73.1567C71.8457 74.295 73.884 70.0207 83.088 58.9747M68.596 74.847C70.2128 68.49 74.6286 63.701 81.8022 59.2595M93.0589 42.1629C94.3637 41.9803 101.016 39.6911 105.041 35.6177M95.8512 43.7353C92.5041 42.7151 94.8398 40.8414 104.454 34.7827M15.5789 134.32C23.7317 130.681 23.9985 126.997 29.6552 124.157M17.0007 137.779C14.3961 133.779 20.3907 126.994 26.6991 123.074M70.8938 74.6944C74.9489 65.3855 78.3212 62.2419 82.6032 59.6829M69.1838 77.4107C73.9097 68.9417 79.2942 63.383 82.2364 59.8129M98.1349 46.0147C98.385 44.997 99.4123 42.7796 102.87 33.5364M94.878 46.4497C95.1719 42.6429 98.8575 36.6094 106.626 34.6011M15.9619 137.951C15.219 131.432 19.8747 126.276 27.0617 121.648M16.2597 137.111C21.3704 129.125 23.3099 125.343 27.6687 123.998M71.2452 75.1241C75.1553 69.7408 81.1583 60.7455 83.9723 63.7524M68.7345 78.06C72.0083 69.9774 76.4361 65.4015 81.0659 61.7445M97.1736 48.6041C92.1334 44.9443 99.4649 41.5759 107.174 33.171M96.2798 47.2262C105.131 38.1007 107.016 33.786 106.613 33.4153M16.1796 138.585C21.4551 137.319 24.4551 131.559 30.2427 121.962M18.7534 138.048C21.841 128.177 26.7972 123.302 30.813 123.266M68.755 80.9572C69.1034 69.986 77.8084 64.1359 83.6168 65.3859M68.6412 79.4529C72.0222 70.9269 78.3867 65.8674 83.4075 63.1824M95.254 48.4099C106.696 39.2286 109.28 34.0282 108.62 36.6812M95.3335 48.9568C96.9042 45.914 98.7865 39.9441 107.505 33.3707M17.1059 138.274C18.7982 136.329 21.7371 135.728 31.4901 122.793M20.2238 137.745C22.4444 127.682 24.2961 124.303 30.4208 122.825M70.5996 81.7485C66.6923 66.7445 72.886 63.6905 82.1177 66.5272M69.3205 81.2636C66.1909 72.8863 69.4872 69.5304 81.8714 63.4425M93.0557 47.0107C100.132 40.7717 105.373 34.9333 106.293 32.1446M94.3491 48.2548C95.9599 45.0022 102.39 38.8485 109.015 35.2292M21.067 137.275C28.5824 129.415 35.2 122.595 31.7565 125.335M20.9537 137.425C27.5826 136.209 29.6374 133.057 33.0233 123.12M69.0975 81.9257C64.6611 81.4027 70.4554 74.2427 81.3932 63.612M67.9607 81.147C76.0219 81.2025 82.041 75.8696 83.161 64.8062M94.1329 50.0214C101.946 42.6966 108.618 40.8364 107.154 31.9389M94.7562 49.9385C102.596 45.6821 105.142 40.3912 109.912 34.004M18.7062 134.298C25.2306 131.542 26.742 125.385 31.5072 123.373M21.5132 136.997C27.3383 126.246 32.0562 121.274 33.9664 122.812M70.5645 81.3133C74.6781 83.3765 75.0619 78.7535 80.9136 68.8318M68.0215 81.9943C65.6097 81.3609 69.081 76.9061 82.0521 66.6084M96.9529 50.0164C99.0816 49.1897 98.4615 50.0312 108.136 38.0216M95.68 49.9459C92.9132 41.9964 98.6194 38.3062 109.376 35.9224M24.3045 136.894C29.2557 129.045 35.7027 123.826 36.5187 122.326M21.048 135.943C23.8634 131.032 26.3715 125.334 34.5899 123.973M70.6307 85.1664C67.7065 81.9028 70.9442 78.2171 81.0462 65.1986M68.0357 84.0523C66.1392 74.2449 71.3054 70.2257 81.8232 66.9534M95.1629 51.4678C91.9602 49.347 96.4159 45.1519 111.579 36.8681M94.9101 53.2903C97.5117 46.205 104.115 41.9308 109.729 36.4477M20.5062 134.938C27.6557 132.967 31.5848 126.176 33.2196 123.556M23.3078 137.968C19.7475 131.84 22.2145 127.765 33.6432 122.129M71.184 83.556C69.3083 76.9157 70.4888 66.492 80.7829 66.4828M68.0541 85.0115C64.4622 80.9267 69.4139 75.7828 83.1299 69.5344M95.4074 51.008C102.278 44.7135 108.981 39.8154 108.314 37.3663M96.0362 53.7474C102.767 53.6801 105.427 50.1026 110.083 38.8955M21.5749 135.841C30.9306 135.772 33.7073 128.012 38.0016 124.42M24.8365 136.921C28.9782 134.134 32.1597 129.347 36.2582 122.505M71.0847 87.545C73.4421 84.8254 79.7507 82.1925 79.8921 69.4532M68.9547 86.3762C67.9947 75.2057 72.5095 69.7378 82.2218 71.0885M93.7469 55.9783C96.8999 51.4346 103.485 43.0232 109.217 41.1553M96.8151 54.8435C105.101 49.989 108.784 45.2854 108.334 39.7942M23.8502 134.83C22.1787 129.515 27.2575 128.01 37.7153 120.635M23.7454 136.629C28.504 135.736 31.2422 130.791 38.1154 122.874M67.282 85.5238C80.5544 75.4187 85.6337 70.8075 81.3002 71.333M69.0996 86.172C71.9355 86.1999 77.7629 79.7987 83.5825 71.9139M98.2232 55.0652C104.138 54.7759 110.227 51.7727 110.625 41.4724M96.6932 55.7745C103.085 50.1 106.061 47.5736 110.463 40.266M25.1603 138.2C23.6762 133.254 25.1245 130.427 38.5077 125.321M27.3557 135.965C29.2947 137.118 30.5162 135.15 37.7234 122.705M69.6456 86.9006C70.1363 89.4626 72.739 81.9619 82.285 71.3477M69.273 88.3269C72.9139 76.6145 77.2645 69.0431 81.7266 72.2014M97.0555 53.7564C106.198 47.5427 108.072 44.4977 111.908 43.2221M97.8017 54.2621C103.306 44.3953 107.77 38.3117 109.4 40.0854M24.9846 134.301C33.5991 133.3 35.5883 130.547 39.1459 124.415M26.7884 136.396C24.4778 135.485 30.126 130.918 38.0871 122.427M68.986 87.7807C66.7013 84.1183 70.4299 82.8302 84.2007 75.0478M68.4209 89.1109C78.132 89.9124 82.7858 82.8221 82.575 72.9407M98.8962 53.9126C108.924 45.2471 111.53 39.1522 108.607 39.9619M97.7716 54.7916C102.168 51.1524 104.57 47.0426 109.355 43.6532M28.3857 135.303C27.4197 128.902 26.9599 130.303 38.2116 120.939M27.8552 135.643C34.084 137.36 37.3849 131.683 41.0843 124.083M70.1241 88.2289C73.3043 86.5835 76.5477 82.2971 80.3125 76.9901M68.7165 87.9007C80.2637 90.2542 82.3538 85.6991 83.2754 74.3216M96.7564 53.5804C105.818 48.6699 111.755 45.5188 110.355 42.8661M100.309 55.9357C105.162 47.0184 110.1 41.3179 110.3 42.6169M31.1204 136.921C37.2535 134.41 42.2522 128.155 42.0835 121.941M28.9062 136.731C31.7087 137.209 34.243 133.194 41.2549 123.586M69.9167 89.5087C69.316 88.1212 72.6452 84.8764 82.0969 78.0889M70.8225 89.969C79.6294 81.233 85.527 76.6136 83.1454 75.4057M103.159 56.105C108.412 52.0774 110.036 48.5143 107.175 43.1563M100.923 54.27C101.303 55.1122 102.192 52.8988 108.863 44.1139M32.2954 139.181C34.3065 129.415 37.3814 129.159 44.1919 123.26M30.64 137.398C37.9645 133.383 41.9299 129.045 41.6063 123.297M74.2409 87.4755C73.0536 88.8883 73.6797 82.6849 83.2439 75.4275M70.3701 88.4079C76.6626 85.988 82.5932 80.9741 82.1374 77.5967M103.323 52.665C105.193 50.3983 108.697 49.2036 109.498 45.702M102.557 54.9988C103.833 53.4307 106.441 49.6732 109.043 45.2831M33.039 137.853C37.2737 134.467 36.4032 133.991 42.1596 121.535M31.111 137.416C39.234 134.399 43.353 127.406 43.7297 122.907M74.9663 90.8792C72.3479 87.5557 76.3247 80.9992 80.2154 75.7264M72.4092 88.5427C76.7267 84.1159 80.5999 81.9527 83.2142 77.8168M104.026 55.8635C102.661 54.942 99.4624 51.1519 111.578 46.1021M101.295 55.3477C104.765 49.9014 105.82 48.7535 108.163 46.8244M34.459 137.288C35.6948 134.049 39.7189 131.401 45.9632 121.355M31.4897 137.618C39.9647 134.829 41.77 130.832 43.9345 123.535M75.2785 90.9304C74.1452 86.3698 75.5582 80.9261 81.0209 78.6658M72.4347 88.3813C76.5254 87.3815 82.015 84.2977 81.8999 79.6918M100.364 54.2075C98.9579 54.4393 104.092 50.3559 107.5 47.1497M102.389 55.7004C101.918 57.6392 106.124 55.1865 108.201 47.0267M35.2118 137.285C43.5914 130.165 45.3321 127.544 42.7401 121.038M34.2773 137.013C41.0022 129.148 44.6472 123.734 44.9507 124.125M75.835 90.3845C77.2382 81.9532 80.5465 79.4068 80.2611 82.2643M73.3285 87.6589C79.0581 82.2598 82.006 78.5567 83.0299 79.3097M102.928 57.4127C105.279 55.8617 107.614 52.95 110.629 45.5274M103.268 57.9536C107.077 56.508 110.13 56.0321 109.209 47.1604M32.6507 135.659C36.4184 131.947 37.8089 126.162 47.7987 124.496M32.6685 136.994C38.2705 133.377 41.0841 129.248 45.9473 122.373M67.7867 97.4964C68.7509 95.8678 69.8417 95.2779 69.6447 95.1397M69.0158 96.9019C68.9646 96.101 70.0229 95.63 69.7705 95.7302M74.1137 89.9604C75.3134 82.5949 79.7534 80.5618 81.3038 81.0632M76.6748 89.2292C75.3979 90.6767 76.2762 87.54 83.5759 80.9962M101.209 60.3802C106.695 49.2517 109.685 47.5616 113.369 45.9934M101.245 58.425C106.879 56.4202 110.565 50.7135 112.344 49.0459M32.3192 136.952C42.9068 128.849 50.6207 125.038 47.4767 125.037M34.6116 136.645C40.8561 127.58 45.5412 124.027 47.4126 123.821M70.0725 98.2586C69.1737 96.0836 67.2231 94.0461 68.8283 96.7933M68.145 97.4855C68.791 96.6392 70.0206 95.2505 70.9418 96.5981M74.9357 90.6817C78.6465 88.3721 80.2109 85.3005 81.2702 83.3017M75.6645 87.6994C76.7547 87.3532 78.1802 82.86 81.8839 81.0945M105.044 59.9649C104.612 55.551 109.012 46.6922 109.683 50.0381M102.814 58.0858C109.323 54.6349 113.392 51.4335 112.313 47.3827M37.4835 135.217C44.1072 128.633 44.4482 124.715 50.1702 125.737M35.5131 136.364C41.6524 136.221 44.811 133.956 48.1877 123.224M68.3978 99.4955C66.0104 100.095 67.861 97.5489 71.196 93.6855M68.9427 97.9003C69.6737 98.6844 71.4332 95.6606 71.8564 97.0265M80.0273 88.6537C79.8008 86.4964 81.7836 85.314 80.269 85.8534M77.0537 88.362C75.4431 87.1779 77.9438 85.076 81.8307 83.4962M101.464 57.7736C105.388 55.7812 106.945 53.2069 114.093 50.0681M101.103 61.5403C99.7791 53.8558 102.979 49.731 114.553 46.889M36.8344 138.539C34.8299 132.77 38.9742 126.205 51.0098 122.323M38.208 136.884C38.1653 132.968 41.8605 128.172 47.4807 122.401M66.6522 100.837C72.34 98.1566 72.1352 94.1929 74.7522 97.086M68.7008 99.579C69.2194 99.0521 70.0566 99.6358 71.371 95.0038M77.8079 86.2864C80.0312 91.2982 83.301 88.601 82.8882 84.4217M78.2408 89.1909C77.2035 87.4764 78.558 86.8901 83.1882 83.8597M102.474 62.2655C104.27 60.8767 109.032 55.2296 116.696 47.6237M103.677 60.8184C109.662 55.4017 112.917 50.6289 113.938 47.2781M39.46 139.557C37.7519 128.16 41.584 127.559 50.1885 124.973M39.192 135.679C44.5724 128.982 48.7418 123.67 50.9084 124.319M67.158 101.693C68.3095 95.9509 66.0274 96.627 75.1532 93.9379M68.4835 102.468C70.7451 101.911 74.1225 97.3168 74.6669 96.7629M79.3452 91.5277C77.454 91.715 78.2678 89.1605 79.7181 88.0764M79.4354 89.2322C80.2388 89.0469 81.2451 88.8611 83.3288 85.7479M103.665 60.5167C111.879 62.6861 112.417 60.5436 117.256 49.8962M101.736 61.7188C101.085 56.8511 106.658 52.2371 115.756 47.1435M36.5487 137.389C35.3423 134.637 43.2087 134.995 50.6012 123.564M38.6123 136.091C41.2137 130.82 44.9365 127.602 52.0782 124.189M66.5207 103.221C73.56 104.758 75.3147 100.575 76.1789 93.386M67.9125 102.526C68.805 102.035 70.7826 98.666 75.7577 95.3072M78.8063 87.6015C82.3774 89.6784 81.3469 88.2761 80.7647 86.8316M81.3794 88.4998C80.3029 87.059 81.4889 87.204 82.2968 87.3703M101.472 62.0473C112.681 63.1044 120.935 59.5412 113.981 48.2927M102.285 64.7914C106.588 64.6672 107.378 61.7996 115.892 48.8666M38.125 138.276C47.2283 131.219 49.611 127.376 52.9814 123.22M39.9694 137.589C48.9827 136.216 51.9923 131.092 52.332 122.533M68.2971 104.542C70.4144 105.042 69.6829 101.288 74.0925 98.4617M69.6974 104.039C68.0339 99.2169 70.8293 95.7504 75.3306 95.1191M99.8729 66.9075C114.277 51.4989 121.357 44.8933 118.288 48.5017M103.774 65.2226C112.37 60.1762 118.937 53.5371 117.224 49.8712M42.0529 136.411C37.4982 131.123 42.3299 130.144 52.0829 120.891M40.9874 137.136C50.1242 133.424 54.9488 126.733 51.6231 122.442M71.2285 105.356C75.1596 100.987 75.2871 101.275 77.7449 97.3125M67.6935 105.286C68.433 105.238 69.3657 101.703 77.824 95.6584M104.796 67.9672C107.903 57.5345 108.353 53.1709 117.592 50.5162M102.319 65.5001C105.175 54.8835 108.341 48.4281 115.833 50.3017M41.7869 138.268C43.0596 134.258 46.1922 134.96 53.2827 125.437M41.7265 138.022C47.8221 138.222 51.2777 134.258 55.048 124.516M67.2359 105.789C69.3503 103.225 72.4847 103.03 79.0722 96.5248M67.5569 106.807C75.3019 100.173 78.0456 97.9312 78.0681 94.9655M101.374 68.207C105.532 61.4726 108.289 59.8856 113.754 51.3842M103.819 67.1259C100.5 63.186 104.246 59.6091 116.671 50.8297M43.6185 137.35C46.1215 134.19 47.9404 128.326 56.4267 122.598M42.1161 138.047C52.0159 131.623 54.4645 129.058 55.7346 121.992M68.8242 107.886C67.7172 103.393 70.0589 99.3174 75.8307 94.7122M67.4459 106.828C73.9097 104.644 77.8945 102.163 79.7674 96.5668M104.657 66.3195C108.573 59.3385 112.573 57.6752 118.391 54.5454M103.465 68.928C111.446 65.5879 117.855 60.5947 116.344 51.8529M41.9766 134.821C56.0423 129.597 57.8494 122.986 55.6932 125.986M43.603 135.666C45.4225 130.998 48.1401 125.568 54.7879 123.881M67.0654 110.917C65.3562 103.239 70.386 100.162 80.5005 93.4155M67.9004 107.428C66.783 105.169 71.8026 101.334 79.3285 96.7768M105.986 68.9784C111.068 55.814 112.084 54.0932 114.567 52.8514M103.179 68.6805C108.025 60.2893 114.218 54.4507 116.375 53.0379M45.2607 136.102C48.751 136.472 55.7678 131.747 54.8181 122.205M45.8419 135.616C45.246 135.941 48.5372 130.852 57.3284 123.104M69.4658 111.31C73.1179 104.208 81.2946 94.4345 81.3919 98.5944M69.5961 109.516C69.3825 107.881 72.7491 104.261 80.8405 96.3311M103.232 66.3782C111.451 59.624 115.006 57.2404 117.155 55.4589M104.817 68.3441C106.734 68.537 110.718 66.6185 115.005 55.8005M48.0482 134.813C57.6105 127.766 60.1315 123.841 58.531 121.777M45.6741 136.015C46.5233 134.953 48.4709 132.91 58.4944 122.334M72.3002 108.205C70.0204 107.609 74.404 102.06 81.6745 96.3832M68.9177 110.466C78.2642 104.708 80.8634 99.6094 81.0017 94.2735M107.271 67.8744C113.484 59.661 118.813 57.1637 117.982 55.5969M106.557 68.8065C107.482 63.4462 110.171 61.3207 114.988 57.0287M45.3987 134.413C53.1265 131.828 53.9584 128.578 61.2156 124.952M46.68 137.056C56.7171 130.855 60.2372 126.841 59.2172 122.223M70.1117 112.223C77.0742 103.056 80.1049 97.0974 84.1197 97.2257M71.4471 108.216C76.8287 103.571 82.4104 99.7292 81.8468 98.0563M104.783 66.7594C108.5 63.7624 111.364 60.3416 118.622 59.3239M105.407 69.2777C110.328 65.5265 115.242 61.749 115.992 56.2357M48.3492 138.64C55.3885 133.819 55.0418 129.946 61.678 125.294M49.1714 137.096C51.7575 130.972 54.217 127.142 58.6727 122.349M69.2412 111.287C78.1782 103.083 79.8754 100.37 84.1039 98.1905M72.9837 109.956C68.0237 103.203 72.6419 100.284 82.1689 97.0348M109.759 70.9661C109.433 63.7209 113.118 61.1152 117.623 58.9054M107.585 67.2287C113.1 67.896 113.842 63.6821 117.306 59.2016M49.1995 136.069C51.4476 129.768 57.6749 122.637 63.4086 124.12M48.4461 136.147C55.4577 130.831 59.2557 125.848 61.68 122.788M73.7725 108.017C75.6906 105.135 79.4552 99.267 80.7336 100.928M71.517 109.391C75.8595 106.518 77.3682 103.628 82.6825 98.3128M105.848 68.2766C106.567 68.2783 112.017 62.6535 116.857 61.1874M107.291 69.1127C116.595 64.0762 117.484 58.8159 115.015 59.2837M49.5002 137.791C52.0245 134.23 55.6656 133.539 62.422 122.221M48.837 137.11C60.4328 137.109 63.8474 129.535 62.0577 122.956M75.21 110.887C73.2518 102.783 76.201 103.323 79.5079 98.2798M72.3047 109.845C79.2906 104.331 82.93 100.074 82.0905 99.0936M106.633 66.7577C105.408 67.9449 111.571 65.8785 116.856 60.2801M108.588 69.0575C113.905 67.439 115.458 63.5563 116.654 60.4884M53.1987 134.846C53.55 131.136 57.8935 125.529 65.2264 123.904M51.8039 136.728C55.5944 128.613 56.6215 125.146 61.558 123.863M74.6828 110.272C76.4764 103.222 75.3152 105.011 83.3682 98.8684M74.8077 109.993C73.8096 102.818 74.4488 100.383 82.9497 102.43M109.775 71.9698C111.607 67.2907 110.614 68.3659 116.581 59.553M108.922 69.8347C113.283 64.9749 116.045 64.4595 116.648 61.8463M53.8922 137.286C58.6221 136.732 59.3018 130.294 62.8932 121.843M52.8224 137.487C51.5464 136.239 54.0929 132.833 64.2741 122.634M74.0282 110.056C73.3969 110.074 72.9244 103.027 83.3828 102.179M74.845 110.752C79.7444 110.128 79.693 106.269 80.4889 102.791M109.813 73.1004C110.784 67.8109 112.239 64.4199 117.294 60.7172M109.67 70.3699C109.027 69.743 112.749 67.349 117.395 61.8872M52.0035 138.772C60.268 132.05 64.6118 126.112 65.1936 125.075M53.8585 137.298C62.3207 131.932 65.1615 128.792 65.5607 123.231M77.9811 112.158C76.6334 109.09 77.8585 107.365 82.9838 105.897M76.387 110.623C80.1398 107.64 83.6637 107.253 81.915 103.127M110.436 74.5545C107.5 67.6564 112.292 62.774 119.215 59.9437M109.673 71.921C110.601 72.8797 112.658 71.43 118.145 61.3475M53.7925 138.229C57.0921 140.641 63.3525 136.3 65.5778 124.979M53.8204 135.915C59.7837 132.868 64.0995 127.082 64.504 124.467M78.6188 108.941C75.0795 109.24 77.7452 107.85 83.493 105.815M78.8749 109.825C78.6126 108.624 80.3189 107.56 82.2561 105.346M109.067 71.0972C114.57 67.2133 116.133 64.5862 120.047 63.1076M108.825 72.5411C108.816 71.7065 110.423 67.3597 118.63 61.2028M57.4107 136.534C66.5235 136.381 66.2667 129.035 68.5765 120.695M55.7779 137.11C61.1273 134.669 66.7722 130.43 65.8907 121.883M81.0979 109.122C82.4685 109.831 80.0734 108.072 82.0776 103.111M78.5241 109.892C78.5097 108.976 78.12 109.716 82.3019 105.002M107.615 72.0227C114.012 66.8327 121.489 62.6064 121.588 61.8545M108.213 74.8052C108.169 69.7412 109.772 65.3182 120.163 62.2354M56.3901 138.733C63.3554 137.675 64.8874 135.531 68.2395 124.87M54.843 136.117C60.2095 138.481 62.5107 133.524 67.0412 124.532M77.4248 111.226C80.7668 110.565 78.6739 106.764 81.2592 104.657M80.3789 109.542C80.1252 108.956 79.0817 108.373 81.0171 105.933M109.552 74.8955C115.425 64.5017 123.217 58.0412 123.849 61.7059M110.407 76.1694C109.736 72.7123 116.355 65.933 121.185 60.6827M56.7944 137.833C58.2062 136.717 60.1191 132.254 68.9504 125.645M58.0709 136.031C60.2406 128.923 63.4362 125.575 68.5594 123.298M80.9927 109.645C80.4602 109.493 81.51 109.839 80.6714 107.537M79.9697 109.875C80.9455 108.343 82.395 108.604 81.784 107.602M107.183 74.013C116.38 70.8109 118.927 68.5228 123.837 61.0061M109.046 75.3328C119.118 70.4724 124.603 65.0867 122.152 61.9489M55.4892 135.428C64.8312 135.778 66.9919 134.808 67.4648 125.364M58.5477 135.699C63.5654 134.26 66.8325 127.035 70.1003 123.07M109.23 80.2273C109.766 76.1473 109.876 72.7764 121.189 63.2089M109.124 76.4495C121.103 73.4752 123.889 67.214 122.414 60.7125M57.5965 139.146C64.0356 125.954 70.4406 125.06 71.268 122.163M57.6364 136.523C67.017 127.594 69.3252 125.803 71.4225 124.326M111.672 80.2895C115.855 74.4637 118.884 63.8269 124.631 61.0344M108.851 78.2672C108.028 78.8983 112.345 73.8695 124.293 63.6219M57.6139 136.317C59.3012 133.297 66.0674 125.814 70.6536 121.125M60.4688 135.679C57.2279 136.236 62.8026 132.758 71.2365 122.329M108.955 79.1079C120.697 79.8277 126.656 72.1955 125.345 66.4954M110.033 78.9169C111.81 79.766 115.724 75.606 123.11 63.5347M61.3817 136.103C63.5453 136.776 65.2152 134.064 71.712 122.662M60.73 137.806C65.7765 137.293 71.4711 131.29 73.8282 123.873M107.947 83.3477C114.516 72.5417 116.372 65.8659 123.289 63.5036M109.746 81.7031C111.187 74.0479 114.217 68.9824 123.079 63.8456M61.4755 137.154C68.7454 125.461 76.194 120.234 74.8107 122.366M60.5239 135.607C59.2829 139.924 61.8 135.754 72.8189 123.911M109.843 80.2185C115.093 73.2405 122.865 68.8884 123.904 66.4108M109.538 81.9819C118.681 77.9405 122.954 74.322 122.985 65.4907M63.5635 134.247C72.5779 126.28 74.6717 122.996 75.3503 121.305M63.7105 136.228C71.0783 138.183 74.7855 134.733 73.9377 122.494M109.406 81.704C110.671 84.413 116.773 80.91 122.098 67.6824M111.021 81.3634C108.263 80.8682 113.165 74.2209 121.958 67.2212M62.8536 135.924C67.9913 137.029 73.1689 129.64 77.2116 122.838M62.5812 135.475C72.1664 127.32 75.7311 125.754 75.3503 122.32M111.365 84.1164C114.326 76.02 117.336 74.6002 122.553 66.9448M110.442 81.005C110.646 75.6632 114.547 70.8426 124.152 68.0653M62.907 135.667C69.4056 129.429 70.9309 122.439 76.7974 121.489M65.9149 137.851C72.0917 137.679 73.669 134.925 75.3552 122.454M113.153 84.0358C111.882 78.534 113.683 72.8955 125.665 71.8828M111.633 83.0812C111.75 79.7623 115.194 76.1276 122.096 70.7199M64.1742 134.311C72.9809 128.519 80.922 123.096 75.6471 122.505M64.7001 135.692C65.952 136.078 70.7466 130.958 77.3425 124.303M113.449 83.0805C116.633 80.5369 123.731 75.1369 121.997 68.3825M114.193 81.2409C113.309 76.8311 115.39 73.4872 123.556 71.8305M65.3252 137.653C66.6349 131.135 70.392 124.788 79.5855 125.16M67.647 135.938C65.3995 132.358 68.2894 128.725 79.3504 123.794M112.455 84.2552C115.701 73.8649 117.334 71.115 121.478 71.3803M114.853 81.8092C119.345 79.7405 121.252 74.9854 122.992 72.6945M69.6773 137.31C71.8859 128.086 74.2298 126.849 77.2577 120.683M68.0805 135.949C75.2987 132.235 77.9554 125.898 78.3171 122.29M116.819 83.382C117.982 83.412 121.341 81.1849 122.259 74.7945M114.614 82.6652C119.152 77.9109 121.642 76.907 123.566 73.8793M70.8469 137.634C73.5462 135.561 73.5188 126.813 81.0302 120.865M67.4959 137.235C78.2406 128.923 82.0986 122.808 81.267 122.822M117.545 82.535C121.884 78.3615 122.46 77.6246 123.883 73.731M117.183 81.3452C121.286 77.8744 121.594 75.113 122.172 75.1215M72.0195 138.238C67.8563 132.832 69.6096 126.808 78.9882 125.371M70.5447 137.676C76.8137 127.331 80.8448 125.363 80.598 123.72M116.081 82.3965C121.872 83.0209 124.388 80.6533 125.27 78.0245M116.459 84.4153C114.891 82.1314 117.456 78.9958 123.165 74.156M73.3784 135.136C70.383 130.375 78.6897 127.226 83.5755 123.343M70.1114 136.509C76.4616 126.504 78.1056 123.05 81.6734 124.503M117.399 83.763C115.376 77.5174 118.714 75.6962 124.013 76.9365M117.468 84.8045C115.614 83.817 118.757 80.5449 124.304 74.9837M72.6777 137.568C69.4272 128.595 74.9492 124.931 82.4359 125.65M71.6438 137.376C79.4858 127.102 82.8872 121.199 84.1679 123.596M118.696 85.0436C117.008 82.1137 118.697 75.5957 127.234 77.5018M115.422 86.1785C118.251 82.9625 120.035 79.869 125.962 76.7188M73.1569 135.302C82.7847 130.059 85.2844 122.69 83.0689 122.523M73.5715 135.713C70.5816 132.499 73.9904 128.875 83.7822 123.17M115.913 88.806C117.87 82.3205 119.333 83.3615 128.708 77.2117M117.524 85.7859C123.023 78.3154 129.046 73.5812 127.029 76.32M74.461 136.055C83.2695 129.821 87.8571 123.456 83.9974 124.432M74.3884 136.939C83.8472 135.131 88.3097 130.446 86.0794 122.942M115.358 86.4557C112.884 80.9072 121.171 78.0566 125.433 74.2532M117.331 88.6847C124.863 82.6837 126.56 79.1117 127.898 74.1517M73.5627 137.186C80.8379 138.053 86.8677 130.953 88.4556 125.899M74.1332 136.081C74.1788 133.804 80.3142 128.658 86.3119 123.165M116.098 89.0464C120.202 91.5425 123.085 87.3004 129.199 75.1867M117.016 88.8217C115.211 85.5654 118.644 82.2812 128.227 76.6929M78.2927 138.815C82.7059 138.148 89.4792 130.124 88.6995 120.532M76.6118 137.923C85.2302 130.187 87.5001 127.111 87.8393 122.143M115.671 87.8764C119.08 81.6797 122.598 80.0261 131.01 74.1604M116.186 91.0423C118.372 86.0407 120.83 84.3159 129.127 74.5607M75.5412 137.524C85.3444 126.361 92.214 120.231 87.6824 122.463M77.3972 137.827C76.0234 132.865 80.2305 129.609 89.3061 122.798M114.626 89.2085C129.539 81.7879 128.078 78.6277 130.997 78.2306M117.228 90.9379C115.842 84.8141 118.481 82.8313 131.387 75.1235M79.1207 135.202C76.5782 126.186 81.0426 119.8 90.6576 124.54M77.4904 137.099C77.3342 131.01 81.6297 125.312 90.6329 123.329M117.72 90.4607C125.692 94.4737 131.008 87.5302 128.016 75.711M116.05 93.0253C113.823 82.58 118.601 80.1099 130.739 76.103M79.6615 137.704C80.6678 130.529 86.6899 127.001 90.4635 121.605M79.9962 136.716C84.9117 131.048 86.259 126.417 91.863 123.023M114.184 94.5776C125.789 86.756 128.895 83.417 132.549 79.3487M117.101 92.6385C124.907 94.8585 129.475 90.4995 128.918 77.8588M80.2536 134.833C87.127 129.037 89.6969 127.989 92.9594 120.834M80.8684 137.602C78.4877 132.982 85.689 129.589 91.6 123.738M115.023 97.3787C124.934 87.3279 131.296 85.0327 131.299 80.9623M117.655 95.1504C120.787 89.3634 124.485 84.1552 129.729 78.8949M78.9435 134.553C80.8223 136.312 84.6987 128.679 93.2826 123.036M80.988 135.973C87.2785 130.373 91.3234 128.151 93.5905 124.301M113.931 94.7C123.644 86.694 128.151 84.0274 127.759 77.3685M117.151 96.9615C114.061 86.1379 117.956 82.4569 130.465 79.9005M79.4618 134.396C86.622 137.602 91.5535 131.901 92.3174 121.963M80.3532 137.06C79.9382 131.645 84.8235 128.288 92.5605 122.215M118.538 97.5283C118.382 91.073 119.636 86.8507 128.331 83.8361M116.679 96.326C126.613 86.6447 127.706 80.9619 129.33 81.9035M83.395 136.592C88.6523 137.793 91.281 134.039 92.5242 124.858M82.258 137.637C86.6159 129.888 89.4737 127.952 94.6433 123.61M118.08 98.0715C116.291 87.9823 119.191 79.2005 130.1 82.2367M117.275 96.185C124.103 95.3704 127.338 89.2969 129.489 83.1718M82.731 138.492C82.9527 128.444 84.7137 129.329 96.8307 125.908M84.4885 137.001C80.4111 138.976 83.9834 135.344 94.9328 122.814M119.769 97.0687C122.435 99.014 125.498 95.3539 128.02 85.7812M119.504 97.1323C121.174 94.9639 124.215 91.7075 130.59 83.4995M86.493 134.943C88.6652 127.484 94.201 127.003 95.6841 124.183M84.2639 137.305C92.7405 132.066 94.8233 128.957 96.8704 124.245M118.809 95.6882C118.139 98.4585 124.91 93.3733 129.468 83.48M121.114 95.6835C119.093 87.8735 123.123 86.7026 129.281 83.4007M84.6188 135.979C84.7388 133.493 91.8203 128.23 96.1092 121.681M87.0417 136.9C88.9952 132.219 90.8635 130.02 98.1355 123.521M120.505 94.1561C120.191 93.6675 123.906 94.1595 129.187 87.2524M122.259 96.8874C126.813 93.8554 128.542 94.0483 129.39 84.51M88.2906 136.929C97.5439 129.4 101.384 125.776 99.6625 121.345M86.2881 137.577C91.1835 138.486 94.0341 132.59 97.7924 123.438M122.575 97.0963C121.698 94.1402 124.049 88.8564 131.12 86.6497M122.25 96.08C128.35 94.5986 130.561 93.6214 130.237 85.971M87.8843 138.248C91.255 138.202 96.9289 135.854 99.3229 124.701M87.0983 138.009C88.87 132.896 90.4699 131.503 98.8883 124.014M122.935 94.8939C129.856 95.6089 131.387 91.3057 128.6 88.0993M123.986 95.8935C125.824 96.5876 127.392 93.2465 129.011 87.3725M90.823 134.419C94.5711 132.479 98.0236 130.183 98.8247 125.496M87.6225 137.979C90.6034 129.525 95.0102 125.784 99.5642 123.472M121.839 94.4627C125.018 96.3765 123.265 90.0174 128.095 86.8099M124.38 96.5998C122.822 95.4521 126.416 91.6089 130.461 88.58M88.1067 136.057C96.1024 134.846 99.886 126.982 99.4133 123.731M89.3543 135.995C100.01 138.987 100.692 136.082 102.539 122.671M123.716 96.6403C127.025 96.0193 127.823 97.4109 131.633 88.0322M124.543 98.9621C121.801 94.6213 123.88 92.8189 130.993 88.6129M88.3448 138.808C89.0942 132.339 92.5125 130.625 103.935 122.396M91.8119 135.994C93.8196 136.747 98.8615 132.595 102.35 122.773M122.924 98.8472C119.922 98.6855 124.064 94.0899 133.078 89.5935M121.874 100.179C130.661 95.6083 132.843 90.9002 133.177 88.2287M89.2274 134.931C96.2423 132.527 98.9344 129.712 101.349 121.852M90.4229 136.857C93.6593 127.944 99.2597 122.815 104.165 123.816M125.488 101.435C129.858 96.6024 132.44 89.9514 135.962 89.7109M122.18 100.274C122.092 95.9977 126.514 93.0178 133.893 87.3605M91.5379 135.937C101.423 133.484 103.647 128.911 105.948 125.178M92.007 136.678C95.6577 128.646 98.4021 125.203 103.555 122.733M121.977 99.171C123.806 98.384 130.054 94.8589 136.88 88.5367M124.526 102.312C123.572 100.768 128.695 96.2207 133.54 89.8969M94.3497 137.797C98.7428 134.369 105.895 126.451 107.547 120.914M93.5524 137.84C91.2025 135.743 93.3719 132.877 106.661 124.516M122.914 104.418C128.817 98.7786 136.784 96.2216 136.275 86.1799M124.016 101.987C125.898 93.3787 127.731 88.991 134.454 89.1088M94.8244 134.943C96.7281 131.21 100.301 129.565 103.976 125.601M93.8807 136.266C101.625 139.79 104.219 136.321 105.978 123.587M121.985 101.554C132.619 105.336 137.965 99.6559 134.247 90.512M122.805 103.129C131.406 99.1984 135.069 97.2092 136.685 87.9789M98.2504 135.393C99.8001 125.732 104.354 123.118 105.373 120.604M95.9119 135.629C96.6983 133.675 100.176 131.316 108.43 123.619M124.383 105.556C118.4 95.9839 122.056 94.0582 137.519 92.0244M122.175 104.09C128.897 105.34 133.589 102.753 136.48 89.6092M96.9863 138.706C99.5069 135.068 101.289 131.591 109.725 125.737M96.0704 137.835C94.8332 132.43 96.0854 128.975 108.819 122.765M122.969 105.054C121.624 102.284 124.733 97.0072 134.434 92.7851M123.508 105.886C129.417 104.054 132.964 99.4652 135.642 92.1334M97.6075 136.549C107.585 127.518 113.475 123.027 109.162 124.629M98.1374 135.853C102.266 132.105 103.066 130.083 108.908 124.168M124.044 106.632C117.896 102.308 123.866 98.678 133.906 93.3922M124.364 107.671C127.22 104.006 130.133 100.904 136.955 92.3072M98.1805 137.242C103.744 129.095 107.075 121.794 108.483 124.939M98.8 137.96C98.6423 126.813 103.134 123.249 110.027 122.413M123.872 108.217C135.116 108.321 134.632 105.683 138.052 93.3292M122.828 109.523C129.207 106.296 133.403 99.3 136.552 92.472M100.249 139.497C108.639 135.059 112.397 130.153 109.848 122.135M100.983 136.753C99.6175 130.613 101.642 127.206 110.364 122.551M123.338 111.374C126.968 107.478 131.067 99.3225 137.741 95.1851M124.614 109.869C124.548 104.504 129.515 99.5023 135.644 95.381M99.3351 137.519C106.657 124.987 109.259 124.836 113.031 123.319M101.899 137.016C100.793 137.537 105.505 134.926 112.474 122.504M122.379 111.991C119.418 110.962 126.154 106.135 136.398 93.8246M125.659 108.719C130.417 102.915 134.342 99.0245 136.187 94.8397M103.698 138.033C111.136 134.81 109.089 132.037 110.766 123.373M101.15 135.507C104.84 136.158 108.542 132.512 112.807 123.723M124.279 110.024C128.38 105.454 132.901 101.031 137.73 96.5835M125.298 110.329C127.94 104.29 133.153 101.762 137.318 97.5701M100.487 134.803C106.359 133.492 109.573 125.425 115.937 122.806M102.236 136.002C103.887 129.638 106.322 126.264 114.226 122.971M128.59 106.848C134.38 102.587 132.652 100.562 135.219 96.3857M126.189 109.119C133.723 104.205 139.459 99.1502 136.798 97.52M102.574 136.14C110.382 138.451 111.344 133.718 113.246 122.805M104.8 137.624C112.368 135.507 116.34 129.28 114.861 122.465M125.272 111.096C133.75 109.731 134.536 105.83 136.722 100.462M126.331 108.682C126.316 111.452 127.263 108.204 135.902 98.9951M102.128 135.724C108.513 131.791 115.194 124.217 116.29 123.23M103.405 137.133C104.456 130.28 110.832 125.995 117.594 123.585M129.395 110.092C126.469 104.262 132.226 102.746 134.559 100.234M129.029 109.291C135.193 109.889 138.91 108.123 136.002 99.4459M107.287 136.76C105.754 134.497 103.454 134.264 115.883 125.854M106.49 135.567C107.099 128.599 109.638 124.803 116.63 123.517M130.96 107.059C132.068 106.646 132.243 104.317 137.482 101.151M128.371 109.965C132.851 110.566 136.759 108.955 137.315 100.474M109.154 138.158C109.425 130.736 112.726 129.281 119.085 121.375M107.414 137.635C106.208 131.251 110.885 126.897 117.643 122.077M127.616 111.212C136.981 108.47 134.699 103.949 138.816 104.71M130.675 111.582C131.858 108.666 133.988 105.873 135.775 102.809M109.735 139.211C107.64 127.074 112.816 125.07 116.796 120.826M106.768 137.719C110.008 136.756 113.346 132.135 120.138 122.39M129.047 109.023C133.389 105.975 136.513 102.953 136.515 99.8327M128.614 111.3C133.155 105.666 137.089 100.9 138.69 103.648M110.388 138.886C105.446 128.571 107.855 127.332 123.053 124.956M109.55 136.156C110.96 131.843 113.29 127.423 121.196 121.913M128.372 110.697C133.481 108.098 136.241 102.7 136.809 104.578M130.014 113.112C131.955 110.954 135.373 104.428 138.32 102.063M108.877 138.325C116.232 134.275 119.071 125.903 121.223 124.759M109.784 137.168C109.053 136.773 111.852 134.286 121.25 123.494M130.541 113.383C136.845 106.538 137.529 102.753 138.525 102.822M130.248 114.308C132.391 111.837 135.64 107.966 138.244 101.436M108.111 138.915C109.229 129.203 112.189 128.841 123.854 120.918M109.957 138.104C108.815 130.12 112.405 127.714 123.265 122.048M131.77 113.666C127.353 116.014 129.18 112.104 142.456 102.352M130.863 116.032C138.7 107.128 142.497 104.453 140.075 103.575M114.033 135.816C112.488 137.56 114.639 134.222 121.953 125.554M111.364 137.773C120.717 138.67 122.068 135.751 123.28 124.27M128.052 113.908C133.789 107.653 136.403 103.512 140.814 104.161M129.886 116.734C130.933 113.966 133.674 110.781 140.144 101.744M114.353 137.939C118.391 125.134 123.589 121.755 124.904 122.713M111.676 135.986C117.084 134.437 118.195 131.37 123.876 122.409M128.494 118.081C137.427 113.576 143.856 106.213 141.658 100.824M129.298 117.736C132.108 107.067 135.77 103.437 143.33 101.74M115.334 138.896C120.634 132.58 122.241 133.438 126.653 120.895M114.647 136.95C120.288 131.599 122.64 127.433 125.218 123.543M130.534 120.45C129.903 109.954 136.57 108.1 142.274 101.496M129.199 119.207C126.825 111.348 131.002 107.794 142.258 103.844M115.712 135.441C118.915 128.118 119.498 124.151 126.668 124.499M115.675 137.611C110.917 137.347 115.19 135.535 127.301 124.212M128.381 119.941C135.537 116.992 143.053 115.004 141.159 105.133M130.548 119.722C138.86 117.049 144.315 112.487 143.721 102.225M117.044 135.764C115.29 136.373 118.451 133.044 124.992 121.455M116.876 137.538C112.92 132.582 115.507 127.497 127.171 124.34M131.004 122.998C134.548 116.616 137.84 107.953 143.887 104.991M130.712 120.24C126.89 121.486 128.528 117.527 142.607 103.454M117.141 134.444C118.843 131.212 121.76 129.753 130.643 121.941M117.112 136.691C115.933 137.175 120.879 135.179 127.114 122.656M128.633 121.229C140.061 112.682 142.102 111.06 145.279 106.021M129.19 122.931C139.507 114.177 143.586 110.563 142.179 105.014M116.478 136.008C120.098 125.384 128.638 114.703 144.353 108.875M118.189 137.749C116.654 125.347 123.14 118.128 143.137 107.558M120.837 135.284C117.374 121.6 124.085 114.099 142.345 110.501M119.075 137.754C116.32 127.165 122.305 119.817 144.098 108.844M119.438 136.99C124.468 122.229 127.039 113.803 146.057 108.923M119.054 137.509C114.375 124.698 119.089 118.946 143.471 108.528M121.022 136.761C118.456 138.766 123.766 130.549 141.3 110.561M121.497 136.79C122.608 130.237 128.968 122.586 143.689 110.885M121.235 139.402C133.019 129.742 135.941 118.307 144.173 109.912M120.473 136.37C120.932 120.405 130.677 113.596 143.588 111.937M122.871 134.856C125.164 126.408 129.609 120.095 143.155 113.103M122.021 137.427C117.613 137.604 122.676 132.872 144.07 111.553M124.065 137.632C137.469 123.005 143.737 115.93 145.807 114.011M122.918 138.04C127.784 126.298 134.86 117.507 143.299 113.952M124.022 138.43C136.878 122.625 141.954 117.579 142.871 116.152M123.977 137.867C136.329 132.385 143.737 125.356 142.495 115.794M128.128 138.926C123.901 126.312 131.089 121.819 144.229 115.07M125.884 137.332C133.875 133.222 140.97 128.167 144.577 117.218M127.605 136.655C121.811 134.224 125.695 129.982 143.203 116.186M127.809 136.232C136.172 134.353 139.829 129.224 144.321 116.24M126.499 135.374C135.733 127.473 141.657 122.065 146.004 118.588M128.567 135.538C131.072 129.433 135.412 122.491 144.422 118.578M129.851 136.532C127.807 132.109 134.019 124.967 145.11 120.487M129.254 135.438C131.18 127.187 134.945 121.254 142.426 120.825M131.507 139.516C141.94 134.504 146.751 127.364 145.613 121.889M130.092 138.098C139.9 137.856 144.525 131.291 143.384 119.457M131.036 137.361C131.688 130.15 134.198 132.815 134.687 130.37M131.345 135.474C134.137 134.446 136.213 131.873 135.407 130.281M138.505 130.221C136.37 125.008 138.525 122.043 142.253 123.07M135.937 129.585C138.051 131.444 140.968 129.14 143.612 122.554M132.738 135.577C133.942 135.251 133.52 135.19 136.776 129.323M132.274 135.925C135.887 133.971 137.864 130.563 136.563 130.705M139.327 127.539C141.43 124.568 145.221 122.473 144.868 122.855M138.553 129.134C142.072 127.793 142.059 125.704 143.429 121.902M131.192 137.619C134.004 132.409 135.513 132.033 135.876 129.625M133.462 136.921C133.285 133.51 135.005 134.798 136.048 131.037M137.777 127.778C140.719 131.601 142.485 128.245 141.493 122.228M139.645 130.384C140.172 130.013 140.925 126.123 143 123.163M136.019 136.902C137.929 133.948 136.761 133.874 137.827 130.513M133.869 137.055C136.28 134.293 137.011 134.468 137.46 133.017M141.311 131.32C142.778 129.99 140.799 129.472 145.817 123.82M139.632 129.456C141.889 129.311 144.097 125.841 142.067 125.716M133.384 135.526C136.857 135.521 137.552 134.8 137.254 136.307M134.624 136.684C134.114 136.97 135.02 135.535 137.221 133.546M139.142 130.722C144.442 127.12 143.596 126.419 141.524 128.803M139.804 128.495C140.996 128.214 141.799 126.327 144.542 127.194M136.596 137.506C135.351 135.562 136.56 135.926 135.802 134.101M135.42 136.784C135.887 136.821 137.105 136.078 136.847 135.645M140.966 130.26C140.984 129.126 142.27 130.289 144.657 127.247M141.632 130.578C142.757 128.775 143.996 128.392 143.283 127.132M142.926 129.277C143.776 128.739 143.93 128.137 142.724 128.674M142.599 129.806C143.236 129.316 143.374 129.67 143.105 129.169" stroke="#4A45AA" stroke-width="0.51" stroke-linecap="round"/>
<path d="M135.575 135.54C95.043 115.884 56.2528 115.773 12.669 135.613M136.613 136.296C101.22 134.77 66.0643 134.885 13.2298 136.571M11.6308 133.942C14.5569 137.289 12.4504 132.343 12.5102 130.567M12.4395 137.461C14.5993 135.268 14.28 132.14 12.5917 130.01M16.3324 128.575C10.6346 129.677 9.68212 130.171 5.55093 130.025M14.4892 130.19C10.8765 132.71 10.0836 131.371 6.23024 130.019M4.7683 129.219C9.54618 120.345 7.80655 115.355 6.57599 102.002M6.84955 130.562C3.05062 122.708 4.1773 118.521 5.61674 101.36M9.16743 103.65C6.22893 103.657 8.80687 104.781 11.2029 99.9495M7.32449 102.973C9.06449 103.413 10.3507 101.589 13.0509 101.373M16.2733 101.397C12.4701 97.3496 13.7267 90.5349 14.7478 88.029M13.821 102.852C12.3388 96.4412 11.4986 92.2404 13.2613 88.0221M13.5591 90.876C16.1614 86.0753 16.0697 86.3642 21.1211 90.4069M12.6017 87.9947C14.8269 87.0733 16.8626 87.087 20.6019 87.2783M23.1495 87.2895C22.8911 86.8146 25.7158 79.6622 21.6896 75.3546M20.8367 87.3958C26.5056 86.4478 24.1736 80.8425 21.7929 75.2479M20.2271 74.9464C24.0917 71.3421 23.3372 71.8894 25.8874 75.2468M21.7391 74.5569C23.4144 73.8566 24.5679 73.4274 26.2228 74.6951M29.9659 72.6173C31.0723 71.4994 31.308 62.145 24.711 60.6799M27.7695 76.0899C29.388 70.7743 28.7743 65.7482 27.0229 61.3719M28.5467 60.9634C30.7747 60.3396 29.2153 60.9742 32.586 60.9969M27.2332 60.5331C30.5437 61.8176 31.356 62.0044 34.1272 62.0792M31.6522 59.4593C33.3392 55.4741 32.4039 53.4223 31.6811 45.3248M34.7949 61.2908C39.672 56.1433 39.2572 51.0851 32.9092 46.5169M33.2797 50.4422C35.9235 46.7278 36.7746 46.4496 38.7373 48.555M33.3052 48.9773C35.7337 44.4651 38.5097 45.0173 40.6672 47.3353M42.6379 45.3281C46.9241 43.4657 46.3354 41.6216 40.9534 32.5131M42.1132 47.1281C36.011 43.5458 36.3366 40.8174 39.9561 35.0445M43.2459 36.3553C43.155 30.2666 44.0321 34.5973 48.6892 34.2193M40.0971 34.6185C42.0536 31.56 44.4425 32.8502 48.7661 34.482M46.5463 33.4684C47.8762 28.5473 47.7741 28.188 50.1566 19.9209M46.3813 35.3799C44.2324 31.5026 43.3682 27.2689 48.6262 20.6124M50.4298 21.8068C49.5416 20.7278 50.9623 24.6313 57.044 20.1508M47.3512 21.6023C49.2328 18.3463 54.3347 18.7149 54.977 19.4119M54.6956 20.0891C55.158 19.4475 57.8807 15.4751 52.1089 15.8415M54.8593 21.2743C55.827 18.6714 55.3637 17.1463 55.1555 14.1549M54.0632 12.8319C68.3734 -2.20537 81.198 -0.363932 97.1182 12.4418M54.4775 14.7171C66.8216 -1.16681 79.7614 -2.67525 96.149 14.7979M95.9681 11.3469C97.6249 13.0196 99.2921 17.5665 97.7428 19.242M95.8864 13.9794C98.9741 15.7629 98.6494 16.7273 96.3281 21.7506M96.2707 19.1595C99.6649 19.3299 100.264 20.6184 100 20.7343M95.5262 19.8868C99.1693 22.0888 101.182 23.6854 103.085 21.7361M104.401 19.1025C99.5006 25.8765 102.042 24.5858 104.22 35.0552M102.451 20.2483C104.171 24.8901 103.6 30.0176 103.468 35.0807M100.46 31.9541C106.586 31.4874 105.287 31.4571 109.092 32.9464M103.111 34.7244C103.595 31.992 105.094 32.6111 110.088 35.1328M111.413 32.2211C105.047 39.4519 109.329 42.3784 109.97 47.0346M107.952 33.7641C112.516 36.4901 112.41 41.1443 108.953 48.7888M110.669 48.9506C109.944 48.4196 112.463 47.1636 115.259 49.0718M110.423 46.9586C110.816 45.75 112.767 44.4107 116.957 47.5311M114.591 50.2425C112.004 50.4401 111.928 60.0921 115.173 58.7983M116.175 47.9621C114.971 52.6491 115.744 57.177 114.798 62.3741M117.213 60.6662C116.009 62.4362 116.536 58.0888 123.58 58.9905M115.755 60.0486C116.982 62.7006 119.32 62.6252 122.3 62.1255M122.712 61.1428C121.845 66.1063 120.21 68.7443 123.341 75.0866M123.867 62.3876C119.311 67.5748 119.384 71.7919 123.836 74.1401M125.109 75.8074C125.546 72.1271 126.082 74.6021 131.236 73.0978M122.281 74.4418C125.058 76.3868 128.429 74.8238 129.905 75.4607M127.635 75.3945C130.271 78.5955 129.571 83.5626 131.669 90.2227M129.298 75.6021C123.658 78.1515 124.272 81.4545 128.809 89.2341M131.264 90.6422C133.379 86.5524 133.271 90.4433 133.971 88.8435M130.757 87.7787C132.321 90.1871 132.795 90.7108 136.507 88.7166M135.054 86.1894C140.575 95.1167 140.643 98.0488 137.412 100.116M137.117 88.8186C138.125 92.3854 138.314 97.0262 137.071 102.103M135.27 103.182C137.488 97.7548 142.459 98.4354 144.171 103.41M135.714 102.079C138.347 100.642 139.871 98.8071 142.206 101.397M142.719 104.336C142.041 107.61 141.709 114.991 145.55 126.983M144.125 102.026C137.109 108.356 139.168 117.151 143.326 130.396M144.27 131.063C140.698 126.142 142.054 131.01 137.96 131.414M142.735 129.299C140.378 130.216 140.892 130.525 136.641 129.934M136.851 127.164C139.119 129.581 139.612 133.983 137.347 134.809M135.375 129.788C135.271 132.741 135.466 135.853 136.123 136.565M63.7099 40.4889C61.3406 42.9613 57.6358 39.2803 54.2222 43.1653M60.3141 42.0518C59.7187 41.4889 57.5745 40.2606 54.1631 39.7164M56.9822 39.6909C49.5665 43.7243 49.8679 50.4769 55.496 55.1561M55.7572 42.1637C55.7449 45.1935 57.4494 51.8841 55.5019 55.3654M53.498 54.9266C51.5402 54.2353 48.8032 57.2269 50.1146 53.2918M53.9584 53.4589C51.9092 55.4192 52.0219 57.1099 47.9499 54.228M50.4277 54.7371C50.7335 58.1829 50.6102 63.0369 48.5977 70.0464M46.4704 54.4294C43.6055 57.3214 43.1121 60.0221 48.0465 67.047M48.9247 68.637C47.5695 68.4784 42.4162 68.7709 38.6516 68.2299M46.7979 68.3548C45.8075 69.1378 44.1797 67.0749 41.9839 69.0705M39.1462 67.7488C38.8138 73.0028 36.8525 73.3228 38.4174 79.3701M40.4471 67.6806C35.7277 72.6433 35.2725 76.2435 40.49 81.1183M41.2742 80.3138C39.7884 77.6331 36.2188 77.0753 36.605 82.929M39.9084 82.3183C38.5974 81.4892 36.8381 81.945 35.4178 80.4581M33.4402 83.9126C34.8309 82.9146 33.0067 89.5914 35.4549 97.101M34.5401 82.2512C36.77 83.5757 36.6225 86.5352 34.9175 95.4278M34.6367 94.9939C32.7448 92.538 32.2361 95.625 27.2424 94.4672M34.3582 96.5666C31.7482 98.2762 29.7324 98.8356 27.6517 94.1162M26.1142 94.7955C29.8856 101.622 31.8874 107.85 26.4516 111.487M26.7441 95.9106C22.3414 101.087 23.6317 106.518 28.2982 108.948M26.9231 109.674C27.1759 109.409 23.5151 108.672 18.0707 109.291M26.0856 108.595C24.4459 110.427 23.2018 109.793 21.1191 108.839M19.3564 109.068C16.7992 113.987 16.4739 119.516 21.5107 121.288M19.1321 109.057C19.8309 114.314 20.3164 120.061 21.2917 121.613M21.303 123.389C45.3238 108.793 71.4065 109.41 128.727 121.963M20.055 122.814C52.698 121.814 85.6841 121.763 130.001 122.777M127.728 125.243C129.265 121.413 130.772 117.5 131.527 110.671M130.827 123.823C134.148 119.34 134.78 115.731 128.196 109.263M129.181 111.587C127.919 112.363 126.382 107.212 123.619 111.747M128.444 108.16C127.945 110.812 124.518 111.055 123.106 108.118M124.922 110.247C115.11 108.005 118.185 101.823 122.939 96.2213M122.114 109.28C119.561 105.371 120.336 98.5223 122.108 94.2268M125.204 98.0229C118.291 93.9915 120.786 94.011 113.332 97.4893M123.131 94.1563C120.893 97.4134 117.943 97.5782 114.583 95.7068M113.238 92.8219C109.225 91.5135 109.774 87.7888 114.053 84.4131M116.159 96.5644C122.146 90.6285 121.124 86.0503 115.922 81.5762M114.172 81.2012C116.764 80.4043 114.073 79.8684 109.431 81.5229M115.277 81.168C112.499 80.5755 109.538 78.9429 108.006 82.8234M108.181 82.1016C108.273 75.9362 106.566 72.2655 109.317 65.6312M108.398 82.5182C113.095 76.5664 113.347 70.7672 108.586 67.1897M111.052 67.7434C106.732 70.3652 104.244 71.6799 103.945 70.6258M108.386 66.9446C105.419 67.6791 104.344 68.2941 102.319 69.2693M100.923 69.7335C106.657 66.6217 103.5 61.0854 101.976 54.6298M100.938 66.9606C100.156 62.6741 99.993 58.0483 102.91 53.4653M100.127 56.8176C97.8544 58.5711 95.7692 54.7633 96.0844 52.7201M103.207 54.5229C101.297 54.7911 99.6519 54.7603 94.6175 55.5454M97.8836 56.5395C101.424 51.1121 102.363 46.7571 98.1225 42.1929M96.2194 55.3774C90.5938 51.0144 90.4961 49.1104 94.775 39.771M95.882 43.4038C91.9901 39.903 90.6459 39.8428 89.0927 42.6621M95.3981 40.1019C92.3467 37.9223 91.3624 39.1211 88.3676 41.757M88.7771 38.5714C82.9809 35.9604 82.2118 31.2789 91.0697 27.8349M88.293 41.2922C92.9756 35.2569 93.9604 30.1348 89.18 27.2198M91.3327 30.0083C84.5711 27.5233 76.4964 28.8707 62.1202 27.9263M87.6367 27.9113C78.6043 36.8584 68.5565 38.1079 60.5396 26.5273M60.7202 29.8329C65.2342 32.1489 63.9784 38.6423 60.3551 38.4503M60.2788 28.3558C61.4773 32.8125 62.4733 36.4193 60.7655 41.0843M66.423 50.1954C72.0673 54.2756 80.0824 53.901 82.671 45.2153M67.8386 48.3398C73.1595 43.0354 75.6122 44.5851 82.6297 48.9285M80.4202 45.9381C83.936 58.9929 84.8014 69.3564 83.2963 88.6448M82.8695 48.1958C95.7495 60.5303 96.5839 71.7169 81.8987 89.7615M82.1756 86.5108C75.4991 87.5299 75.6829 88.9403 68.273 89.8044M82.1432 88.4379C78.1372 81.3791 72.8914 82.7109 69.0986 88.8651M70.0466 87.6778C53.5805 82.4942 51.6795 73.6894 66.9677 48.8709M68.9608 87.8878C78.9469 73.9281 77.7022 57.8106 68.837 48.6538M65.7703 95.8129C75.2207 98.982 80.3767 98.1705 82.0717 95.2371M69.0928 96.3572C72.0485 100.536 76.5317 100.524 81.1031 94.5711M83.4487 95.2174C78.4378 101.064 78.6947 104.408 84.5229 106.398M82.2281 95.0608C80.5946 100.55 81.9217 104.985 81.2606 108.833M84.4554 106.866C78.692 108.884 75.8479 113.48 69.3699 111.497M82.3766 107.777C76.8056 107.926 74.5734 107.505 68.7244 109.342M70.8937 110.902C74.7919 103.081 72.1477 99.2998 68.0075 95.9548M68.7705 108.509C72.0371 105.164 71.9799 101.946 68.1943 96.6467" stroke="#4A45AA" stroke-width="0.51" stroke-linecap="round"/>
</svg>
