<svg width="50" height="50" viewBox="0 0 50 50" fill="none" xmlns="http://www.w3.org/2000/svg">
<path d="M5.73602 12.6879C8.17764 12.8235 8.90402 10.6692 9.95939 7.82943ZM5.73602 12.6879C7.40902 10.4866 8.55127 8.81749 9.95939 7.82943ZM5.18664 13.7009C6.86621 10.5831 9.64096 8.27556 11.1321 6.86137ZM5.18664 13.7009C6.74983 10.1033 9.37927 8.14324 11.1321 6.86137ZM4.63727 14.714C6.35602 12.6047 8.53871 8.61612 12.1819 6.03481ZM4.63727 14.714C6.36546 11.4051 7.98421 9.50262 12.1819 6.03481ZM4.08783 15.7271C5.05039 12.8854 6.62052 11.1033 12.8216 5.67999ZM4.08783 15.7271C9.22989 11.3094 12.1063 7.79187 12.8216 5.67999ZM3.82552 16.4099C7.48883 14.3559 10.8787 10.761 13.4613 5.32512ZM3.82552 16.4099C5.72877 11.6936 9.14802 7.42181 13.4613 5.32512ZM3.64514 16.9985C4.40858 15.4407 7.15608 12.3624 14.1011 4.97031ZM3.64514 16.9985C5.78039 14.1614 7.74614 11.6147 14.1011 4.97031ZM3.46477 17.587C5.48202 17.0071 8.1294 13.7354 14.6998 4.66262ZM3.46477 17.587C8.15827 12.4487 12.8235 7.61368 14.6998 4.66262ZM3.28439 18.1756C6.30346 11.4408 10.1052 6.28906 15.3395 4.30774ZM3.28439 18.1756C7.19214 12.8411 12.2559 8.09693 15.3395 4.30774ZM3.10408 18.7641C6.01764 13.0882 9.86727 7.49349 15.9792 3.95293ZM3.10408 18.7641C7.62202 14.6176 12.1687 9.77043 15.9792 3.95293ZM2.92371 19.3526C6.40177 14.5992 10.2473 10.3138 16.455 3.78674ZM2.92371 19.3526C5.51689 13.1319 9.57627 7.97868 16.455 3.78674ZM2.74333 19.9412C6.23658 12.247 11.7506 5.67281 16.8896 3.66774ZM2.74333 19.9412C7.82796 13.1602 12.8738 7.47362 16.8896 3.66774ZM2.56302 20.5297C8.78358 15.4539 12.6891 10.5886 17.3653 3.50156ZM2.56302 20.5297C8.72239 14.6807 12.4279 10.3572 17.3653 3.50156ZM2.54664 20.9296C8.89408 13.7072 14.8398 7.25443 17.8 3.38256ZM2.54664 20.9296C8.62533 14.8838 12.432 9.89999 17.8 3.38256ZM2.48933 21.3766C7.84933 15.5587 12.0744 11.1962 18.2757 3.21637ZM2.48933 21.3766C7.81252 12.7102 13.7583 5.81499 18.2757 3.21637ZM2.43196 21.8236C4.84808 18.5613 8.02564 13.753 18.7105 3.09737ZM2.43196 21.8236C6.77527 18.8427 10.4515 14.0639 18.7105 3.09737ZM2.41564 22.2235C5.12471 17.0157 10.162 11.4827 19.1451 2.97837ZM2.41564 22.2235C8.80414 14.6969 14.9613 7.80106 19.1451 2.97837ZM2.35827 22.6705C7.91589 16.4074 15.0507 8.40756 19.6208 2.81224ZM2.35827 22.6705C10.4345 13.3892 16.9363 6.40856 19.6208 2.81224ZM2.30096 23.1176C10.5903 16.9848 16.5419 8.90443 20.0555 2.69324ZM2.30096 23.1176C5.77621 17.8594 10.7793 12.4722 20.0555 2.69324ZM2.28458 23.5174C8.16877 14.0756 14.3752 7.18293 20.4902 2.57424ZM2.28458 23.5174C7.60152 16.5719 14.0113 9.26143 20.4902 2.57424ZM2.22727 23.9644C9.33158 18.2971 13.0763 12.7644 20.843 2.54956ZM2.22727 23.9644C7.28027 15.1871 12.9128 8.87099 20.843 2.54956ZM2.16989 24.4115C7.62983 18.1802 11.9574 12.5174 21.2366 2.47774ZM2.16989 24.4115C5.65902 16.4958 11.0874 10.2139 21.2366 2.47774ZM2.15358 24.8113C9.04852 17.829 16.6932 8.93749 21.5893 2.45306ZM2.15358 24.8113C5.16714 21.7099 9.28408 17.0824 21.5893 2.45306ZM2.13721 25.2112C7.52696 19.1326 11.2705 14.1674 21.942 2.42837ZM2.13721 25.2112C5.19514 19.9462 9.26346 15.2504 21.942 2.42837ZM2.16189 25.5639C6.03764 18.7386 10.5038 14.4206 22.2947 2.40374ZM2.16189 25.5639C7.66564 21.0161 12.7171 14.977 22.2947 2.40374ZM2.22758 25.8694C8.42077 15.7275 16.3563 6.27468 22.6884 2.33193ZM2.22758 25.8694C6.67102 19.1975 11.8622 12.8172 22.6884 2.33193ZM2.25221 26.2221C7.91277 21.2114 13.407 15.1832 23.0411 2.30724ZM2.25221 26.2221C7.88283 17.3777 14.0855 10.4923 23.0411 2.30724ZM2.27689 26.5748C10.1039 16.8861 17.8989 7.57937 23.3938 2.28256ZM2.27689 26.5748C6.24808 22.0117 11.7721 15.6988 23.3938 2.28256ZM2.30152 26.9275C5.46208 22.2298 10.476 16.5847 23.7465 2.25793ZM2.30152 26.9275C11.2816 16.451 19.4435 7.37287 23.7465 2.25793ZM2.36721 27.233C7.45621 19.8007 12.7108 13.3392 24.1401 2.18606ZM2.36721 27.233C7.56321 19.4964 12.5253 13.3799 24.1401 2.18606ZM2.39189 27.5857C10.5928 17.5007 19.6023 7.38856 24.4928 2.16143ZM2.39189 27.5857C8.10114 18.9526 15.2494 10.8557 24.4928 2.16143ZM2.41652 27.9384C12.2431 19.0708 20.3336 9.79174 24.8456 2.13674ZM2.41652 27.9384C9.88089 19.3427 16.1801 12.2208 24.8456 2.13674ZM2.44121 28.2911C6.30664 22.185 12.1863 15.5818 25.1983 2.11212ZM2.44121 28.2911C6.66627 21.8836 11.8257 15.8613 25.1983 2.11212ZM2.46583 28.6438C11.2525 21.1549 18.618 13.0645 25.51 2.13462ZM2.46583 28.6438C7.00933 19.8804 13.617 12.4777 25.51 2.13462ZM2.53152 28.9493C7.93977 22.627 13.5747 16.3422 25.7806 2.20431ZM2.53152 28.9493C13.1051 18.2148 21.5573 8.55031 25.7806 2.20431ZM2.55621 29.302C9.94471 22.7354 15.2502 17.0208 26.0923 2.22681ZM2.55621 29.302C11.9616 22.3176 20.0105 13.3502 26.0923 2.22681ZM2.58083 29.6547C11.8841 23.0654 19.2892 14.0464 26.404 2.24931ZM2.58083 29.6547C7.36902 21.4459 13.0051 14.8757 26.404 2.24931ZM2.68752 29.9131C10.7507 23.3212 17.4656 16.1807 26.7157 2.27181ZM2.68752 29.9131C14.0388 19.5738 23.6439 8.79981 26.7157 2.27181ZM2.75321 30.2186C8.49889 25.1417 13.4738 18.9271 27.0274 2.29431ZM2.75321 30.2186C12.2977 21.8591 20.1769 12.5271 27.0274 2.29431ZM2.85983 30.4769C12.7026 20.6664 21.7503 10.603 27.2981 2.36399ZM2.85983 30.4769C7.12577 24.293 12.7438 17.7536 27.2981 2.36399ZM2.92552 30.7824C9.37177 23.3256 17.5218 14.3929 27.6098 2.38649ZM2.92552 30.7824C8.81483 20.4655 16.0868 12.1169 27.6098 2.38649ZM3.03221 31.0408C9.57389 21.1827 16.8309 13.0543 27.9215 2.40899ZM3.03221 31.0408C10.6875 19.5091 19.9716 8.57631 27.9215 2.40899ZM3.09783 31.3463C8.03921 20.8799 15.7773 12.1922 28.2331 2.43149ZM3.09783 31.3463C10.2845 25.6062 15.4931 19.6197 28.2331 2.43149ZM3.20452 31.6047C10.2493 26.7729 15.8147 20.6432 28.5448 2.45399ZM3.20452 31.6047C9.13227 23.9566 17.596 14.3712 28.5448 2.45399ZM3.27021 31.9102C11.7665 20.8838 21.8396 9.68693 28.8565 2.47649ZM3.27021 31.9102C13.6912 22.4347 22.0691 12.9374 28.8565 2.47649ZM3.37689 32.1686C9.74677 22.5909 16.8503 14.1971 29.1272 2.54618ZM3.37689 32.1686C8.82939 25.8222 15.4842 18.2054 29.1272 2.54618ZM3.44252 32.4741C10.5705 26.7751 18.0258 18.7988 29.4389 2.56868ZM3.44252 32.4741C11.6225 25.1031 17.1793 18.4154 29.4389 2.56868ZM3.54921 32.7324C13.262 22.3508 20.6452 14.2072 29.7506 2.59118ZM3.54921 32.7324C11.9355 23.7036 20.1992 14.3569 29.7506 2.59118ZM3.61489 33.0379C13.4798 23.8653 22.9136 13.4437 30.0213 2.66087ZM3.61489 33.0379C13.252 23.5219 22.918 12.2688 30.0213 2.66087ZM3.72152 33.2963C11.308 22.1065 21.1093 10.407 30.292 2.73056ZM3.72152 33.2963C10.3154 23.7127 19.3385 13.2134 30.292 2.73056ZM3.78721 33.6018C10.3988 24.1159 17.4604 15.7951 30.5216 2.84743ZM3.78721 33.6018C14.8866 24.4827 23.3486 14.8303 30.5216 2.84743ZM3.89389 33.8602C8.62833 27.083 14.1626 20.1021 30.7923 2.91706ZM3.89389 33.8602C9.04377 24.1571 15.9318 15.8059 30.7923 2.91706ZM4.00052 34.1186C4.98696 31.2001 7.05952 27.7841 13.1854 23.5526ZM4.00052 34.1186C6.59858 28.6621 10.1707 24.8601 13.1854 23.5526ZM13.7595 22.8922C18.2782 17.2802 22.6767 12.4912 31.063 2.98674ZM13.7595 22.8922C17.0029 17.5504 22.4378 11.3072 31.063 2.98674ZM4.10721 34.3769C4.98083 32.9586 8.09664 29.0495 13.333 23.7638ZM4.10721 34.3769C6.67783 29.5146 9.61264 26.7709 13.333 23.7638ZM16.2853 20.3676C22.9013 13.8349 27.4688 9.16068 31.3336 3.05643ZM16.2853 20.3676C20.033 13.6179 25.3506 7.20287 31.3336 3.05643ZM4.25489 34.5881C7.04727 33.6723 8.81565 30.9097 13.5217 23.9278ZM4.25489 34.5881C6.32564 32.411 8.58583 29.7385 13.5217 23.9278ZM18.8112 17.8429C20.862 14.0805 25.1997 8.47018 31.5633 3.17331ZM18.8112 17.8429C21.173 14.8805 24.2913 11.1663 31.5633 3.17331ZM4.36158 34.8464C7.47164 31.9027 11.539 29.2679 13.7104 24.0918ZM4.36158 34.8464C5.80964 33.0472 8.92414 29.0588 13.7104 24.0918ZM21.3781 15.2711C26.8752 13.6177 29.6144 9.15837 31.834 3.24293ZM21.3781 15.2711C24.0849 10.306 27.5263 6.41118 31.834 3.24293ZM4.50921 35.0576C8.59214 33.2447 11.607 28.796 13.8991 24.2558ZM4.50921 35.0576C5.60133 31.5179 7.97364 28.5272 13.8991 24.2558ZM23.904 12.7465C23.7652 12.1072 25.7712 9.69656 32.1047 3.31262ZM23.904 12.7465C25.7113 10.0967 27.9348 7.78493 32.1047 3.31262ZM4.61589 35.3159C6.16358 32.5354 10.6085 27.5235 14.0468 24.467ZM4.61589 35.3159C4.92121 32.8694 7.63008 30.1889 14.0468 24.467ZM25.1178 11.7313C25.6091 10.9632 28.117 8.24987 32.3754 3.38231ZM25.1178 11.7313C28.0651 7.59031 30.0833 5.45762 32.3754 3.38231ZM4.76358 35.5271C8.27102 32.5987 9.76046 29.8604 14.2355 24.631ZM4.76358 35.5271C6.50564 31.8561 9.82371 28.1093 14.2355 24.631ZM25.2654 11.9425C25.3156 9.51756 26.8338 7.63281 32.6051 3.49918ZM25.2654 11.9425C26.5378 11.255 28.1234 9.63949 32.6051 3.49918ZM4.91127 35.7383C5.08814 35.3043 7.28652 31.5659 14.4241 24.7951ZM4.91127 35.7383C5.86121 32.6355 9.29508 28.8742 14.4241 24.7951ZM25.4541 12.1065C26.1891 10.4096 28.9488 7.63624 32.8758 3.56881ZM25.4541 12.1065C29.815 8.86956 32.3541 6.02112 32.8758 3.56881ZM5.01789 35.9967C10.1612 29.8046 13.4615 25.5572 14.5718 25.0062ZM5.01789 35.9967C7.24883 32.6508 10.4354 29.5716 14.5718 25.0062ZM25.6428 12.2705C28.1805 9.06156 30.2078 8.24899 33.1465 3.63849ZM25.6428 12.2705C27.1751 8.76662 30.5992 5.39312 33.1465 3.63849ZM5.16558 36.2079C10.3045 31.6373 13.2841 28.2076 14.7605 25.1702ZM5.16558 36.2079C10.0676 29.8742 14.2035 25.5897 14.7605 25.1702ZM25.8315 12.4345C27.3609 8.23599 28.6082 4.96737 33.4171 3.70818ZM25.8315 12.4345C28.3898 10.8463 30.1628 7.91393 33.4171 3.70818ZM5.27227 36.4662C8.60289 34.2472 12.5847 31.7886 14.9491 25.3342ZM5.27227 36.4662C5.95614 32.2585 8.32671 29.8894 14.9491 25.3342ZM25.9791 12.6457C27.6828 9.67399 30.9675 5.89093 33.6468 3.82499ZM25.9791 12.6457C27.5941 9.44012 29.0825 7.31856 33.6468 3.82499ZM5.41996 36.6774C9.33721 30.6172 13.1526 25.531 15.1378 25.4982ZM5.41996 36.6774C7.76427 32.9351 10.1424 30.2442 15.1378 25.4982ZM26.1678 12.8097C28.4117 8.87681 31.545 5.92856 33.9175 3.89468ZM26.1678 12.8097C30.2035 10.1224 32.5512 7.63106 33.9175 3.89468ZM5.52658 36.9357C9.69146 34.5969 12.5034 31.3665 15.2855 25.7094ZM5.52658 36.9357C6.36864 32.3165 9.76733 28.5244 15.2855 25.7094ZM26.3565 12.9737C27.632 9.16637 28.4593 5.12762 34.1472 4.01156ZM26.3565 12.9737C27.3977 8.75031 30.7286 5.51462 34.1472 4.01156ZM5.67427 37.1469C9.40846 35.4903 11.2831 33.4768 15.4741 25.8734ZM5.67427 37.1469C7.84089 33.4461 10.9359 30.1901 15.4741 25.8734ZM26.5041 13.1849C30.4686 9.30824 32.8603 5.98862 34.3769 4.12837ZM26.5041 13.1849C29.9503 11.1386 32.6992 7.22243 34.3769 4.12837ZM5.78096 37.4053C9.27364 34.4336 12.7011 30.4771 15.6628 26.0375ZM5.78096 37.4053C6.61539 35.1594 8.46502 32.6212 15.6628 26.0375ZM26.6928 13.3489C29.5933 11.8741 31.1453 9.70893 34.6065 4.24524ZM26.6928 13.3489C28.093 9.95581 29.9891 7.82024 34.6065 4.24524ZM5.92864 37.6165C7.38689 35.4301 9.71539 32.5491 15.8105 26.2487ZM5.92864 37.6165C8.48546 35.3104 10.9275 32.6644 15.8105 26.2487ZM26.8815 13.5129C30.709 10.5774 32.7011 7.18318 34.8362 4.36206ZM26.8815 13.5129C28.3538 12.6451 30.2274 10.8495 34.8362 4.36206ZM6.03527 37.8748C11.1473 34.2668 14.2836 29.9402 15.9992 26.4127ZM6.03527 37.8748C8.72977 33.2278 11.791 29.628 15.9992 26.4127ZM27.0702 13.6769C29.1425 11.4927 31.3171 8.17424 35.0659 4.47893ZM27.0702 13.6769C28.4846 11.0289 31.5496 8.80968 35.0659 4.47893ZM6.18296 38.086C9.47258 33.1277 12.7701 29.9002 17.377 25.2088ZM6.18296 38.086C10.4603 34.3264 13.9148 29.677 17.377 25.2088ZM27.2179 13.8881C29.2458 10.0347 30.3164 6.34431 35.2956 4.59574ZM27.2179 13.8881C27.858 12.0047 29.677 9.82512 35.2956 4.59574ZM6.37164 38.2501C9.95364 34.3497 15.1113 28.6807 19.9029 22.6841ZM6.37164 38.2501C10.254 32.5073 13.3439 29.0262 19.9029 22.6841ZM27.4065 14.0521C32.2588 9.17599 34.1295 6.59262 35.4843 4.75981ZM27.4065 14.0521C30.6011 9.77606 32.6536 7.54862 35.4843 4.75981ZM6.51933 38.4612C13.0256 33.5431 18.1478 28.1159 22.4288 20.1595ZM6.51933 38.4612C13.4469 33.6347 18.2967 27.7469 22.4288 20.1595ZM27.5952 14.2162C31.1319 10.1629 34.4008 7.15856 35.714 4.87662ZM27.5952 14.2162C30.2551 11.0301 33.3592 7.60912 35.714 4.87662ZM6.66702 38.6724C12.7596 32.4731 17.4375 27.6088 22.9455 19.9462ZM6.66702 38.6724C14.4207 31.2797 20.7502 23.9841 22.9455 19.9462ZM27.7429 14.4274C30.244 14.1915 31.9861 11.6281 35.9436 4.99349ZM27.7429 14.4274C32.0062 9.12743 35.3547 5.42687 35.9436 4.99349ZM6.85564 38.8364C12.9997 31.2799 18.7909 24.7916 22.9701 20.2989ZM6.85564 38.8364C13.857 31.9852 19.2998 25.6524 22.9701 20.2989ZM27.9316 14.5914C30.6413 11.9454 32.3934 9.67649 36.1733 5.11031ZM27.9316 14.5914C31.1528 11.3756 33.8166 7.88637 36.1733 5.11031ZM7.00333 39.0476C8.41114 36.5815 12.5171 33.1586 22.9538 20.6987ZM7.00333 39.0476C10.7908 34.4116 15.4979 28.9737 22.9538 20.6987ZM28.1203 14.7554C32.8198 9.94974 35.4455 6.13918 36.403 5.22718ZM28.1203 14.7554C31.4338 11.5532 33.2258 8.43649 36.403 5.22718ZM7.15102 39.2588C10.767 34.3066 15.494 30.2372 22.9785 21.0514ZM7.15102 39.2588C11.0266 31.2261 16.7056 24.5304 22.9785 21.0514ZM28.3089 14.9194C30.0098 12.8085 33.204 8.90918 36.6326 5.34399ZM28.3089 14.9194C30.469 10.2876 33.8233 6.73524 36.6326 5.34399ZM7.33971 39.4228C13.8797 32.2812 20.0992 24.8833 22.9621 21.4512ZM7.33971 39.4228C12.0995 37.4899 15.1596 33.9607 22.9621 21.4512ZM28.4566 15.1306C30.1912 14.4251 31.6613 12.3238 36.8623 5.46087ZM28.4566 15.1306C29.1678 13.2701 31.2929 10.5598 36.8623 5.46087ZM7.48739 39.634C8.49002 32.9204 12.4258 28.7586 22.9458 21.8511ZM7.48739 39.634C11.3054 31.7927 16.8371 25.561 22.9458 21.8511ZM28.6453 15.2946C30.8823 11.8433 33.3356 9.19137 37.092 5.57768ZM28.6453 15.2946C30.5303 13.7037 32.9263 11.9596 37.092 5.57768ZM7.63502 39.8452C13.1314 34.9749 17.2938 30.8023 22.9705 22.2038ZM7.63502 39.8452C12.9053 32.2424 18.7718 25.645 22.9705 22.2038ZM28.834 15.4586C28.639 15.2047 30.0844 11.8781 37.3217 5.69456ZM28.834 15.4586C29.7585 13.2142 31.3411 10.9707 37.3217 5.69456ZM7.82371 40.0092C13.5416 34.7254 18.2225 29.6248 22.9541 22.6037ZM7.82371 40.0092C12.4945 37.2084 16.1551 33.2088 22.9541 22.6037ZM29.0226 15.6226C30.4476 11.7485 32.4709 10.1453 37.5104 5.85856ZM29.0226 15.6226C32.4125 13.2296 35.4753 10.2631 37.5104 5.85856ZM7.97139 40.2204C12.8468 35.3171 16.406 31.5542 22.9788 22.9564ZM7.97139 40.2204C11.7426 36.9013 15.7436 32.2097 22.9788 22.9564ZM29.1703 15.8338C29.0797 12.3917 31.7553 10.1119 37.7401 5.97543ZM29.1703 15.8338C32.8236 13.0307 34.5689 10.6501 37.7401 5.97543ZM8.11908 40.4316C12.6001 34.8054 16.2053 31.5864 22.9624 23.3562ZM8.11908 40.4316C12.9186 36.0931 18.3378 29.7111 22.9624 23.3562ZM29.359 15.9978C32.708 13.3081 35.6394 9.65624 37.9698 6.09224ZM29.359 15.9978C33.6281 13.1429 37.1136 9.59462 37.9698 6.09224ZM8.30777 40.5956C12.5653 37.5144 15.7431 34.4527 22.9461 23.7561ZM8.30777 40.5956C13.1438 33.1363 18.9405 26.0456 22.9461 23.7561ZM29.5476 16.1618C33.44 11.8678 36.8704 8.81768 38.1585 6.25624ZM29.5476 16.1618C32.8164 13.114 35.1792 10.1291 38.1585 6.25624ZM8.45539 40.8067C13.3832 34.5919 18.9256 28.7205 22.9707 24.1088ZM8.45539 40.8067C13.127 38.33 16.5211 34.4428 22.9707 24.1088ZM29.6953 16.373C31.8733 13.9639 34.4828 10.6821 38.3471 6.42031ZM29.6953 16.373C31.2722 13.1304 32.983 11.3072 38.3471 6.42031ZM8.60308 41.0179C14.8258 37.2409 19.3649 32.4496 22.9544 24.5087ZM8.60308 41.0179C14.2748 34.9986 19.5718 29.2817 22.9544 24.5087ZM27.0958 19.7446C27.0937 19.6947 27.1106 19.6878 27.1368 19.6974ZM27.0958 19.7446C27.0992 19.7137 27.1235 19.6914 27.1368 19.6974ZM29.884 16.5371C32.1562 13.6776 34.6746 9.59181 38.5358 6.58431ZM29.884 16.5371C32.817 11.9786 36.1153 9.09874 38.5358 6.58431ZM8.79177 41.1819C16.1069 35.2166 20.1729 29.7911 22.979 24.8614ZM8.79177 41.1819C9.70364 37.2367 12.567 33.5086 22.979 24.8614ZM27.1204 20.0972C27.1892 19.9817 27.3485 20.1074 27.3255 19.8614ZM27.1204 20.0972C27.1301 20.0617 27.3447 20.0093 27.3255 19.8614ZM30.0727 16.7011C33.0936 11.6391 35.8435 7.60874 38.7245 6.74831ZM30.0727 16.7011C34.1045 14.0208 37.3758 9.79949 38.7245 6.74831ZM8.98046 41.3459C16.1143 37.2005 21.1146 31.2662 22.9627 25.2612ZM8.98046 41.3459C11.6656 37.6449 14.8347 33.8984 22.9627 25.2612ZM27.1041 20.4971C27.1405 20.4494 27.6191 20.5221 27.5141 20.0254ZM27.1041 20.4971C27.1236 20.2884 27.1605 20.3197 27.5141 20.0254ZM30.2614 16.8651C31.8433 14.6523 34.949 10.8462 38.9131 6.91231ZM30.2614 16.8651C31.3243 15.2676 33.287 13.1339 38.9131 6.91231ZM9.16914 41.51C13.3406 37.5479 16.224 34.1926 22.9464 25.6611ZM9.16914 41.51C12.6158 37.8578 17.7293 32.6637 22.9464 25.6611ZM27.1288 20.8498C27.0651 20.6247 27.4272 20.6058 27.7028 20.1894ZM27.1288 20.8498C27.4376 20.7244 27.4873 20.5931 27.7028 20.1894ZM30.409 17.0762C31.5851 13.2426 33.0589 11.7757 39.1018 7.07637ZM30.409 17.0762C31.4747 13.8097 33.5491 11.7588 39.1018 7.07637ZM9.35783 41.674C15.0079 37.8927 19.1105 33.5653 22.971 26.0137ZM9.35783 41.674C14.9949 35.4576 19.4163 30.7521 22.971 26.0137ZM27.1124 21.2497C26.7505 21.7124 27.2795 21.1569 27.8505 20.4006ZM27.1124 21.2497C27.6977 21.0331 27.9097 20.7502 27.8505 20.4006ZM30.5977 17.2402C33.453 15.7054 35.0482 12.9536 39.2905 7.24037ZM30.5977 17.2402C30.3168 16.427 32.4436 14.4815 39.2905 7.24037ZM9.54646 41.838C11.5378 37.4733 15.0868 33.3886 22.9547 26.4136ZM9.54646 41.838C13.9538 36.2336 18.6493 30.5254 22.9547 26.4136ZM27.0961 21.6495C26.625 21.3126 27.8241 21.6723 28.0391 20.5646ZM27.0961 21.6495C27.1286 21.3 27.6418 20.751 28.0391 20.5646ZM30.7864 17.4043C33.0355 15.9057 36.8446 12.0382 39.4792 7.40437ZM30.7864 17.4043C33.4831 14.5865 35.1824 11.9294 39.4792 7.40437ZM9.73514 42.002C14.5222 38.9432 18.2603 35.107 22.9793 26.7663ZM9.73514 42.002C12.986 35.9549 18.1641 29.9674 22.9793 26.7663ZM27.1207 22.0022C27.4118 22.3987 27.8932 21.2324 28.2278 20.7286ZM27.1207 22.0022C27.7651 22.1707 27.6311 21.1671 28.2278 20.7286ZM30.9341 17.6154C30.8011 16.074 31.9271 13.7768 39.7088 7.52124ZM30.9341 17.6154C35.3555 12.2471 39.1225 8.37418 39.7088 7.52124ZM9.92383 42.1661C14.9621 37.4886 19.0072 32.8915 22.963 27.1662ZM9.92383 42.1661C13.7681 35.1877 18.0001 30.1429 22.963 27.1662ZM27.1044 22.4021C28.0665 21.4532 28.2226 21.2587 28.3755 20.9398ZM27.1044 22.4021C27.2421 21.5262 28.3505 21.1023 28.3755 20.9398ZM31.1228 17.7795C33.5218 15.3671 37.2719 11.4037 39.8975 7.68524ZM31.1228 17.7795C32.2102 13.7612 34.2076 11.1749 39.8975 7.68524ZM10.1125 42.3301C13.6645 37.2956 15.9361 33.3834 22.9466 27.5661ZM10.1125 42.3301C15.3131 39.9487 18.6065 35.9289 22.9466 27.5661ZM27.129 22.7547C27.3379 22.7264 28.2901 21.1761 28.5641 21.1038ZM27.129 22.7547C27.8557 22.2726 28.2353 22.0902 28.5641 21.1038ZM31.3114 17.9435C34.7912 14.1991 36.7026 11.8675 40.0862 7.84924ZM31.3114 17.9435C33.7975 15.0584 36.1174 11.7646 40.0862 7.84924ZM10.3012 42.4941C13.0175 35.7671 18.452 30.6659 22.9713 27.9187ZM10.3012 42.4941C12.1723 37.8089 14.4921 34.9602 22.9713 27.9187ZM27.1127 23.1546C26.5658 22.4205 28.1193 21.3536 28.7528 21.2679ZM27.1127 23.1546C26.8643 22.9156 27.5053 22.8169 28.7528 21.2679ZM31.5001 18.1075C35.9058 14.1037 38.4168 10.7321 40.2749 8.01324ZM31.5001 18.1075C35.1794 15.0127 37.9628 11.8116 40.2749 8.01324ZM10.5309 42.6109C13.2425 39.0586 17.5556 33.722 22.955 28.3186ZM10.5309 42.6109C14.2755 38.0122 17.9404 34.5254 22.955 28.3186ZM27.0964 23.5545C27.1015 22.0449 27.1601 21.6292 28.9415 21.4319ZM27.0964 23.5545C27.3243 22.8754 28.2828 22.0958 28.9415 21.4319ZM31.6478 18.3187C35.1804 14.8512 37.2917 13.2866 40.4636 8.17731ZM31.6478 18.3187C36.1498 13.3621 40.0373 9.01293 40.4636 8.17731ZM10.7195 42.7749C13.02 39.2166 16.5179 34.5933 22.9796 28.6713ZM10.7195 42.7749C13.9911 36.8093 18.3341 32.3543 22.9796 28.6713ZM27.121 23.9072C27.5006 22.8359 27.5183 21.9797 29.0892 21.6431ZM27.121 23.9072C27.7049 23.0901 28.4538 22.7496 29.0892 21.6431ZM31.8365 18.4827C36.315 13.4069 39.0988 10.4332 40.6523 8.34131ZM31.8365 18.4827C33.199 16.3249 35.2281 13.7953 40.6523 8.34131ZM10.9082 42.9389C17.105 38.4451 21.6274 32.7868 22.9633 29.0711ZM10.9082 42.9389C14.762 39.3561 18.5204 35.1477 22.9633 29.0711ZM27.1047 24.3071C27.4076 22.9821 28.887 23.1513 29.2779 21.8071ZM27.1047 24.3071C26.9051 24.2836 27.3649 23.2929 29.2779 21.8071ZM32.0251 18.6467C34.7996 13.1938 37.9416 10.7322 40.8409 8.50531ZM32.0251 18.6467C33.2003 14.4847 36.8456 11.0471 40.8409 8.50531ZM11.0969 43.1029C13.9385 38.3451 17.8221 33.4376 22.947 29.471ZM11.0969 43.1029C11.9993 38.9415 14.7875 35.4103 22.947 29.471ZM27.1293 24.6597C27.308 23.7383 28.7847 22.6968 29.4666 21.9711ZM27.1293 24.6597C28.0913 23.6072 28.7925 22.9426 29.4666 21.9711ZM32.1728 18.8579C37.724 13.7879 41.0931 11.0131 41.0296 8.66931ZM32.1728 18.8579C36.9963 16.4809 39.705 13.7716 41.0296 8.66931ZM11.2856 43.2669C15.7596 37.4337 20.592 33.1387 22.9716 29.8237ZM11.2856 43.2669C13.2895 39.3564 16.4998 35.3931 22.9716 29.8237ZM27.113 25.0596C27.3933 24.275 28.5912 23.0266 29.6142 22.1822ZM27.113 25.0596C27.8563 23.6854 28.898 22.1804 29.6142 22.1822ZM32.3615 19.0219C35.3663 16.9746 37.7588 14.5714 41.2183 8.83337ZM32.3615 19.0219C36.3213 16.9808 37.9094 14.5815 41.2183 8.83337ZM11.4743 43.431C12.4617 38.8722 15.0672 35.1081 22.9553 30.2236ZM11.4743 43.431C16.213 37.3352 20.1051 33.084 22.9553 30.2236ZM27.0966 25.4594C28.1168 24.5707 28.9099 23.7134 29.8029 22.3463ZM27.0966 25.4594C27.8256 24.1341 28.951 22.8521 29.8029 22.3463ZM32.5501 19.1859C34.1938 17.3135 36.834 13.9772 41.407 8.99737ZM32.5501 19.1859C36.2922 16.7399 38.6963 14.2638 41.407 8.99737ZM11.663 43.595C15.9033 37.7605 20.5299 33.0172 22.98 30.5762ZM11.663 43.595C15.2748 41.5659 18.1815 38.3305 22.98 30.5762ZM27.1213 25.8121C26.7665 25.1224 28.6109 23.7439 29.9916 22.5103ZM27.1213 25.8121C27.466 25.0472 28.1911 23.9433 29.9916 22.5103ZM32.7388 19.3499C36.7337 14.6573 39.5452 11.9857 41.5546 9.20856ZM32.7388 19.3499C34.2257 17.7062 35.9721 14.8754 41.5546 9.20856ZM11.8516 43.759C16.6672 37.0087 20.2521 32.45 22.9636 30.9761ZM11.8516 43.759C13.6553 41.1261 17.3605 37.0625 22.9636 30.9761ZM27.105 26.212C27.167 25.2588 27.5445 25.5067 30.1803 22.6743ZM27.105 26.212C28.0846 25.0682 28.6916 23.8803 30.1803 22.6743ZM32.8865 19.5611C33.8915 17.509 37.3741 14.5784 41.7023 9.41974ZM32.8865 19.5611C34.1236 14.9639 36.8798 12.3722 41.7023 9.41974ZM12.0403 43.923C16.9218 42.417 19.4701 39.4251 22.9473 31.376ZM12.0403 43.923C14.7417 41.5684 17.2318 39.0046 22.9473 31.376ZM27.1296 26.5647C28.9901 25.1149 29.862 23.9511 30.328 22.8855ZM27.1296 26.5647C28.0921 25.0185 28.9722 24.3968 30.328 22.8855ZM33.0752 19.7251C34.8209 16.9431 37.8447 13.7219 41.891 9.58374ZM33.0752 19.7251C36.4171 15.3257 40.02 11.2602 41.891 9.58374ZM12.27 44.0399C18.2678 40.1177 21.8294 35.119 22.972 31.7287ZM12.27 44.0399C15.6467 39.3471 18.8267 36.0113 22.972 31.7287ZM27.1133 26.9646C27.5238 24.2297 28.5689 23.5866 30.5166 23.0495ZM27.1133 26.9646C27.6149 25.483 28.9448 24.8663 30.5166 23.0495ZM33.2638 19.8892C36.7938 16.7691 39.6168 14.6822 42.0386 9.79493ZM33.2638 19.8892C36.0883 17.6869 37.9181 15.713 42.0386 9.79493ZM12.4996 44.1567C14.1906 41.6689 17.2685 37.6657 22.9556 32.1286ZM12.4996 44.1567C15.4716 39.067 19.1978 35.3031 22.9556 32.1286ZM27.097 27.3644C27.5536 25.6738 28.3281 25.2821 30.7053 23.2135ZM27.097 27.3644C29.6937 26.1674 30.9203 24.7801 30.7053 23.2135ZM33.4525 20.0532C37.207 17.9454 38.6719 16.6762 42.1863 10.0061ZM33.4525 20.0532C37.6431 16.5176 39.7535 13.5802 42.1863 10.0061ZM12.6883 44.3207C16.1686 39.9779 19.9346 35.2679 22.9803 32.4812ZM12.6883 44.3207C15.2839 41.2314 19.3016 36.4131 22.9803 32.4812ZM27.1216 27.7171C27.4097 27.5716 28.496 25.4734 30.853 23.4247ZM27.1216 27.7171C27.9968 25.8227 28.8798 23.855 30.853 23.4247ZM33.6002 20.2644C39.0505 16.1364 41.5466 12.0279 42.375 10.1701ZM33.6002 20.2644C34.3967 15.7936 37.212 12.7132 42.375 10.1701ZM12.918 44.4376C16.6798 41.6897 18.9883 38.8053 22.9639 32.8811ZM12.918 44.4376C19.233 39.2816 22.8301 35.1324 22.9639 32.8811ZM27.1053 28.117C29.5798 26.3754 31.0815 25.7072 31.0416 23.5887ZM27.1053 28.117C28.6003 26.0067 29.5091 24.7492 31.0416 23.5887ZM33.7889 20.4284C36.5874 19.1943 38.3104 15.7566 42.5227 10.3813ZM33.7889 20.4284C37.7817 18.3017 40.4168 16.0799 42.5227 10.3813ZM13.1477 44.5544C14.1718 40.8826 16.1063 37.7805 22.9476 33.2809ZM13.1477 44.5544C16.1691 40.4938 18.9141 37.0797 22.9476 33.2809ZM27.13 28.4697C27.9772 28.129 28.6075 26.8038 31.2303 23.7527ZM27.13 28.4697C28.8199 26.7459 29.394 25.8566 31.2303 23.7527ZM33.9776 20.5924C38.206 18.5937 41.1583 15.4188 42.6703 10.5925ZM33.9776 20.5924C36.0854 17.6552 37.8828 15.5659 42.6703 10.5925ZM13.3774 44.6712C17.5616 39.8577 20.8109 36.8272 22.9723 33.6336ZM13.3774 44.6712C16.8788 40.8957 19.6517 37.6301 22.9723 33.6336ZM27.1136 28.8696C29.7256 28.3727 30.1939 25.2772 31.419 23.9167ZM27.1136 28.8696C27.8248 28.7414 29.0302 27.6917 31.419 23.9167ZM34.1253 20.8036C36.12 17.374 40.5056 13.7542 42.859 10.7565ZM34.1253 20.8036C36.8444 18.5262 39.423 15.6602 42.859 10.7565ZM13.6071 44.7881C17.6577 42.1218 19.1251 40.8692 22.9559 34.0335ZM13.6071 44.7881C18.0573 41.3012 21.5122 37.9422 22.9559 34.0335ZM27.0973 29.2694C28.7334 27.4347 29.6438 26.6832 31.5666 24.1279ZM27.0973 29.2694C26.8979 28.5647 28.7086 27.2401 31.5666 24.1279ZM34.3139 20.9676C37.743 16.0918 40.8591 12.7307 43.0067 10.9677ZM34.3139 20.9676C37.396 19.6656 40.1268 16.7831 43.0067 10.9677ZM13.8367 44.9049C15.8979 41.7128 17.9476 39.3046 22.9806 34.3862ZM13.8367 44.9049C16.3078 39.2807 19.6065 35.3719 22.9806 34.3862ZM27.122 29.6221C28.1815 27.5322 30.339 25.5586 31.7553 24.2919ZM27.122 29.6221C27.2137 28.1164 29.0971 26.5374 31.7553 24.2919ZM34.5026 21.1316C37.5215 18.2648 39.6975 14.9756 43.1544 11.1789ZM34.5026 21.1316C36.5508 18.0708 38.8606 14.5589 43.1544 11.1789ZM14.0664 45.0218C16.4945 40.5552 20.726 36.0425 22.9642 34.7861ZM14.0664 45.0218C17.0963 42.8434 19.1499 41.061 22.9642 34.7861ZM27.1056 30.0219C27.2489 29.3691 28.8905 28.0976 31.944 24.456ZM27.1056 30.0219C29.0257 27.2058 30.5556 26.0165 31.944 24.456ZM34.6913 21.2956C38.5453 16.5949 42.0406 11.6989 43.3431 11.3429ZM34.6913 21.2956C37.8687 19.5224 40.0962 16.6714 43.3431 11.3429ZM14.2961 45.1386C18.1392 42.9264 19.8965 41.1212 22.9479 35.1859ZM14.2961 45.1386C17.5311 42.3247 19.258 39.8727 22.9479 35.1859ZM27.1303 30.3746C28.8611 28.8716 30.8434 27.3146 32.0917 24.6671ZM27.1303 30.3746C29.4506 29.0933 31.128 27.4256 32.0917 24.6671ZM34.839 21.5068C37.126 19.6586 39.8307 15.8923 43.4907 11.5541ZM34.839 21.5068C36.207 20.6606 38.0113 18.2274 43.4907 11.5541ZM14.5258 45.2555C17.6556 42.638 19.7405 39.8624 22.9725 35.5386ZM14.5258 45.2555C18.4626 43.7944 20.6195 41.7175 22.9725 35.5386ZM27.1139 30.7745C28.7069 29.9935 30.6709 28.9469 32.2804 24.8312ZM27.1139 30.7745C29.803 29.9254 31.1125 28.2387 32.2804 24.8312ZM35.0276 21.6708C38.2656 20.9326 40.2286 18.6327 43.6384 11.7652ZM35.0276 21.6708C37.5525 19.2201 39.7225 16.6634 43.6384 11.7652ZM14.7145 45.4195C16.7465 42.2006 19.5958 39.5503 22.9562 35.9385ZM14.7145 45.4195C16.8548 44.5259 18.7566 41.7464 22.9562 35.9385ZM27.0976 31.1744C28.8241 30.3662 29.7551 27.4882 32.4691 24.9952ZM27.0976 31.1744C29.8047 29.822 31.5001 27.2667 32.4691 24.9952ZM35.2163 21.8348C35.8582 17.7395 38.9584 15.3093 43.8271 11.9292ZM35.2163 21.8348C40.6968 17.4058 43.5374 13.3154 43.8271 11.9292ZM14.9441 45.5364C16.1091 40.8059 19.48 37.9219 22.9808 36.2912ZM14.9441 45.5364C19.041 44.0904 21.0666 42.2572 22.9808 36.2912ZM27.1222 31.5271C31.1647 28.7952 33.4315 26.0129 32.6577 25.1592ZM27.1222 31.5271C28.6771 29.9811 30.8843 27.6581 32.6577 25.1592ZM35.364 22.046C36.9608 17.9229 38.462 16.4398 43.9748 12.1404ZM35.364 22.046C39.3195 18.2287 42.0718 14.6951 43.9748 12.1404ZM15.1738 45.6532C17.5115 42.4422 20.5954 38.1598 22.9645 36.691ZM15.1738 45.6532C18.8615 44.6244 20.0851 42.2217 22.9645 36.691ZM27.1059 31.9269C30.5803 28.8315 31.8718 27.3314 32.8054 25.3704ZM27.1059 31.9269C30.1698 29.3493 32.1783 27.6102 32.8054 25.3704ZM35.5526 22.2101C38.5246 19.6847 41.832 16.0717 44.1224 12.3516ZM35.5526 22.2101C40.5498 17.6862 43.3928 14.119 44.1224 12.3516ZM15.4035 45.7701C18.6481 41.4771 22.0671 37.3165 22.9482 37.0909ZM15.4035 45.7701C15.7135 41.3851 17.5155 39.3442 22.9482 37.0909ZM27.1306 32.2796C29.7168 30.0708 31.5712 27.763 32.9941 25.5344ZM27.1306 32.2796C29.7509 30.5651 31.5289 28.3776 32.9941 25.5344ZM35.7413 22.3741C40.3921 18.7118 43.0298 15.1036 44.2291 12.61ZM35.7413 22.3741C40.2343 18.1376 42.6226 15.2903 44.2291 12.61ZM15.6332 45.8869C16.7891 44.9851 18.5983 42.7711 22.9318 37.4907ZM15.6332 45.8869C17.8061 41.5579 21.3309 37.7389 22.9318 37.4907ZM27.1142 32.6795C29.6635 29.3399 30.9965 27.4818 33.1828 25.6984ZM27.1142 32.6795C29.1068 31.2261 31.0811 29.4669 33.1828 25.6984ZM35.93 22.5381C37.9218 19.5357 42.0976 15.8936 44.3768 12.8212ZM35.93 22.5381C38.3873 18.3042 41.6815 14.4321 44.3768 12.8212ZM15.8629 46.0037C18.82 41.8162 20.4838 38.5211 23.2435 37.5132ZM15.8629 46.0037C16.9096 44.5869 19.387 41.7447 23.2435 37.5132ZM27.0979 33.0793C29.4939 29.7614 31.4712 27.9523 33.3305 25.9096ZM27.0979 33.0793C28.0345 29.0284 30.3353 26.6644 33.3305 25.9096ZM36.0777 22.7492C38.3009 22.2402 40.6833 20.1707 44.4835 13.0796ZM36.0777 22.7492C38.082 20.9415 39.6057 19.0227 44.4835 13.0796ZM16.0925 46.1206C18.7921 42.7617 20.8415 40.4133 23.5962 37.4886ZM16.0925 46.1206C18.4803 42.7412 20.9068 40.1969 23.5962 37.4886ZM27.1225 33.432C28.9644 33.7292 30.6521 31.7886 33.5191 26.0736ZM27.1225 33.432C28.4073 29.5744 30.6186 28.0073 33.5191 26.0736ZM36.2663 22.9132C36.1973 22.2291 38.4146 19.4582 44.6311 13.2907ZM36.2663 22.9132C39.9577 20.9414 41.6771 18.3311 44.6311 13.2907ZM16.3632 46.1902C19.3765 42.7208 22.1485 40.7157 23.9079 37.5111ZM16.3632 46.1902C19.6098 43.8308 22.274 40.3975 23.9079 37.5111ZM27.1062 33.8319C30.5973 33.5898 31.6988 30.9826 33.7078 26.2376ZM27.1062 33.8319C28.3653 32.2011 29.706 30.1304 33.7078 26.2376ZM36.455 23.0772C38.5535 21.7601 41.2298 17.9624 44.7378 13.5491ZM36.455 23.0772C39.4798 20.1389 41.8265 17.1562 44.7378 13.5491ZM16.5929 46.3071C18.3045 44.3401 21.3951 41.9082 24.2606 37.4864ZM16.5929 46.3071C18.2793 44.4002 21.7123 41.1474 24.2606 37.4864ZM27.1308 34.1846C30.6242 29.909 32.2602 27.8474 33.8965 26.4016ZM27.1308 34.1846C30.2408 32.5249 33.081 29.4971 33.8965 26.4016ZM36.6027 23.2884C40.5855 20.8172 43.7131 16.8566 44.8855 13.7602ZM36.6027 23.2884C37.6901 20.5937 40.0238 18.3089 44.8855 13.7602ZM16.8636 46.3768C17.6934 45.4588 19.0226 42.4908 24.5723 37.5089ZM16.8636 46.3768C20.8908 44.8691 23.3606 41.7939 24.5723 37.5089ZM27.1145 34.5844C30.6418 31.383 33.8027 27.7876 35.1923 25.2921ZM27.1145 34.5844C27.5948 33.0788 30.1918 29.7404 35.1923 25.2921ZM36.7914 23.4525C36.8643 19.5366 39.0004 17.1626 44.9921 14.0186ZM36.7914 23.4525C40.907 18.6722 44.1639 15.7894 44.9921 14.0186ZM17.1343 46.4464C18.313 44.409 19.4414 42.1454 24.925 37.4842ZM17.1343 46.4464C21.5563 43.3255 24.4332 40.5316 24.925 37.4842ZM27.0982 34.9843C30.7463 30.4347 34.4333 25.9437 45.1398 14.2298ZM27.0982 34.9843C34.8412 28.9439 39.9648 22.6005 45.1398 14.2298ZM17.405 46.5161C17.1042 44.4387 20.2643 41.321 25.2366 37.5068ZM17.405 46.5161C17.2846 43.37 19.0566 41.5065 25.2366 37.5068ZM27.1228 35.337C30.2766 30.4418 33.5551 25.676 45.2465 14.4881ZM27.1228 35.337C31.1255 28.5915 35.4775 23.9096 45.2465 14.4881ZM17.6346 46.633C22.0486 46.1907 22.5913 44.1519 25.5893 37.4821ZM17.6346 46.633C21.3728 44.5396 23.3692 41.2442 25.5893 37.4821ZM27.1065 35.7369C30.7045 31.4736 34.5321 26.4291 45.3941 14.6993ZM27.1065 35.7369C35.3363 30.3524 41.4648 23.1119 45.3941 14.6993ZM17.9053 46.7026C18.1614 45.3943 19.2696 44.1779 25.901 37.5046ZM17.9053 46.7026C20.8053 43.7159 22.842 40.8557 25.901 37.5046ZM27.1311 36.0896C33.2063 30.1196 39.1293 22.6399 45.5008 14.9577ZM27.1311 36.0896C36.1785 29.8595 42.5041 22.3423 45.5008 14.9577ZM18.176 46.7723C19.8641 44.3843 23.3779 40.3256 26.2538 37.48ZM18.176 46.7723C19.1218 42.7471 21.3776 40.6219 26.2538 37.48ZM27.1148 36.4894C33.1861 29.7579 39.0238 23.3466 45.6485 15.1689ZM27.1148 36.4894C32.2184 32.554 36.5936 27.2276 45.6485 15.1689ZM18.4467 46.842C20.6089 43.5189 23.4077 39.2703 26.5655 37.5025ZM18.4467 46.842C20.2733 46.1592 22.1399 43.609 26.5655 37.5025ZM27.0985 36.8892C31.9946 32.8345 36.9362 27.4339 45.7551 15.4272ZM27.0985 36.8892C31.9931 32.5274 35.922 27.8306 45.7551 15.4272ZM18.6764 46.9589C21.4482 43.2376 24.5387 39.6494 26.8771 37.525ZM18.6764 46.9589C20.9737 45.8832 23.397 43.6039 26.8771 37.525ZM27.1231 37.2419C34.1511 28.6619 40.7547 21.3141 45.9028 15.6384ZM27.1231 37.2419C34.2671 31.8465 40.6503 24.3139 45.9028 15.6384ZM18.9471 47.0285C27.8505 38.7867 36.1551 29.4291 46.0095 15.8967ZM18.9471 47.0285C26.4416 37.0774 33.9795 28.504 46.0095 15.8967ZM19.2178 47.0982C28.4296 39.3009 35.0376 31.9626 46.1571 16.1079ZM19.2178 47.0982C27.5797 36.5019 37.9569 24.6307 46.1571 16.1079ZM19.4885 47.1679C24.558 38.377 30.3891 32.0376 46.2228 16.4134ZM19.4885 47.1679C30.7496 36.9051 40.8731 25.1821 46.2228 16.4134ZM19.7591 47.2376C26.1881 39.6905 34.9267 29.8603 46.3295 16.6718ZM19.7591 47.2376C26.5906 39.1717 35.7056 28.5497 46.3295 16.6718ZM19.9888 47.3544C28.4781 38.7843 36.9994 28.8427 46.4362 16.9302ZM19.9888 47.3544C30.6696 34.1312 40.714 22.4756 46.4362 16.9302ZM20.2595 47.4241C27.3763 36.0129 36.0331 26.7441 46.5018 17.2357ZM20.2595 47.4241C28.7653 38.802 35.57 31.0729 46.5018 17.2357ZM20.5301 47.4937C28.5928 40.2368 34.7032 33.2623 46.6085 17.4941ZM20.5301 47.4937C26.3322 39.0285 33.7574 30.5234 46.6085 17.4941ZM20.8418 47.5162C29.3658 37.5849 36.6573 28.8897 46.6742 17.7996ZM20.8418 47.5162C27.1556 36.5946 35.5014 27.0049 46.6742 17.7996ZM21.1535 47.5387C28.3093 38.7142 34.4311 31.2322 46.7808 18.0579ZM21.1535 47.5387C29.786 39.6494 38.6836 29.1438 46.7808 18.0579ZM21.4652 47.5612C31.3773 38.5699 39.1644 29.8757 46.8465 18.3634ZM21.4652 47.5612C30.7708 38.0552 40.3069 26.9669 46.8465 18.3634ZM21.7769 47.5837C28.2827 36.0334 36.7201 26.8051 46.9532 18.6218ZM21.7769 47.5837C30.0081 39.7199 37.493 31.1966 46.9532 18.6218ZM22.0476 47.6534C31.6551 35.0767 40.7365 25.3272 47.0188 18.9273ZM22.0476 47.6534C26.5176 38.3997 33.2796 30.9051 47.0188 18.9273ZM22.3593 47.6759C28.5812 36.0994 37.2985 26.7437 47.1255 19.1857ZM22.3593 47.6759C29.4657 42.8773 35.0614 36.4239 47.1255 19.1857ZM22.671 47.6985C28.0123 41.0279 34.8766 33.4571 47.1912 19.4912ZM22.671 47.6985C27.9158 41.2291 34.4127 34.0166 47.1912 19.4912ZM22.9826 47.721C31.3825 37.8394 39.103 28.598 47.2978 19.7496ZM22.9826 47.721C28.0118 40.5679 33.4595 34.5112 47.2978 19.7496ZM23.2944 47.7435C34.4748 38.7512 43.6905 27.5316 47.3635 20.0551ZM23.2944 47.7435C27.1051 42.8882 32.1679 37.3959 47.3635 20.0551ZM23.6061 47.766C32.8225 39.6714 40.0008 31.4948 47.4702 20.3134ZM23.6061 47.766C28.8265 42.2092 34.0842 36.1345 47.4702 20.3134ZM23.8767 47.8357C29.3268 39.0649 36.1497 30.6324 47.4948 20.6661ZM23.8767 47.8357C31.5404 36.7066 40.5084 26.1456 47.4948 20.6661ZM24.1884 47.8582C35.4338 37.5814 44.6898 27.2985 47.5195 21.0188ZM24.1884 47.8582C30.3527 40.8121 36.2431 33.9466 47.5195 21.0188ZM24.5001 47.8807C30.5025 37.7009 38.4671 28.4594 47.5852 21.3243ZM24.5001 47.8807C33.482 37.9882 42.589 27.5 47.5852 21.3243ZM24.8118 47.9032C32.2966 40.3284 39.4116 32.0353 47.6098 21.677ZM24.8118 47.9032C30.1567 42.9578 35.7565 36.3902 47.6098 21.677ZM25.1235 47.9257C32.5757 40.5891 39.3447 32.1257 47.6345 22.0297ZM25.1235 47.9257C31.2263 40.5963 36.33 34.6968 47.6345 22.0297ZM25.4762 47.901C34.1283 38.6519 41.0908 30.6102 47.6592 22.3824ZM25.4762 47.901C35.0956 40.519 42.4623 31.9292 47.6592 22.3824ZM25.8289 47.8764C33.3934 39.2517 41.3638 29.6624 47.7248 22.6879ZM25.8289 47.8764C34.8268 36.0986 43.4545 26.3147 47.7248 22.6879ZM26.2226 47.8046C31.7941 38.6581 38.2341 31.5208 47.7495 23.0406ZM26.2226 47.8046C34.01 38.3746 41.3533 29.6008 47.7495 23.0406ZM26.5753 47.7799C32.0943 41.7749 36.2637 36.8418 47.7741 23.3933ZM26.5753 47.7799C34.6501 40.9763 41.8378 32.8229 47.7741 23.3933ZM26.928 47.7552C33.6053 41.3476 38.8345 35.3262 47.7988 23.746ZM26.928 47.7552C33.9165 40.9943 40.4163 33.6854 47.7988 23.746ZM27.2806 47.7306C30.3826 41.5728 34.5526 36.4606 47.8645 24.0516ZM27.2806 47.7306C35.2857 39.9531 42.0262 32.0256 47.8645 24.0516ZM27.6743 47.6587C33.8898 41.9781 37.9391 37.1481 47.8891 24.4042ZM27.6743 47.6587C31.4802 39.3885 37.4141 32.4864 47.8891 24.4042ZM28.027 47.6341C36.1851 41.2301 42.3901 33.2655 47.9138 24.7569ZM28.027 47.6341C35.3156 39.3552 41.884 31.4773 47.9138 24.7569ZM28.3797 47.6094C33.6206 38.1038 40.901 29.9531 47.9385 25.1096ZM28.3797 47.6094C31.3487 41.6766 36.4055 35.693 47.9385 25.1096ZM28.7324 47.5847C34.0558 38.4801 41.2908 30.4817 47.8811 25.5566ZM28.7324 47.5847C34.6173 43.5936 39.861 37.5787 47.8811 25.5566ZM29.1261 47.5129C36.0706 39.3415 42.3954 32.0841 47.8238 26.0037ZM29.1261 47.5129C34.8661 41.1994 39.8739 35.1666 47.8238 26.0037ZM29.4788 47.4882C37.4767 40.2198 42.5694 33.7546 47.8075 26.4036ZM29.4788 47.4882C35.0432 38.5146 41.2123 31.1829 47.8075 26.4036ZM29.8725 47.4164C36.9815 40.8664 43.3223 33.1771 47.7501 26.8506ZM29.8725 47.4164C32.1318 45.0317 36.2335 40.4019 47.7501 26.8506ZM30.3482 47.2502C32.9847 43.4524 36.2454 38.7447 47.6928 27.2976ZM30.3482 47.2502C38.2593 41.2409 44.2791 34.4029 47.6928 27.2976ZM30.7829 47.1312C36.7172 42.3726 43.0068 35.4074 47.6765 27.6974ZM30.7829 47.1312C33.929 40.7842 37.976 36.6474 47.6765 27.6974ZM31.2586 46.9651C37.707 38.5267 43.8841 31.2991 47.6191 28.1445ZM31.2586 46.9651C37.6434 41.981 41.3156 37.1637 47.6191 28.1445ZM31.6933 46.8461C35.8071 40.3786 39.5844 34.5324 47.5617 28.5915ZM31.6933 46.8461C35.333 39.7371 40.2637 34.5762 47.5617 28.5915ZM32.128 46.7271C37.3286 40.7467 40.5183 37.3324 47.5454 28.9914ZM32.128 46.7271C36.375 39.5766 41.8847 32.6842 47.5454 28.9914ZM32.6037 46.5609C34.3799 40.4808 38.369 36.0372 47.4881 29.4384ZM32.6037 46.5609C38.6548 41.6712 43.043 36.0146 47.4881 29.4384ZM33.0384 46.4419C35.211 41.1054 40.4505 36.1456 47.3897 29.9326ZM33.0384 46.4419C39.3836 39.2324 44.5064 33.1481 47.3897 29.9326ZM33.5141 46.2757C38.9078 42.2752 42.639 37.5137 47.2093 30.5211ZM33.5141 46.2757C38.3055 39.7802 43.392 33.5624 47.2093 30.5211ZM33.9488 46.1567C38.8266 41.4664 41.7498 37.9441 47.029 31.1097ZM33.9488 46.1567C39.1646 43.2296 42.1119 39.8175 47.029 31.1097ZM34.5885 45.8019C39.792 40.0997 43.6042 34.7603 46.8486 31.6982ZM34.5885 45.8019C36.5535 40.5222 39.8645 36.7967 46.8486 31.6982ZM35.2283 45.447C38.2519 39.2826 41.9011 35.2601 46.6683 32.2867ZM35.2283 45.447C38.7424 44.1608 41.4325 41.5147 46.6683 32.2867ZM35.827 45.1393C37.6868 40.6361 39.9086 38.8972 46.4469 32.9225ZM35.827 45.1393C36.7168 41.2964 39.5856 37.8738 46.4469 32.9225ZM36.4667 44.7845C37.5597 39.71 40.366 36.7226 46.2666 33.511ZM36.4667 44.7845C37.8126 41.3803 40.9915 37.7634 46.2666 33.511ZM37.1064 44.4296C39.0004 40.9672 41.6495 39.363 46.0042 34.1939ZM37.1064 44.4296C41.2252 39.8047 44.5699 36.2459 46.0042 34.1939ZM37.7051 44.1219C40.9833 43.0888 42.8671 40.3584 45.4548 35.2069ZM37.7051 44.1219C40.7737 42.0911 42.6618 39.985 45.4548 35.2069ZM38.7549 43.2954C42.2592 41.5321 43.9028 40.1879 44.9054 36.22ZM38.7549 43.2954C40.7092 42.7253 41.892 41.3311 44.9054 36.22ZM39.9276 42.3274C41.7195 41.0741 41.4984 39.0878 44.356 37.2331ZM39.9276 42.3274C40.0741 41.0455 41.0738 40.1489 44.356 37.2331Z" stroke="#4A45AA" stroke-width="0.17" stroke-linecap="round"/>
<path d="M25.0002 2.08331C11.8856 1.76937 1.63882 11.7886 2.0835 25M25.0002 2.08331C12.4177 2.95725 1.35363 13.0281 2.0835 25M25.0002 2.08331C37.2353 1.98387 47.4548 12.9602 47.9169 25M25.0002 2.08331C38.3094 2.70575 47.5584 13.002 47.9169 25M2.0835 25C2.41788 37.0109 12.3269 47.783 25.0002 47.9167M2.0835 25C1.53588 37.3526 13.1611 47.7961 25.0002 47.9167M25.0002 47.9167C37.8849 47.4622 48.6257 37.3635 47.9169 25M25.0002 47.9167C37.2323 47.0882 47.285 37.1602 47.9169 25M33.9377 26.4792C30.6809 25.7467 29.3203 22.8119 27.0835 19.6042M33.9377 26.4792C32.5792 25.2684 30.6961 22.7729 27.0835 19.6042M33.9377 26.4792C35.4204 24.4944 35.6408 24.1853 36.896 23.5417M33.9377 26.4792C34.8128 25.3299 35.7748 24.3852 36.896 23.5417M27.0835 19.6042C28.1194 24.5869 28.4406 30.6623 27.0835 37.5M27.0835 19.6042C28.4771 25.7862 28.2067 31.6653 27.0835 37.5M27.0835 37.5C26.5468 38.0423 24.3569 38.6294 22.9169 37.5M27.0835 37.5C25.8451 37.2625 24.3384 36.8231 22.9169 37.5M22.9169 37.5C20.1802 32.2389 20.6606 26.4109 22.9169 19.6042M22.9169 37.5C22.7222 31.6206 22.4011 25.9155 22.9169 19.6042M22.9169 19.6042C19.2337 21.9531 17.6433 24.5834 16.0627 26.4583M22.9169 19.6042C18.8733 21.2682 16.4775 23.1572 16.0627 26.4583M16.0627 26.4583C13.6184 26.2473 13.9771 25.0477 13.1252 23.5208M16.0627 26.4583C14.4348 25.2618 13.4408 23.9688 13.1252 23.5208M13.1252 23.5208C15.5203 17.9828 21.0953 13.6006 25.0002 11.6458M13.1252 23.5208C14.6361 21.6956 17.4823 18.7356 25.0002 11.6458M25.0002 11.6458C26.7762 15.5323 30.6267 19.2575 36.896 23.5417M25.0002 11.6458C28.8146 13.6348 31.7338 16.3471 36.896 23.5417" stroke="#4A45AA" stroke-width="0.17" stroke-linecap="round"/>
</svg>
