<svg width="50" height="50" viewBox="0 0 50 50" fill="none" xmlns="http://www.w3.org/2000/svg">
<path d="M7.05687 10.9375C7.04775 10.0687 6.8625 10.5189 7.79494 10.0884ZM7.05687 10.9375C6.96987 10.7724 7.117 10.2354 7.79494 10.0884ZM6.91756 11.4788C7.0395 10.5192 8.86256 9.89913 8.39369 9.78075ZM6.91756 11.4788C6.84375 10.8581 6.62756 11.1759 8.39369 9.78075ZM6.73719 12.0674C7.84462 11.2944 8.52769 9.00894 8.95137 9.52025ZM6.73719 12.0674C8.53944 11.1641 8.86287 10.3805 8.95137 9.52025ZM6.59781 12.6088C6.5695 11.1301 8.13237 9.172 9.55012 9.21256ZM6.59781 12.6088C8.36625 12.4043 9.76131 10.7542 9.55012 9.21256ZM6.4585 13.1501C8.83437 12.8254 10.8392 10.2731 10.1488 8.90488ZM6.4585 13.1501C6.74662 11.3271 7.76181 9.85731 10.1488 8.90488ZM6.52413 13.4556C8.46081 12.3546 10.939 11.6416 10.7065 8.64438ZM6.52413 13.4556C7.50619 12.9796 9.42406 11.1524 10.7065 8.64438ZM6.50781 13.8555C8.219 12.6461 9.32462 12.5429 11.3052 8.33669ZM6.50781 13.8555C8.85262 11.4858 10.1966 8.94444 11.3052 8.33669ZM6.53244 14.2082C8.36031 12.119 9.20006 10.6776 11.5759 8.40638ZM6.53244 14.2082C10.0362 11.2678 10.9176 9.51031 11.5759 8.40638ZM6.51612 14.6081C8.17919 13.8865 8.55106 12.8526 12.0516 8.24019ZM6.51612 14.6081C9.76281 11.709 11.504 9.38069 12.0516 8.24019ZM6.49981 15.0079C8.04556 15.5231 9.57406 13.2042 12.5273 8.074ZM6.49981 15.0079C9.38125 11.5693 11.4659 10.0361 12.5273 8.074ZM6.48344 15.4078C8.468 15.9143 11.3621 13.4302 13.003 7.90788ZM6.48344 15.4078C6.46288 14.2449 7.24475 12.5361 13.003 7.90788ZM6.50812 15.7605C8.77881 13.1923 11.0131 10.6359 13.4378 7.78888ZM6.50812 15.7605C10.3466 13.8434 12.6421 12.1279 13.4378 7.78888ZM6.49175 16.1603C9.68569 11.7501 13.0482 8.438 13.9134 7.62269ZM6.49175 16.1603C9.61944 12.8181 11.6204 10.4554 13.9134 7.62269ZM6.47544 16.5602C10.3781 11.4086 12.6602 10.5229 14.3891 7.4565ZM6.47544 16.5602C10.9227 13.5319 13.6786 9.90944 14.3891 7.4565ZM6.45906 16.9601C7.05881 16.5978 9.203 13.8044 14.8238 7.3375ZM6.45906 16.9601C6.93713 11.6001 10.3069 7.34931 14.8238 7.3375ZM6.44275 17.3599C12.3822 13.4577 14.6559 8.93406 15.2996 7.17131ZM6.44275 17.3599C12.1896 14.4095 15.2666 10.4759 15.2996 7.17131ZM6.46737 17.7126C7.39637 13.9475 9.39969 10.6293 15.7752 7.00519ZM6.46737 17.7126C10.97 12.9003 13.9225 10.1442 15.7752 7.00519ZM6.45106 18.1125C11.2042 17.6846 14.0956 12.7226 16.2509 6.839ZM6.45106 18.1125C7.54894 14.6644 10.8896 11.3798 16.2509 6.839ZM6.43475 18.5123C7.77938 17.506 10.7352 13.2158 16.6856 6.72ZM6.43475 18.5123C9.85344 14.0914 13.5499 10.0177 16.6856 6.72ZM6.41838 18.9122C10.4013 13.1414 13.932 9.31538 17.1614 6.55381ZM6.41838 18.9122C9.73581 17.7038 12.1108 15.3063 17.1614 6.55381ZM6.44306 19.2649C8.90256 18.1649 13.2854 14.0426 17.6371 6.38763ZM6.44306 19.2649C9.93837 14.1927 13.0999 10.1074 17.6371 6.38763ZM6.42669 19.6648C11.7439 14.3278 14.2395 9.618 18.0717 6.26863ZM6.42669 19.6648C9.95906 14.4268 13.7064 10.0319 18.0717 6.26863ZM6.41038 20.0646C7.09694 12.4369 11.6184 6.76488 18.5474 6.1025ZM6.41038 20.0646C12.1106 13.3115 16.6244 8.70888 18.5474 6.1025ZM6.394 20.4645C9.12337 14.8639 12.0564 11.0064 19.0232 5.93631ZM6.394 20.4645C11.3896 15.3706 15.3845 11.4154 19.0232 5.93631ZM6.37769 20.8643C8.61019 17.7835 13.892 11.7743 19.4989 5.77013ZM6.37769 20.8643C13.1291 18.2553 17.8906 13.533 19.4989 5.77013ZM6.32031 21.3114C13.2271 14.8558 16.2412 10.8848 19.9336 5.65113ZM6.32031 21.3114C11.9488 16.7245 17.4471 10.7577 19.9336 5.65113ZM6.79606 21.1452C10.0104 17.9491 13.5524 13.9569 20.4093 5.48494ZM6.79606 21.1452C7.58675 13.8784 11.2116 9.50181 20.4093 5.48494ZM7.23075 21.0262C8.60863 18.1441 11.7446 14.4505 20.8849 5.31881ZM7.23075 21.0262C9.34875 20.457 12.0889 17.166 20.8849 5.31881ZM7.70644 20.86C11.2318 15.9881 16.4312 9.36681 21.3197 5.19981ZM7.70644 20.86C9.583 18.9792 12.8539 14.9135 21.3197 5.19981ZM8.18212 20.6939C11.0058 15.8733 15.2952 12.2813 21.7954 5.03363ZM8.18212 20.6939C16.4427 16.0271 22.0354 9.919 21.7954 5.03363ZM8.65787 20.5277C11.8363 18.1244 15.6342 13.6467 22.2711 4.86744ZM8.65787 20.5277C10.5674 16.3197 15.4212 10.873 22.2711 4.86744ZM9.09256 20.4087C13.6977 13.1052 17.0148 9.44575 22.7467 4.70131ZM9.09256 20.4087C13.7732 15.0144 17.6709 10.9588 22.7467 4.70131ZM9.56825 20.2425C16.6013 14.4399 21.3332 8.76494 23.1815 4.58231ZM9.56825 20.2425C10.9534 15.3184 16.1046 9.96681 23.1815 4.58231ZM10.0439 20.0763C11.8981 16.0758 15.9685 11.1749 23.6162 4.46331ZM10.0439 20.0763C15.9647 16.5232 19.4513 12.2536 23.6162 4.46331ZM10.5196 19.9102C16.9494 16.4003 21.0392 12.1981 23.5998 4.86313ZM10.5196 19.9102C12.2088 12.1772 17.1984 6.43306 23.5998 4.86313ZM10.9954 19.744C18.0136 15.1494 22.2843 10.8418 23.6245 5.21581ZM10.9954 19.744C18.1168 17.2479 21.762 13.1691 23.6245 5.21581ZM11.4301 19.625C17.6587 12.8678 22.0101 8.16213 23.6081 5.61569ZM11.4301 19.625C14.1634 18.2062 16.9298 14.2103 23.6081 5.61569ZM11.9057 19.4588C16.9285 12.5983 21.2932 6.90525 23.5918 6.01556ZM11.9057 19.4588C12.2022 17.8603 15.7031 13.9879 23.5918 6.01556ZM12.3814 19.2926C18.1474 12.6365 21.0141 9.06663 23.6165 6.36825ZM12.3814 19.2926C15.3423 14.0461 17.8352 11.5486 23.6165 6.36825ZM12.8572 19.1265C18.2919 13.8117 21.9936 11.7693 23.6001 6.76813ZM12.8572 19.1265C13.4982 16.7033 17.2263 12.4503 23.6001 6.76813ZM13.2919 19.0075C14.9643 13.3647 17.0957 8.94325 23.6248 7.12081ZM13.2919 19.0075C17.4968 14.6356 21.3617 10.4918 23.6248 7.12081ZM13.7676 18.8413C13.6096 17.6541 15.8746 14.7106 23.6084 7.52069ZM13.7676 18.8413C16.2435 17.5793 19.4447 14.4531 23.6084 7.52069ZM14.2433 18.6751C16.9538 17.3601 18.4351 14.5906 23.5921 7.9205ZM14.2433 18.6751C13.3254 18.0094 15.6043 14.9169 23.5921 7.9205ZM14.719 18.5089C18.2672 16.9731 20.7484 13.8022 23.6167 8.27325ZM14.719 18.5089C18.8599 15.104 22.4422 11.3929 23.6167 8.27325ZM15.1537 18.3899C16.1539 13.0554 19.1932 10.4093 23.6004 8.67306ZM15.1537 18.3899C17.6037 15.8646 19.9841 12.6911 23.6004 8.67306ZM15.6294 18.2238C20.1227 14.4356 20.9771 11.9749 23.6251 9.02575ZM15.6294 18.2238C15.3028 14.9011 18.0799 12.9346 23.6251 9.02575ZM16.1051 18.0576C16.5066 17.1608 19.4081 13.7899 23.6087 9.42563ZM16.1051 18.0576C18.9862 16.3122 20.3346 14.7897 23.6087 9.42563ZM16.5808 17.8914C17.0983 16.6116 18.8953 14.3138 23.5924 9.8255ZM16.5808 17.8914C17.3418 12.7294 18.9131 9.99694 23.5924 9.8255ZM17.0565 17.7253C18.8849 14.0622 21.3628 10.9587 23.6171 10.1782ZM17.0565 17.7253C21.8259 16.2873 23.6517 13.8441 23.6171 10.1782ZM17.4912 17.6063C20.1914 16.6939 22.3978 14.2354 23.6007 10.5781ZM17.4912 17.6063C20.7509 16.645 21.9679 15.4074 23.6007 10.5781ZM17.9669 17.4401C17.9574 14.9795 18.9522 12.9222 23.6254 10.9308ZM17.9669 17.4401C19.0154 14.6746 20.7127 13.0771 23.6254 10.9308ZM18.4426 17.2739C19.7595 14.6219 22.6466 12.9144 23.6091 11.3306ZM18.4426 17.2739C19.9346 14.5404 21.9716 12.0901 23.6091 11.3306ZM18.9183 17.1078C19.8723 15.3634 20.9304 14.3117 23.5927 11.7304ZM18.9183 17.1078C19.464 16.6029 20.972 15.6917 23.5927 11.7304ZM19.353 16.9888C21.9449 14.3974 21.8668 13.8795 23.6174 12.0832ZM19.353 16.9888C22.5811 14.0282 23.9132 11.9716 23.6174 12.0832ZM19.8287 16.8226C20.9618 16.9067 22.8074 15.4539 23.6011 12.483ZM19.8287 16.8226C22.5386 16.3961 23.087 14.761 23.6011 12.483ZM20.3044 16.6564C19.6705 16.3223 20.6428 14.7562 23.6257 12.8357ZM20.3044 16.6564C20.8944 16.3915 21.5706 15.2472 23.6257 12.8357ZM20.7801 16.4903C22.4027 15.941 23.0091 15.3401 23.6094 13.2356ZM20.7801 16.4903C21.1094 15.9914 21.6628 15.0385 23.6094 13.2356ZM21.2558 16.3241C20.4931 15.4231 22.4477 13.7203 23.593 13.6354ZM21.2558 16.3241C22.1614 16.4644 23.0604 15.7154 23.593 13.6354ZM21.6905 16.2051C22.6224 15.4757 23.6189 14.9654 23.6177 13.9881ZM21.6905 16.2051C21.8881 14.7846 22.2941 14.7935 23.6177 13.9881ZM22.1662 16.0389C23.0046 16.2174 22.5596 15.2138 23.6013 14.388ZM22.1662 16.0389C22.4692 15.8663 22.9717 14.931 23.6013 14.388ZM22.6419 15.8728C22.1041 16.2069 22.9977 15.4146 23.626 14.7407ZM22.6419 15.8728C22.4875 16.0533 23.5112 15.4843 23.626 14.7407ZM23.1176 15.7066C23.0535 15.7644 23.1794 15.1572 23.6097 15.1406ZM23.1176 15.7066C23.1669 15.5235 23.2319 15.4823 23.6097 15.1406Z" stroke="#4A45AA" stroke-width="0.17" stroke-linecap="round"/>
<path d="M23.4374 4.31925C22.1221 4.49831 21.5423 4.19963 18.4118 5.84281M23.4374 4.31925C21.5491 4.074 21.4139 4.93131 18.4118 5.84281M23.4374 4.31925C24.4672 7.82194 23.7504 11.4121 23.4374 15.5401M23.4374 4.31925C22.3321 10.5626 21.7351 13.1499 23.4374 15.5401M18.4118 5.84281C18.2406 6.18506 18.2922 6.13688 17.2184 6.25131M18.4118 5.84281C18.0136 5.23113 17.4947 5.20219 17.2184 6.25131M17.2184 6.25131C10.2347 8.2465 7.99717 8.55606 7.03636 10.588M17.2184 6.25131C10.0399 8.62813 7.92317 9.48775 7.03636 10.588M7.03636 10.588C6.06711 12.2971 7.10736 15.4486 6.24986 21.2694M7.03636 10.588C6.21805 12.133 5.60155 15.5189 6.24986 21.2694M6.24986 21.2694C12.5452 16.6384 18.7166 15.5457 23.4374 15.5401M6.24986 21.2694C12.4025 19.5629 17.8506 17.9827 23.4374 15.5401" stroke="#4A45AA" stroke-width="0.17" stroke-linecap="round"/>
<path d="M6.27507 24.9158C5.98344 24.9371 6.60763 24.7783 6.72613 24.3969ZM6.27507 24.9158C6.25657 24.6552 6.67888 24.5289 6.72613 24.3969ZM6.29975 25.2685C6.307 25.8068 6.20925 23.892 7.20182 24.2308ZM6.29975 25.2685C6.81444 24.8094 6.65888 24.6594 7.20182 24.2308ZM6.32438 25.6212C6.78113 26.0436 6.87919 25.8986 7.6365 24.1118ZM6.32438 25.6212C6.55438 24.4615 7.19913 24.4078 7.6365 24.1118ZM6.34907 25.9739C7.24525 25.8823 6.82425 24.8011 8.11219 23.9456ZM6.34907 25.9739C7.30288 26.0767 7.37632 24.8959 8.11219 23.9456ZM6.37369 26.3266C7.23694 25.0885 8.18282 25.2379 8.58794 23.7794ZM6.37369 26.3266C7.14057 26.2209 7.93682 25.5331 8.58794 23.7794ZM6.39838 26.6793C7.37432 25.8904 7.85082 23.8696 9.06363 23.6133ZM6.39838 26.6793C8.04463 25.3578 9.39569 23.4175 9.06363 23.6133ZM6.42307 27.0319C8.10719 25.2218 9.85613 25.1361 9.49832 23.4943ZM6.42307 27.0319C8.32638 26.4826 8.72807 25.1043 9.49832 23.4943ZM6.44769 27.3846C6.77563 26.6973 7.69582 25.5447 9.974 23.3281ZM6.44769 27.3846C7.91063 26.2894 9.04957 25.6743 9.974 23.3281ZM6.43138 27.7845C6.39832 26.4373 7.68132 24.9868 10.4497 23.1619ZM6.43138 27.7845C8.77969 25.37 9.75738 24.3228 10.4497 23.1619ZM6.456 28.1372C7.59132 25.608 9.21632 23.5491 10.9254 22.9958ZM6.456 28.1372C8.72488 27.8808 9.78794 27.4371 10.9254 22.9958ZM6.56269 28.3956C8.7025 28.3076 10.3006 27.3498 11.3601 22.8768ZM6.56269 28.3956C9.52994 24.7758 10.9921 23.1329 11.3601 22.8768ZM6.62838 28.7011C8.75807 27.2267 10.0285 25.8084 11.8358 22.7106ZM6.62838 28.7011C10.0018 26.3063 11.8406 24.8628 11.8358 22.7106ZM6.735 28.9594C9.55632 28.3724 10.6483 27.6409 12.3115 22.5444ZM6.735 28.9594C6.28044 27.2971 8.28975 25.3553 12.3115 22.5444ZM6.80069 29.2649C10.7788 27.7373 12.4357 26.2529 12.7873 22.3782ZM6.80069 29.2649C8.1505 25.9066 10.1637 24.4333 12.7873 22.3782ZM6.86638 29.5704C10.8218 26.3303 11.8374 23.6757 13.2629 22.2121ZM6.86638 29.5704C8.83238 29.7071 10.8163 27.7969 13.2629 22.2121ZM6.932 29.876C10.1821 26.9777 11.3819 24.5428 13.6976 22.0931ZM6.932 29.876C6.69975 27.3296 7.93725 26.0476 13.6976 22.0931ZM6.99769 30.1815C9.8045 28.4541 11.7256 26.5786 14.1733 21.9269ZM6.99769 30.1815C11.6276 30.0506 13.4545 27.7335 14.1733 21.9269ZM7.06338 30.4871C7.98025 29.2634 9.89119 26.9949 14.6491 21.7607ZM7.06338 30.4871C8.88025 30.5783 10.4711 28.0696 14.6491 21.7607ZM7.17 30.7454C11.4474 29.6294 14.1961 26.0749 15.1248 21.5945ZM7.17 30.7454C8.78888 25.2814 11.8308 21.8496 15.1248 21.5945ZM7.23569 31.0509C9.15882 27.8944 11.9781 25.0339 15.5594 21.4755ZM7.23569 31.0509C7.19763 28.2954 8.99619 26.5785 15.5594 21.4755ZM7.30138 31.3564C11.6691 25.7919 14.057 23.7042 16.0351 21.3094ZM7.30138 31.3564C7.45519 26.6466 9.90813 24.2096 16.0351 21.3094ZM7.367 31.6619C12.3885 28.7135 15.9919 24.8124 16.5109 21.1432ZM7.367 31.6619C6.98519 28.7209 9.7665 25.9343 16.5109 21.1432ZM7.47369 31.9203C8.55063 30.5896 10.1419 29.5124 16.9866 20.977ZM7.47369 31.9203C10.4143 26.5146 13.9168 23.2156 16.9866 20.977ZM7.58038 32.1787C10.9011 26.7106 12.3713 24.3234 17.4623 20.8109ZM7.58038 32.1787C9.22132 27.6036 12.3189 24.3444 17.4623 20.8109ZM7.68707 32.437C7.60132 27.2623 11.2958 23.8381 17.8969 20.6919ZM7.68707 32.437C8.081 28.9636 10.4334 26.2569 17.8969 20.6919ZM7.79369 32.6954C12.4534 30.7109 14.997 27.0653 18.3726 20.5257ZM7.79369 32.6954C11.0159 26.5818 15.5674 21.9876 18.3726 20.5257ZM7.90038 32.9538C15.9414 28.863 18.9142 24.1351 18.8484 20.3595ZM7.90038 32.9538C10.7732 31.1798 13.3128 27.9263 18.8484 20.3595ZM8.04807 33.1649C12.3291 31.7555 14.135 28.2519 19.3241 20.1933ZM8.04807 33.1649C8.73219 28.5818 11.7197 25.1802 19.3241 20.1933ZM8.15469 33.4233C10.0144 32.544 11.7802 29.7924 19.7588 20.0743ZM8.15469 33.4233C14.1893 31.5893 17.7163 26.8571 19.7588 20.0743ZM8.26138 33.6816C9.81732 32.5634 13.3034 28.3038 20.2344 19.9082ZM8.26138 33.6816C13.1891 25.9439 17.5183 20.6364 20.2344 19.9082ZM8.36807 33.9399C12.5956 31.9133 15.4491 27.8509 20.7102 19.742ZM8.36807 33.9399C12.4861 27.0196 16.7336 22.6759 20.7102 19.742ZM8.47475 34.1983C11.8981 30.7269 14.4769 28.1338 21.1859 19.5758ZM8.47475 34.1983C9.878 29.695 13.9733 25.0347 21.1859 19.5758ZM8.62238 34.4095C13.7247 28.1893 16.8805 24.5174 21.6616 19.4096ZM8.62238 34.4095C12.9021 27.5682 17.6363 22.3334 21.6616 19.4096ZM8.72907 34.6679C14.0614 27.3189 18.5325 21.7713 22.0963 19.2906ZM8.72907 34.6679C11.4968 28.6586 14.6976 24.9486 22.0963 19.2906ZM8.83575 34.9262C12.9161 27.876 16.61 22.5701 22.572 19.1245ZM8.83575 34.9262C12.2275 28.048 16.6301 22.5604 22.572 19.1245ZM8.98344 35.1374C13.9046 30.4767 18.2289 24.9561 23.0477 18.9583ZM8.98344 35.1374C12.2452 30.6259 15.803 26.7821 23.0477 18.9583ZM9.13107 35.3486C15.1532 32.0224 19.9301 26.6087 23.4824 18.8393ZM9.13107 35.3486C10.6754 30.2748 14.5887 25.4016 23.4824 18.8393ZM9.27875 35.5598C11.4009 27.6293 17.0509 22.1506 23.4661 19.2392ZM9.27875 35.5598C12.8768 28.4323 18.5354 21.9733 23.4661 19.2392ZM9.42644 35.7709C15.9596 28.8984 20.3571 24.2083 23.4497 19.639ZM9.42644 35.7709C14.3638 32.8098 19.4816 26.0291 23.4497 19.639ZM9.57413 35.9821C16.4426 29.2747 20.556 24.0699 23.4744 19.9918ZM9.57413 35.9821C10.97 33.6741 14.8157 28.9319 23.4744 19.9918ZM9.72182 36.1933C12.3639 30.3601 17.8073 24.3397 23.458 20.3916ZM9.72182 36.1933C13.1594 31.9319 18.1206 26.1559 23.458 20.3916ZM9.86944 36.4045C17.1005 29.6411 21.4569 23.5169 23.4827 20.7443ZM9.86944 36.4045C13.9161 29.7131 18.7619 24.5032 23.4827 20.7443ZM10.0171 36.6157C13.2819 28.5324 17.8978 23.2773 23.4663 21.1441ZM10.0171 36.6157C19.1292 30.7359 23.7713 24.7684 23.4663 21.1441ZM10.1648 36.8269C15.1151 28.0966 20.8927 22.0121 23.45 21.544ZM10.1648 36.8269C15.4193 36.0182 18.9568 33.0698 23.45 21.544ZM10.3125 37.0381C16.7904 30.4324 20.3862 24.9811 23.4747 21.8967ZM10.3125 37.0381C17.7008 35.4419 21.1029 30.3476 23.4747 21.8967ZM10.4601 37.2493C18.223 30.919 23.2711 24.9938 23.4583 22.2966ZM10.4601 37.2493C11.7169 30.3636 15.7879 25.5394 23.4583 22.2966ZM10.6078 37.4604C13.1846 34.8604 17.689 29.0767 23.483 22.6493ZM10.6078 37.4604C10.0411 33.1314 13.3223 29.3741 23.483 22.6493ZM10.7555 37.6716C15.7761 36.0514 19.4171 31.0248 23.4666 23.0491ZM10.7555 37.6716C14.3561 35.3528 18.9401 30.6713 23.4666 23.0491ZM10.9032 37.8828C18.4363 32.3139 22.2941 28.7079 23.4503 23.4489ZM10.9032 37.8828C12.8059 35.2555 17.2089 30.2963 23.4503 23.4489ZM11.0919 38.0468C15.3161 35.8971 18.4737 34.1454 23.4749 23.8017ZM11.0919 38.0468C17.5667 30.4874 21.8159 25.6452 23.4749 23.8017ZM11.2805 38.2108C12.7074 32.3599 16.386 27.5598 23.4586 24.2015ZM11.2805 38.2108C16.3019 36.4576 19.4261 33.2368 23.4586 24.2015ZM11.4692 38.3748C12.2363 32.8218 14.6916 29.6863 23.4833 24.5542ZM11.4692 38.3748C18.8588 31.2469 23.0193 26.3848 23.4833 24.5542ZM11.6579 38.5389C18.4828 35.1173 21.9683 29.1172 23.4669 24.9541ZM11.6579 38.5389C16.7913 33.8833 19.3996 30.6672 23.4669 24.9541ZM11.8466 38.7029C18.8171 31.7639 23.5317 28.3068 23.4506 25.3539ZM11.8466 38.7029C14.7895 32.0224 19.4881 27.2355 23.4506 25.3539ZM12.0353 38.8669C15.0587 37.6782 19.4538 32.9051 23.4753 25.7066ZM12.0353 38.8669C18.4653 31.5348 23.0238 27.0641 23.4753 25.7066ZM12.2239 39.0309C12.5128 31.4021 16.8981 27.5066 23.4589 26.1065ZM12.2239 39.0309C19.3539 34.5859 23.9101 30.0501 23.4589 26.1065ZM12.4126 39.1949C12.6996 34.9518 15.0009 32.0918 23.4836 26.4592ZM12.4126 39.1949C17.0358 32.1421 20.849 28.0639 23.4836 26.4592ZM12.6013 39.3589C19.5549 32.9341 24.0044 29.0494 23.4673 26.8591ZM12.6013 39.3589C13.7663 34.5078 16.7879 31.696 23.4673 26.8591ZM12.7899 39.5229C15.2493 35.1673 18.4984 30.9848 23.4509 27.2589ZM12.7899 39.5229C15.2053 38.9483 17.7765 35.7352 23.4509 27.2589ZM12.9786 39.6869C17.7098 34.0448 21.7329 29.8439 23.4756 27.6116ZM12.9786 39.6869C15.9068 37.9049 18.4785 35.4742 23.4756 27.6116ZM13.1673 39.8509C15.3586 35.9106 19.4619 32.9122 23.4593 28.0114ZM13.1673 39.8509C15.7203 34.0408 18.5778 31.6558 23.4593 28.0114ZM13.356 40.015C16.5878 38.9448 19.7636 36.8958 23.4839 28.3641ZM13.356 40.015C12.6359 36.5373 14.7029 34.0809 23.4839 28.3641ZM13.5447 40.179C17.7788 34.286 19.7607 31.8145 23.4676 28.764ZM13.5447 40.179C13.6134 37.9477 15.8791 35.6916 23.4676 28.764ZM13.7333 40.343C15.6193 37.5931 17.21 35.0318 23.4512 29.1639ZM13.7333 40.343C13.9614 36.7046 17.323 32.6618 23.4512 29.1639ZM13.922 40.507C14.2775 39.0783 17.1329 35.9602 23.4759 29.5166ZM13.922 40.507C16.4128 38.2931 19.252 34.7615 23.4759 29.5166ZM14.1107 40.6711C16.1664 36.2649 19.8496 32.8055 23.4595 29.9164ZM14.1107 40.6711C14.5441 39.1086 16.4404 35.7916 23.4595 29.9164ZM14.2994 40.8351C14.4384 36.5915 17.8341 33.4539 23.4842 30.2691ZM14.2994 40.8351C13.9126 37.5746 16.6983 35.1656 23.4842 30.2691ZM14.4881 40.9991C13.7624 38.2633 16.2298 37.1538 23.4679 30.669ZM14.4881 40.9991C17.5979 39.0561 20.2314 35.3738 23.4679 30.669ZM14.6768 41.1631C15.2939 39.7093 17.0066 36.3493 23.4515 31.0688ZM14.6768 41.1631C14.6293 39.5052 16.4428 37.3724 23.4515 31.0688ZM14.8654 41.3271C15.0077 35.094 18.479 33.2966 23.4762 31.4216ZM14.8654 41.3271C19.383 37.7029 22.3386 34.7646 23.4762 31.4216ZM15.0541 41.4911C18.8681 36.0194 21.6459 33.1906 23.4598 31.8214ZM15.0541 41.4911C16.2082 37.5864 18.8121 34.6984 23.4598 31.8214ZM15.2428 41.6551C18.8371 40.1933 20.0249 37.8323 23.4845 32.1741ZM15.2428 41.6551C18.8171 39.6324 21.8349 36.7447 23.4845 32.1741ZM15.4314 41.8191C16.0376 39.7966 19.3274 36.1646 23.4681 32.5739ZM15.4314 41.8191C15.2101 41.3836 17.5674 38.4307 23.4681 32.5739ZM15.6201 41.9831C16.5681 40.3519 18.0087 39.6853 23.4518 32.9738ZM15.6201 41.9831C17.5236 42.7168 19.5709 39.8301 23.4518 32.9738ZM15.8088 42.1472C15.9175 40.4734 18.2573 37.3493 23.4765 33.3265ZM15.8088 42.1472C15.8258 42.0933 17.8992 39.8276 23.4765 33.3265ZM15.9974 42.3112C19.1248 40.6621 20.9054 39.3375 23.4601 33.7264ZM15.9974 42.3112C21.2127 39.8252 24.1029 37.1416 23.4601 33.7264ZM16.1861 42.4752C18.4766 39.6604 21.6966 36.9146 23.4848 34.0791ZM16.1861 42.4752C18.8677 39.7671 20.9945 36.3349 23.4848 34.0791ZM16.4158 42.5921C16.0053 38.8204 18.3724 36.7283 23.4684 34.4789ZM16.4158 42.5921C20.5653 40.3314 22.5611 38.2488 23.4684 34.4789ZM16.6455 42.7089C18.3427 38.826 20.1035 36.1985 23.4521 34.8788ZM16.6455 42.7089C19.5353 39.3411 21.7493 36.2304 23.4521 34.8788ZM16.8752 42.8258C16.2383 38.3236 18.4397 37.4971 23.4768 35.2315ZM16.8752 42.8258C20.5276 41.5571 21.9449 39.9136 23.4768 35.2315ZM17.1049 42.9426C17.4558 41.962 17.6523 41.1498 23.4604 35.6313ZM17.1049 42.9426C18.0403 40.1097 20.6304 37.7969 23.4604 35.6313ZM17.3346 43.0594C22.0311 41.0786 22.9744 37.8331 23.4851 35.984ZM17.3346 43.0594C20.0294 42.0775 21.8401 39.4118 23.4851 35.984ZM17.5643 43.1763C20.8004 41.7437 22.2779 39.4881 23.4688 36.3839ZM17.5643 43.1763C20.7319 40.0935 22.1347 37.7154 23.4688 36.3839ZM17.7529 43.3403C18.8894 43.8911 21.037 41.5023 23.4524 36.7838ZM17.7529 43.3403C19.0903 40.3014 20.2232 38.6021 23.4524 36.7838ZM17.9826 43.4571C21.6551 39.0852 23.1616 37.9895 23.4771 37.1364ZM17.9826 43.4571C20.7562 40.5948 22.1784 39.1428 23.4771 37.1364ZM18.2123 43.574C21.5378 42.7574 23.2483 41.1887 23.4608 37.5363ZM18.2123 43.574C21.6105 42.3799 22.6701 40.4986 23.4608 37.5363ZM18.4419 43.6908C21.508 40.5552 21.9788 38.2048 23.4854 37.889ZM18.4419 43.6908C20.8849 42.6379 22.3974 41.4801 23.4854 37.889ZM18.6716 43.8077C19.8864 40.5569 22.2279 38.9771 23.4691 38.2889ZM18.6716 43.8077C20.5804 40.9785 22.0725 38.8329 23.4691 38.2889ZM18.9013 43.9245C17.9391 43.5503 20.1309 41.6159 23.4528 38.6887ZM18.9013 43.9245C19.7258 41.5563 21.3904 40.0793 23.4528 38.6887ZM19.131 44.0414C21.3565 42.5804 23.5284 40.7862 23.4774 39.0414ZM19.131 44.0414C21.2961 41.1385 22.903 39.0148 23.4774 39.0414ZM19.3607 44.1582C21.9426 41.9779 22.5388 40.2759 23.4611 39.4413ZM19.3607 44.1582C20.6773 43.3891 21.8314 43.0489 23.4611 39.4413ZM19.5904 44.2751C20.1249 43.1944 21.7466 41.7043 23.4857 39.7939ZM19.5904 44.2751C20.9454 43.6389 21.8824 42.5215 23.4857 39.7939ZM19.779 44.4391C22.0396 43.2023 23.0819 41.529 23.4694 40.1938ZM19.779 44.4391C21.427 41.9328 22.6764 40.6414 23.4694 40.1938ZM20.0087 44.5559C19.5322 42.9214 21.2216 41.9392 23.453 40.5937ZM20.0087 44.5559C22.0359 42.6206 23.0354 41.7748 23.453 40.5937ZM20.2384 44.6728C21.6914 44.0504 21.7294 44.0304 23.4777 40.9464ZM20.2384 44.6728C20.1123 43.2673 21.9999 42.3193 23.4777 40.9464ZM20.4681 44.7896C20.9371 42.8066 21.8376 41.9053 23.4613 41.3463ZM20.4681 44.7896C21.7699 43.4663 22.5416 42.3722 23.4613 41.3463ZM20.6978 44.9064C21.5962 42.864 22.7599 41.8155 23.486 41.6989ZM20.6978 44.9064C21.2999 44.0564 22.0426 43.4663 23.486 41.6989ZM20.9684 44.9761C20.9874 44.8898 21.4184 44.2264 23.4697 42.0988ZM20.9684 44.9761C22.6719 44.7477 23.3298 43.6192 23.4697 42.0988ZM21.2391 45.0458C21.3337 44.2932 22.3444 42.7433 23.4533 42.4986ZM21.2391 45.0458C21.4802 43.4049 22.4604 42.7116 23.4533 42.4986ZM21.4688 45.1626C21.8368 44.2606 23.1825 43.4461 23.478 42.8514ZM21.4688 45.1626C22.6727 44.2724 23.2904 43.3266 23.478 42.8514ZM21.7395 45.2323C22.8044 44.6496 22.9392 44.3958 23.4616 43.2512ZM21.7395 45.2323C22.9563 44.422 23.7979 43.0518 23.4616 43.2512ZM22.0102 45.302C22.3244 44.0959 22.5123 45.0796 23.4453 43.6511ZM22.0102 45.302C21.9734 45.105 22.2731 44.4336 23.4453 43.6511ZM22.2809 45.3717C22.6136 45.4408 23.0766 44.4376 23.4699 44.0038ZM22.2809 45.3717C22.0749 44.9165 22.5379 44.6459 23.4699 44.0038ZM22.5106 45.4885C22.8731 45.1261 23.1854 44.9006 23.4536 44.4036ZM22.5106 45.4885C22.5996 45.4806 23.4021 44.7435 23.4536 44.4036ZM22.7813 45.5582C22.6957 46.1059 22.4499 45.2738 23.4783 44.7563ZM22.7813 45.5582C22.5112 45.5556 23.006 45.5465 23.4783 44.7563ZM23.0519 45.6279C23.3061 45.0355 23.1279 45.3903 23.4619 45.1562ZM23.0519 45.6279C23.2943 45.7307 23.4019 45.5107 23.4619 45.1562ZM23.3226 45.6976C23.4504 45.5274 23.4136 45.5901 23.4456 45.5561ZM23.3226 45.6976C23.3371 45.5812 23.4033 45.5828 23.4456 45.5561Z" stroke="#4A45AA" stroke-width="0.17" stroke-linecap="round"/>
<path d="M23.4373 18.8341C16.0182 20.4604 10.0768 22.3659 6.24981 24.5633M23.4373 18.8341C18.1476 24.9646 11.9379 26.9294 6.24981 24.5633M23.4373 18.8341C21.263 26.4443 22.0053 35.9325 23.4373 45.7489M23.4373 18.8341C22.7756 25.7081 22.9362 35.524 23.4373 45.7489M6.24981 24.5633C6.14213 24.5472 6.11031 25.0785 6.24981 24.9817M6.24981 24.5633C6.24525 24.6504 6.22681 24.9116 6.24981 24.9817M6.24981 24.9817C5.45356 37.4521 14.7479 42.0523 20.6218 44.8481M6.24981 24.9817C5.21744 37.7408 15.8935 41.4233 20.6218 44.8481M20.6218 44.8481C21.2668 45.0321 21.8863 45.5609 23.4373 45.7489M20.6218 44.8481C20.659 46.1584 22.4308 45.7551 23.4373 45.7489" stroke="#4A45AA" stroke-width="0.17" stroke-linecap="round"/>
<path d="M26.5707 19.2055C26.6984 19.2762 26.7865 18.9691 26.8167 18.9225ZM26.5707 19.2055C26.7216 19.2706 26.775 19.0826 26.8167 18.9225ZM26.5544 19.6054C26.2672 19.5328 26.9787 19.7724 27.0874 18.9922ZM26.5544 19.6054C26.9077 19.1541 26.7899 19.5829 27.0874 18.9922ZM26.5791 19.9581C27.4504 19.5309 27.7801 20.0258 27.3171 19.109ZM26.5791 19.9581C26.4288 19.467 26.8176 19.541 27.3171 19.109ZM26.5627 20.3579C26.1905 19.4471 27.9512 19.6496 27.5878 19.1787ZM26.5627 20.3579C26.486 19.7718 26.4535 19.3401 27.5878 19.1787ZM26.5464 20.7578C26.1098 21.4762 26.4447 20.3188 27.8585 19.2484ZM26.5464 20.7578C26.9866 20.5509 26.4792 20.1683 27.8585 19.2484ZM26.5711 21.1105C27.1741 20.2473 27.4114 20.1429 28.0882 19.3653ZM26.5711 21.1105C26.6331 20.3069 27.3669 20.0486 28.0882 19.3653ZM26.5547 21.5104C25.8116 21.0875 26.5614 20.6472 28.3589 19.4349ZM26.5547 21.5104C27.0044 20.8169 27.7971 20.9363 28.3589 19.4349ZM26.5794 21.8631C26.7421 22.7159 27.1336 21.9646 28.6296 19.5046ZM26.5794 21.8631C26.9254 22.2723 26.9866 21.72 28.6296 19.5046ZM26.563 22.2629C26.1596 20.5895 27.8256 19.7741 28.8592 19.6214ZM26.563 22.2629C27.6404 22.3357 28.2887 21.1469 28.8592 19.6214ZM26.5467 22.6628C28.3238 23.0979 28.2488 20.6093 29.1299 19.6911ZM26.5467 22.6628C26.5709 22.3462 27.5846 21.1475 29.1299 19.6911ZM26.5713 23.0154C29.4837 21.7593 29.3856 20.0494 29.4006 19.7608ZM26.5713 23.0154C26.1772 21.6481 27.5579 20.7604 29.4006 19.7608ZM26.555 23.4153C27.5054 23.4688 28.2539 21.8572 29.6302 19.8776ZM26.555 23.4153C26.6111 21.9829 27.7432 20.3056 29.6302 19.8776ZM26.5797 23.768C26.8707 23.1844 28.6188 22.3145 29.9009 19.9473ZM26.5797 23.768C26.8846 23.3781 28.0377 21.9298 29.9009 19.9473ZM26.5633 24.1679C25.8613 24.4578 28.2442 24.1411 30.1716 20.017ZM26.5633 24.1679C26.3522 22.6514 27.4021 22.16 30.1716 20.017ZM26.547 24.5678C27.7057 22.0776 28.8596 20.523 30.4013 20.1338ZM26.547 24.5678C29.4966 22.4656 30.4886 20.3403 30.4013 20.1338ZM26.5716 24.9204C28.4399 23.2861 28.3166 22.9249 30.672 20.2035ZM26.5716 24.9204C27.0427 23.1713 28.4656 21.4848 30.672 20.2035ZM26.5553 25.3203C28.2979 23.7068 30.6723 21.2473 30.9427 20.2732ZM26.5553 25.3203C28.8971 24.6785 30.1703 23.1461 30.9427 20.2732ZM26.5799 25.673C27.0815 24.4761 29.8004 22.1871 31.1724 20.39ZM26.5799 25.673C28.5974 23.2435 29.7876 21.7316 31.1724 20.39ZM26.5636 26.0729C26.5809 24.3633 28.1511 22.2456 31.4431 20.4597ZM26.5636 26.0729C26.5252 23.1712 28.1937 21.4819 31.4431 20.4597ZM26.5472 26.4727C28.3233 25.7268 30.5686 23.0378 31.7137 20.5294ZM26.5472 26.4727C29.0121 25.0607 29.9734 22.8539 31.7137 20.5294ZM26.5719 26.8254C29.2952 27.436 30.9351 25.3244 31.9434 20.6462ZM26.5719 26.8254C30.3532 24.3391 31.9011 22.6293 31.9434 20.6462ZM26.5556 27.2253C26.7837 27.2235 27.1511 26.0001 32.2141 20.7159ZM26.5556 27.2253C27.6181 24.7227 29.667 22.5176 32.2141 20.7159ZM26.5802 27.5779C27.0863 24.7184 27.1234 22.3294 32.4848 20.7856ZM26.5802 27.5779C27.4859 24.7469 28.8538 22.8055 32.4848 20.7856ZM26.5639 27.9778C25.6389 25.829 27.9469 23.1998 32.7145 20.9024ZM26.5639 27.9778C28.513 26.8801 31.0467 23.545 32.7145 20.9024ZM26.5476 28.3777C27.5099 23.8213 29.2088 21.1717 32.9852 20.9721ZM26.5476 28.3777C29.4569 27.3052 31.3051 25.4286 32.9852 20.9721ZM26.5722 28.7304C27.4284 28.2788 29.3181 25.9816 33.2559 21.0418ZM26.5722 28.7304C26.2887 28.285 28.4622 26.9256 33.2559 21.0418ZM26.5559 29.1303C31.6524 26.096 32.0469 23.7734 33.4855 21.1586ZM26.5559 29.1303C26.8431 26.265 29.3255 23.3788 33.4855 21.1586ZM26.5806 29.4829C28.7402 25.4522 30.8039 21.354 33.7562 21.2283ZM26.5806 29.4829C29.0381 26.2734 31.3462 23.0571 33.7562 21.2283ZM26.5642 29.8828C29.5621 28.8011 32.7537 25.4484 34.0269 21.2979ZM26.5642 29.8828C31.2277 25.2144 33.9209 22.0091 34.0269 21.2979ZM26.5479 30.2826C29.132 25.9668 30.6016 23.1867 34.2566 21.4148ZM26.5479 30.2826C29.8002 26.8539 32.1625 24.9777 34.2566 21.4148ZM26.5726 30.6353C26.4362 30.0048 28.6442 26.367 34.5272 21.4845ZM26.5726 30.6353C30.7684 26.4955 33.8921 24.0834 34.5272 21.4845ZM26.5562 31.0352C27.9256 26.5523 28.9717 24.4662 34.7979 21.5542ZM26.5562 31.0352C30.1065 29.4728 32.9656 25.7274 34.7979 21.5542ZM26.5809 31.3879C31.3148 28.0483 32.7537 25.1906 35.0276 21.671ZM26.5809 31.3879C28.1219 29.2249 31.6513 25.6081 35.0276 21.671ZM26.5645 31.7878C31.3382 26.7083 33.3561 23.2399 35.2983 21.7407ZM26.5645 31.7878C29.296 30.1309 32.0663 27.7293 35.2983 21.7407ZM26.5482 32.1876C31.004 27.5934 33.5983 24.3287 35.569 21.8104ZM26.5482 32.1876C30.1679 29.1641 33.4131 25.7424 35.569 21.8104ZM26.5729 32.5403C27.1811 29.0649 31.0231 25.2124 35.7987 21.9272ZM26.5729 32.5403C27.3529 28.0709 30.6827 23.7238 35.7987 21.9272ZM26.5565 32.9402C30.1021 30.8118 32.9918 27.4781 36.0694 21.9969ZM26.5565 32.9402C26.9327 28.5049 30.1984 24.6934 36.0694 21.9969ZM26.5812 33.2929C27.7461 30.4778 31.3841 25.83 36.3401 22.0666ZM26.5812 33.2929C25.6363 32.2488 27.8917 29.4973 36.3401 22.0666ZM26.5648 33.6928C30.7387 32.3513 33.1376 29.7595 36.5697 22.1834ZM26.5648 33.6928C31.3451 27.8956 33.6236 25.0777 36.5697 22.1834ZM26.5485 34.0926C26.695 29.2954 29.2897 25.1051 36.8404 22.2531ZM26.5485 34.0926C30.9937 29.7623 34.4112 25.9259 36.8404 22.2531ZM26.5731 34.4453C27.4712 30.1397 30.2541 25.5098 37.1111 22.3228ZM26.5731 34.4453C30.1197 29.9748 33.5533 25.7625 37.1111 22.3228ZM26.5568 34.8451C32.9924 30.6766 36.3952 26.6086 37.3407 22.4396ZM26.5568 34.8451C32.3367 29.3522 35.899 25.6011 37.3407 22.4396ZM26.5815 35.1978C28.1099 30.984 31.3601 28.0936 37.6114 22.5093ZM26.5815 35.1978C29.1051 31.579 32.9982 27.0772 37.6114 22.5093ZM26.5651 35.5977C26.895 30.7838 30.3665 27.4223 37.8821 22.5789ZM26.5651 35.5977C32.5113 33.5021 35.853 28.8519 37.8821 22.5789ZM26.5488 35.9976C33.0702 31.3842 37.7971 28.0752 38.1118 22.6958ZM26.5488 35.9976C32.4877 33.545 36.4532 28.7575 38.1118 22.6958ZM26.5734 36.3503C31.5061 34.1086 35.1262 30.0924 38.3825 22.7655ZM26.5734 36.3503C33.7105 29.7836 38.2311 25.4439 38.3825 22.7655ZM26.5571 36.7501C32.8832 35.4695 35.4677 32.8586 38.6532 22.8351ZM26.5571 36.7501C31.466 36.1498 34.4227 32.1658 38.6532 22.8351ZM26.5817 37.1028C29.0154 32.5623 32.5117 28.8498 38.8829 22.952ZM26.5817 37.1028C29.5485 33.6071 33.3686 29.2861 38.8829 22.952ZM26.5654 37.5027C31.7477 34.592 34.9035 29.7473 39.1536 23.0217ZM26.5654 37.5027C34.5184 35.11 38.7573 29.6918 39.1536 23.0217ZM26.5491 37.9025C34.2202 33.8219 37.9976 28.9031 39.4242 23.0913ZM26.5491 37.9025C30.7772 36.7314 33.3311 33.5336 39.4242 23.0913ZM26.5737 38.2552C33.458 31.0592 39.7412 24.5435 39.6539 23.2082ZM26.5737 38.2552C27.4764 32.1592 31.7341 27.3791 39.6539 23.2082ZM26.5574 38.6551C31.1206 34.6094 35.8052 29.9786 39.9246 23.2779ZM26.5574 38.6551C32.8799 35.8744 37.1921 31.3151 39.9246 23.2779ZM26.5821 39.0078C31.5061 34.7096 34.8762 30.7806 40.1543 23.3947ZM26.5821 39.0078C29.5818 32.8161 34.5685 27.2325 40.1543 23.3947ZM26.5657 39.4076C31.166 38.4508 33.7534 34.6426 40.425 23.4644ZM26.5657 39.4076C34.1085 36.4857 38.829 31.3306 40.425 23.4644ZM26.5494 39.8075C31.9538 35.316 37.6326 29.2453 40.6957 23.5341ZM26.5494 39.8075C33.874 36.2569 38.9149 30.145 40.6957 23.5341ZM26.5741 40.1602C31.5819 34.5591 37.0121 27.8028 40.9254 23.6509ZM26.5741 40.1602C27.9615 36.6454 32.2247 32.0218 40.9254 23.6509ZM26.5577 40.5601C31.0168 40.4694 33.9438 37.0482 41.1961 23.7206ZM26.5577 40.5601C27.1692 37.6011 30.5331 33.9486 41.1961 23.7206ZM26.5824 40.9128C30.2207 33.7303 35.9569 27.4526 41.4667 23.7903ZM26.5824 40.9128C34.4479 36.1741 38.2784 31.4536 41.4667 23.7903ZM26.5661 41.3126C27.9224 34.9641 32.424 28.8763 41.6964 23.9071ZM26.5661 41.3126C33.0991 36.6436 37.4642 31.7244 41.6964 23.9071ZM26.5497 41.7124C27.92 34.0317 31.9899 29.5599 41.9671 23.9768ZM26.5497 41.7124C33.1034 38.7727 36.3636 34.5493 41.9671 23.9768ZM26.5744 42.0651C30.4419 36.7303 34.4156 31.4954 42.2377 24.0464ZM26.5744 42.0651C34.3434 36.7054 38.7506 32.2315 42.2377 24.0464ZM26.558 42.465C31.2935 40.7374 35.3611 35.8453 42.4674 24.1633ZM26.558 42.465C33.7272 36.7256 38.302 31.3986 42.4674 24.1633ZM26.5827 42.8177C36.1579 37.7926 42.8638 30.9568 42.7381 24.233ZM26.5827 42.8177C32.078 36.3404 35.3358 31.9421 42.7381 24.233ZM26.5663 43.2176C30.7964 38.3668 34.0382 34.1774 43.0088 24.3026ZM26.5663 43.2176C29.4947 40.8953 32.8979 36.9333 43.0088 24.3026ZM26.55 43.6174C30.2734 40.3074 33.6935 35.8306 43.2385 24.4195ZM26.55 43.6174C29.8864 34.9378 35.8327 28.3159 43.2385 24.4195ZM26.5747 43.9701C34.3055 39.1908 40.6106 32.6204 43.5092 24.4892ZM26.5747 43.9701C33.1167 36.7319 37.6357 31.5284 43.5092 24.4892ZM26.5583 44.37C28.1779 40.6733 32.5901 35.2519 43.7799 24.5589ZM26.5583 44.37C35.8176 35.5488 42.015 28.7576 43.7799 24.5589ZM26.542 44.7698C35.5667 40.7119 40.1634 34.5729 43.7225 25.0059ZM26.542 44.7698C31.7314 43.4432 35.2459 38.9964 43.7225 25.0059ZM26.5666 45.1226C30.7227 34.5882 37.1776 26.5888 43.7062 25.4058ZM26.5666 45.1226C36.5062 38.1573 43.6488 30.0881 43.7062 25.4058ZM26.5503 45.5224C28.5065 41.4703 31.6121 36.979 43.6898 25.8056ZM26.5503 45.5224C34.0139 38.855 38.2201 33.7873 43.6898 25.8056ZM26.698 45.7336C27.8192 42.5966 33.2091 36.5223 43.6735 26.2054ZM26.698 45.7336C29.3144 43.5313 33.2988 38.848 43.6735 26.2054ZM27.1737 45.5674C31.4051 36.7336 37.1111 30.3473 43.6161 26.6525ZM27.1737 45.5674C36.1532 41.5079 42.661 34.17 43.6161 26.6525ZM27.6084 45.4484C29.0996 38.119 32.0922 34.5098 43.5998 27.0524ZM27.6084 45.4484C30.7841 42.6371 35.4573 37.1855 43.5998 27.0524ZM28.0841 45.2823C28.4111 43.7024 31.8369 39.784 43.5835 27.4523ZM28.0841 45.2823C27.9977 43.3447 31.5154 39.0716 43.5835 27.4523ZM28.5187 45.1633C28.4162 41.9683 31.7797 38.1761 43.5671 27.8521ZM28.5187 45.1633C32.9252 42.8606 36.4829 38.4176 43.5671 27.8521ZM28.9945 44.9971C29.0242 42.0828 33.1362 37.5897 43.5098 28.2991ZM28.9945 44.9971C32.9423 37.911 37.2255 33.5914 43.5098 28.2991ZM29.4292 44.8781C37.8198 41.5814 43.0261 35.9723 43.3704 28.8405ZM29.4292 44.8781C29.0804 43.7685 32.8247 39.8027 43.3704 28.8405ZM30.0279 44.5704C36.2141 42.1681 40.8856 36.6844 43.2721 29.3347ZM30.0279 44.5704C30.3546 39.5688 34.3595 34.9731 43.2721 29.3347ZM30.6676 44.2156C36.8363 36.2409 41.3781 30.79 43.1327 29.8761ZM30.6676 44.2156C37.0676 36.0012 41.9652 30.5329 43.1327 29.8761ZM31.3073 43.8607C37.4511 38.4283 41.3464 32.9924 42.9934 30.4174ZM31.3073 43.8607C32.5319 38.6639 36.3893 33.9549 42.9934 30.4174ZM31.9061 43.553C34.7373 43.0061 37.2875 39.8434 42.8541 30.9588ZM31.9061 43.553C34.5521 37.6584 39.0777 33.2924 42.8541 30.9588ZM32.5457 43.1982C38.2428 39.189 41.2114 36.1049 42.7147 31.5002ZM32.5457 43.1982C32.5209 38.9314 35.8168 35.617 42.7147 31.5002ZM33.1855 42.8433C34.0686 42.8427 37.0785 39.2459 42.5343 32.0887ZM33.1855 42.8433C36.154 40.8804 38.5464 37.6063 42.5343 32.0887ZM33.7842 42.5356C37.5691 38.4041 40.3867 34.8812 42.1489 32.9131ZM33.7842 42.5356C36.7896 39.5516 38.9196 37.2748 42.1489 32.9131ZM35.039 41.4733C33.3346 37.5167 35.6146 35.8776 41.7636 33.7375ZM35.039 41.4733C38.2424 38.3013 39.7167 36.1412 41.7636 33.7375ZM36.4167 40.2694C39.3141 35.9975 41.9976 34.4322 41.3782 34.5619ZM36.4167 40.2694C36.5814 36.5732 38.2256 34.6543 41.3782 34.5619ZM37.8356 39.0183C39.0726 38.1669 40.5501 37.3873 40.7878 35.6221ZM37.8356 39.0183C38.1476 37.3749 39.3671 36.8046 40.7878 35.6221Z" stroke="#4A45AA" stroke-width="0.17" stroke-linecap="round"/>
<path d="M26.5624 45.7489C28.2588 37.7168 27.8438 29.2189 26.5624 18.8341M26.5624 45.7489C25.9436 37.2446 25.6007 28.3255 26.5624 18.8341M26.5624 45.7489C27.6526 45.1111 28.6589 46.2094 29.3779 44.8481M26.5624 45.7489C27.5348 46.2236 28.4085 45.2871 29.3779 44.8481M26.5624 18.8341C30.0016 22.196 34.1878 24.7248 43.7499 24.5633M26.5624 18.8341C32.4771 22.9145 38.3206 25.0507 43.7499 24.5633M43.7499 24.5633C43.9393 24.5934 43.8233 24.8143 43.7499 24.9817M43.7499 24.5633C43.7098 24.8183 43.7231 24.82 43.7499 24.9817M43.7499 24.9817C44.6321 36.6251 34.0243 42.8891 29.3779 44.8481M43.7499 24.9817C43.1512 37.5787 34.2404 42.522 29.3779 44.8481" stroke="#4A45AA" stroke-width="0.17" stroke-linecap="round"/>
<path d="M26.5598 4.7035C26.5054 4.27944 26.7469 4.19837 26.8058 4.42044ZM26.5598 4.7035C26.4012 4.61844 26.511 4.771 26.8058 4.42044ZM26.5434 5.10331C26.6687 5.34894 26.4088 4.91537 27.0765 4.49012ZM26.5434 5.10331C26.594 4.91081 27.1427 4.36019 27.0765 4.49012ZM26.5681 5.45606C25.6869 4.51987 26.6418 4.53819 27.3472 4.55981ZM26.5681 5.45606C26.9064 5.32631 26.6599 4.83731 27.3472 4.55981ZM26.5518 5.85587C26.455 4.8615 26.9492 6.00581 27.5769 4.67669ZM26.5518 5.85587C27.0332 5.88606 26.6279 6.01656 27.5769 4.67669ZM26.5764 6.20856C26.5044 6.20637 27.2693 4.6465 27.8475 4.74631ZM26.5764 6.20856C27.7946 6.03087 27.4146 5.12769 27.8475 4.74631ZM26.5601 6.60844C27.4904 5.08762 27.3017 5.30606 28.1182 4.816ZM26.5601 6.60844C26.3107 5.83562 26.803 5.18987 28.1182 4.816ZM26.5437 7.00831C28.4363 7.2625 27.789 6.91075 28.3479 4.93287ZM26.5437 7.00831C28.1389 6.01606 28.8035 5.18419 28.3479 4.93287ZM26.5684 7.361C27.6071 7.55594 27.802 6.261 28.6186 5.00256ZM26.5684 7.361C26.5375 6.67262 27.6465 5.6025 28.6186 5.00256ZM26.552 7.76087C27.4875 6.85869 29.078 5.77369 28.8893 5.07219ZM26.552 7.76087C27.4494 6.87025 28.7486 6.37512 28.8893 5.07219ZM26.5767 8.11356C28.0219 8.17081 27.8078 6.40444 29.119 5.18906ZM26.5767 8.11356C27.5235 7.39969 27.6952 6.918 29.119 5.18906ZM26.5604 8.51344C27.9441 7.55681 28.7139 6.93844 29.3897 5.25875ZM26.5604 8.51344C28.1194 6.78519 28.1927 6.63819 29.3897 5.25875ZM26.544 8.91325C27.5117 8.01556 27.3635 7.29119 29.6604 5.32844ZM26.544 8.91325C27.6481 7.63825 28.243 7.06287 29.6604 5.32844ZM26.5687 9.266C28.3004 7.41819 28.5774 5.74219 29.89 5.44525ZM26.5687 9.266C27.7201 7.06819 28.6022 5.32106 29.89 5.44525ZM26.5524 9.66581C28.9976 10.122 29.6891 8.58119 30.1607 5.51494ZM26.5524 9.66581C29.288 8.41881 30.1891 6.67512 30.1607 5.51494ZM26.577 10.0185C27.306 9.10062 30.004 8.69112 30.4314 5.58462ZM26.577 10.0185C28.9372 8.82481 30.8053 7.59075 30.4314 5.58462ZM26.5607 10.4184C27.1905 8.65925 27.5585 6.6165 30.702 5.65431ZM26.5607 10.4184C26.5933 9.09187 27.9267 7.04475 30.702 5.65431ZM26.5444 10.8182C27.7424 9.30825 29.4909 7.04531 30.9317 5.77112ZM26.5444 10.8182C27.8725 8.50306 28.8364 7.4825 30.9317 5.77112ZM26.569 11.1709C26.512 10.7834 28.6017 8.68694 31.2024 5.84081ZM26.569 11.1709C28.8679 8.58662 29.6041 7.10769 31.2024 5.84081ZM26.5527 11.5708C29.6956 8.65769 31.7797 5.86569 31.4731 5.9105ZM26.5527 11.5708C27.8157 11.2194 29.523 8.996 31.4731 5.9105ZM26.5774 11.9235C26.7572 12.2024 28.1785 10.3792 31.7028 6.02731ZM26.5774 11.9235C28.961 9.20262 30.209 7.40156 31.7028 6.02731ZM26.561 12.3234C24.9025 10.3202 27.5685 8.05487 31.9735 6.097ZM26.561 12.3234C28.598 10.6086 29.7769 9.26937 31.9735 6.097ZM26.5447 12.7232C27.8431 11.8307 28.9476 11.2792 32.2442 6.16669ZM26.5447 12.7232C27.5973 12.48 29.6043 10.6586 32.2442 6.16669ZM26.5693 13.0759C30.5819 12.1615 32.2224 8.53912 32.4739 6.2835ZM26.5693 13.0759C30.1842 12.1597 32.236 10.097 32.4739 6.2835ZM26.553 13.4757C30.3248 13.8058 31.9682 12.0557 32.7445 6.35319ZM26.553 13.4757C27.6342 9.94094 29.135 7.35212 32.7445 6.35319ZM26.5777 13.8284C28.3885 11.0473 30.2082 8.53837 33.0152 6.42287ZM26.5777 13.8284C31.0035 12.1806 32.5939 10.6047 33.0152 6.42287ZM26.5613 14.2283C27.9587 14.2436 29.132 10.7299 33.2449 6.53975ZM26.5613 14.2283C29.1739 10.1979 30.9541 8.05756 33.2449 6.53975ZM26.545 14.6282C29.0079 10.5587 33.4637 7.25869 33.5156 6.60937ZM26.545 14.6282C29.7574 12.2322 31.4395 9.76394 33.5156 6.60937ZM26.5696 14.9809C27.0038 12.8829 28.0545 11.1609 33.7863 6.67906ZM26.5696 14.9809C30.9051 13.0258 32.3155 11.073 33.7863 6.67906ZM26.5533 15.3807C31.918 14.5321 34.9927 9.99125 34.016 6.79594ZM26.5533 15.3807C26.0995 15.795 26.9133 13.4721 34.016 6.79594ZM26.701 15.5919C29.1112 13.6287 31.2344 10.3596 34.2867 6.86562ZM26.701 15.5919C26.1164 14.8648 27.4342 13.4573 34.2867 6.86562ZM26.9717 15.6616C28.5817 14.5244 32.828 10.7391 34.5573 6.93525ZM26.9717 15.6616C27.3827 13.8891 30.1526 10.2205 34.5573 6.93525ZM27.2013 15.7784C27.7512 12.5773 28.557 9.45125 34.787 7.05212ZM27.2013 15.7784C27.3952 13.6179 29.5106 11.3289 34.787 7.05212ZM27.472 15.8481C28.7182 13.4116 30.1502 11.0147 35.0577 7.12181ZM27.472 15.8481C32.5332 12.3924 34.1213 10.1493 35.0577 7.12181ZM27.7427 15.9178C29.3547 10.8517 31.4869 7.76525 35.3284 7.19144ZM27.7427 15.9178C32.5201 14.5044 35.1008 11.0711 35.3284 7.19144ZM27.9724 16.0346C28.0214 12.7991 29.8336 9.972 35.558 7.30831ZM27.9724 16.0346C28.2797 9.96237 30.9415 6.89012 35.558 7.30831ZM28.243 16.1043C30.8005 13.0064 32.2114 9.38787 35.8287 7.378ZM28.243 16.1043C28.3135 10.8699 30.7445 7.91094 35.8287 7.378ZM28.5137 16.174C30.2093 10.7003 34.1774 7.899 36.0994 7.44769ZM28.5137 16.174C30.0022 13.3692 32.4228 10.5792 36.0994 7.44769ZM28.7434 16.2908C33.0062 14.2675 35.2366 12.1502 36.3291 7.5645ZM28.7434 16.2908C28.7818 13.3973 31.8987 10.4223 36.3291 7.5645ZM29.0141 16.3605C31.3539 15.3566 34.1114 13.2503 36.5998 7.63419ZM29.0141 16.3605C33.3246 13.0072 35.0322 10.4672 36.5998 7.63419ZM29.2848 16.4302C29.7657 11.5114 33.606 8.74337 36.8705 7.70387ZM29.2848 16.4302C31.2561 11.2426 34.7519 7.4715 36.8705 7.70387ZM29.5145 16.5471C35.5711 12.0393 37.5207 9.50444 37.1002 7.82069ZM29.5145 16.5471C35.5391 10.7551 38.1443 7.881 37.1002 7.82069ZM29.7852 16.6167C35.3364 13.9662 36.7489 11.7257 37.3709 7.89037ZM29.7852 16.6167C29.7197 13.8262 31.2336 12.0432 37.3709 7.89037ZM30.0559 16.6864C32.5217 15.4112 33.6135 12.8017 37.6415 7.96006ZM30.0559 16.6864C32.9325 15.2703 34.5181 13.7076 37.6415 7.96006ZM30.2855 16.8032C36.1544 11.4909 36.9362 9.37362 37.8712 8.07687ZM30.2855 16.8032C32.1393 13.0904 34.4649 10.9359 37.8712 8.07687ZM30.5562 16.8729C30.3907 13.3033 32.4199 10.5836 38.1419 8.14656ZM30.5562 16.8729C31.5687 12.0189 33.3657 10.029 38.1419 8.14656ZM30.8269 16.9426C30.7806 13.3509 34.2779 9.75387 38.4126 8.21625ZM30.8269 16.9426C32.9545 15.1947 35.2837 12.6473 38.4126 8.21625ZM31.0565 17.0594C32.8765 16.698 34.4009 13.4899 38.6422 8.33312ZM31.0565 17.0594C35.2099 11.5204 38.277 8.56587 38.6422 8.33312ZM31.3272 17.1291C34.112 15.1054 36.9632 12.5394 38.8719 8.44994ZM31.3272 17.1291C32.1745 12.9571 34.8944 9.90744 38.8719 8.44994ZM31.5979 17.1988C33.911 12.8118 35.5832 9.08969 39.1016 8.56681ZM31.5979 17.1988C33.2455 16.8917 34.8237 14.597 39.1016 8.56681ZM31.8276 17.3156C33.3297 17.0083 33.9339 14.1387 39.3313 8.68362ZM31.8276 17.3156C31.731 12.7887 34.1102 11.0483 39.3313 8.68362ZM32.0983 17.3853C35.4454 13.6186 36.9722 9.68206 39.561 8.8005ZM32.0983 17.3853C34.168 13.9654 36.7741 10.9108 39.561 8.8005ZM32.369 17.455C32.6198 18.0574 34.9355 14.6805 39.7907 8.91731ZM32.369 17.455C34.0158 15.7334 35.913 13.035 39.7907 8.91731ZM32.5987 17.5718C33.561 15.9476 34.7652 12.6006 40.0204 9.03419ZM32.5987 17.5718C32.7398 14.9474 34.8172 13.2699 40.0204 9.03419ZM32.8694 17.6415C36.707 14.3694 38.9242 11.0292 40.25 9.151ZM32.8694 17.6415C36.005 14.3512 38.1835 12.1437 40.25 9.151ZM33.14 17.7112C37.6592 13.7675 39.8217 10.3131 40.4797 9.26787ZM33.14 17.7112C34.0809 16.5952 36.5757 13.0972 40.4797 9.26787ZM33.3697 17.828C36.6775 12.0434 37.3592 10.2408 40.7094 9.38469ZM33.3697 17.828C34.3114 14.6469 36.6339 11.2171 40.7094 9.38469ZM33.6404 17.8977C36.967 17.7421 38.5487 15.633 40.939 9.50156ZM33.6404 17.8977C32.77 16.6256 35.2201 13.8179 40.939 9.50156ZM33.9111 17.9674C34.3614 15.3213 36.0908 12.083 41.1687 9.61837ZM33.9111 17.9674C36.1751 14.3694 38.6399 11.3327 41.1687 9.61837ZM34.1408 18.0842C39.4335 13.729 41.7801 10.5414 41.4394 9.68806ZM34.1408 18.0842C33.8557 14.5797 36.0072 12.5594 41.4394 9.68806ZM34.4115 18.1539C34.8859 16.9587 37.1348 13.8672 41.6691 9.80494ZM34.4115 18.1539C37.2035 16.0591 38.5412 14.5945 41.6691 9.80494ZM34.6822 18.2236C39.7355 15.3596 42.2094 11.6807 41.8988 9.92175ZM34.6822 18.2236C35.3967 12.8191 38.5388 10.2217 41.8988 9.92175ZM34.9119 18.3404C38.8752 13.6867 40.0247 12.4288 42.1285 10.0386ZM34.9119 18.3404C38.4005 14.7873 41.132 11.8437 42.1285 10.0386ZM35.1825 18.4101C37.131 18.0396 37.779 14.6106 42.3582 10.1554ZM35.1825 18.4101C36.9392 17.0629 38.7704 14.3953 42.3582 10.1554ZM35.4532 18.4797C38.2181 16.0833 39.9937 11.6821 42.5879 10.2723ZM35.4532 18.4797C39.6517 17.6158 40.6713 15.2465 42.5879 10.2723ZM35.6829 18.5966C36.2357 14.8497 37.4628 12.9204 42.8175 10.3891ZM35.6829 18.5966C38.4103 17.5939 40.9881 15.714 42.8175 10.3891ZM35.9535 18.6663C38.411 16.7958 40.8754 15.2874 42.8832 10.6947ZM35.9535 18.6663C41.5418 17.0548 43.6718 13.7828 42.8832 10.6947ZM36.2242 18.736C41.3537 14.2467 43.5679 12.7191 42.9899 10.953ZM36.2242 18.736C37.9637 14.8491 39.6432 12.3287 42.9899 10.953ZM36.4539 18.8528C38.438 14.0093 40.5262 11.8981 43.0555 11.2586ZM36.4539 18.8528C35.8585 19.1336 37.2147 17.4654 43.0555 11.2586ZM36.7246 18.9225C38.6306 19.1483 39.5475 18.0791 43.1212 11.5641ZM36.7246 18.9225C36.5285 14.8227 38.708 13.2487 43.1212 11.5641ZM36.9543 19.0393C40.9417 17.8202 42.7791 16.7642 43.2279 11.8224ZM36.9543 19.0393C38.6168 17.3885 40.6861 14.6189 43.2279 11.8224ZM37.225 19.109C38.8403 16.9758 41.1532 14.4125 43.2935 12.1279ZM37.225 19.109C37.1656 17.252 38.8032 14.8459 43.2935 12.1279ZM37.4957 19.1787C36.485 17.6323 39.1857 15.7196 43.3592 12.4335ZM37.4957 19.1787C39.2153 16.3627 41.4567 14.4649 43.3592 12.4335ZM37.7254 19.2956C39.9404 16.2687 42.1596 13.2887 43.4659 12.6918ZM37.7254 19.2956C40.2157 15.8862 42.3909 13.5091 43.4659 12.6918ZM37.996 19.3652C37.3525 15.8775 40.0942 14.1492 43.5315 12.9974ZM37.996 19.3652C41.5398 16.5345 43.3911 14.4273 43.5315 12.9974ZM38.2667 19.4349C40.8331 18.4957 42.5367 15.2929 43.5972 13.3029ZM38.2667 19.4349C42.559 16.4372 43.9596 14.2026 43.5972 13.3029ZM38.4964 19.5517C39.9634 19.2674 41.837 16.8167 43.6219 13.6556ZM38.4964 19.5517C41.3962 15.5788 43.6182 13.3931 43.6219 13.6556ZM38.7671 19.6214C41.2947 18.4157 41.6532 18.0537 43.6465 14.0082ZM38.7671 19.6214C40.7729 17.7647 42.5562 16.0115 43.6465 14.0082ZM39.0378 19.6911C39.24 19.7018 42.1229 17.0259 43.6712 14.3609ZM39.0378 19.6911C42.199 18.1692 43.3165 16.3754 43.6712 14.3609ZM39.2674 19.8079C41.2767 17.1425 42.588 15.9642 43.6549 14.7608ZM39.2674 19.8079C40.0331 19.4907 41.1294 17.5057 43.6549 14.7608ZM39.5381 19.8776C40.8323 17.3904 42.0495 16.3361 43.6795 15.1135ZM39.5381 19.8776C41.4955 18.6723 42.8472 17.6786 43.6795 15.1135ZM39.8088 19.9473C42.0019 18.4435 42.3577 16.7842 43.6632 15.5134ZM39.8088 19.9473C41.1751 19.1727 42.4967 17.1078 43.6632 15.5134ZM40.0385 20.0641C40.4109 21.1815 40.1305 18.7811 43.6879 15.8661ZM40.0385 20.0641C40.4994 17.4446 40.7976 16.7477 43.6879 15.8661ZM40.3092 20.1338C40.7469 18.1454 41.5789 16.6636 43.6715 16.2659ZM40.3092 20.1338C41.0744 18.9641 42.5388 17.7036 43.6715 16.2659ZM40.5799 20.2035C41.6893 20.1041 43.7395 19.3043 43.6962 16.6186ZM40.5799 20.2035C40.578 19.9372 41.9869 18.1351 43.6962 16.6186ZM40.8095 20.3203C42.3981 19.2085 43.5783 18.0361 43.7208 16.9713ZM40.8095 20.3203C41.5452 19.1717 42.2002 18.206 43.7208 16.9713ZM41.0802 20.39C40.5562 18.8827 41.1242 18.5987 43.7045 17.3712ZM41.0802 20.39C42.3407 18.9575 43.562 17.3535 43.7045 17.3712ZM41.3509 20.4597C42.4542 19.8176 41.739 20.1528 43.7291 17.7239ZM41.3509 20.4597C41.6539 19.1976 42.8176 17.4332 43.7291 17.7239ZM41.5806 20.5765C40.8564 20.1339 42.4429 19.6511 43.7128 18.1237ZM41.5806 20.5765C42.3814 19.8294 42.6094 18.8156 43.7128 18.1237ZM41.8513 20.6462C42.9342 20.2562 44.647 19.3112 43.7375 18.4764ZM41.8513 20.6462C42.3464 20.3947 43.3064 19.3042 43.7375 18.4764ZM42.122 20.7159C42.9179 19.4347 42.3444 19.7471 43.7211 18.8762ZM42.122 20.7159C42.9679 20.8579 43.1614 20.1327 43.7211 18.8762ZM42.3517 20.8327C43.6902 19.5955 42.5993 19.9557 43.7458 19.2289ZM42.3517 20.8327C42.6213 20.4757 43.2005 20.0159 43.7458 19.2289ZM42.6224 20.9024C41.7249 20.8761 43.2463 19.5146 43.7294 19.6288ZM42.6224 20.9024C43.1473 20.6017 43.982 20.0189 43.7294 19.6288ZM42.893 20.9721C42.8053 21.7369 42.8936 20.5764 43.7541 19.9815ZM42.893 20.9721C43.4391 20.3206 43.4177 20.1789 43.7541 19.9815ZM43.1227 21.0889C43.724 20.2278 43.8749 20.3456 43.7787 20.3342ZM43.1227 21.0889C43.4282 21.3156 43.9377 21.2162 43.7787 20.3342ZM43.3934 21.1586C43.7195 21.0843 43.5453 20.6767 43.7624 20.7341ZM43.3934 21.1586C43.4276 21.0232 43.8835 20.9111 43.7624 20.7341ZM43.664 21.2282C43.5697 21.1116 43.8126 21.2362 43.7871 21.0867ZM43.664 21.2282C43.8145 21.1011 43.7764 21.054 43.7871 21.0867Z" stroke="#4A45AA" stroke-width="0.17" stroke-linecap="round"/>
<path d="M26.5625 15.5401C26.9163 12.6429 27.8875 8.95437 26.5625 4.31925M26.5625 15.5401C25.8125 12.2229 25.8269 9.32837 26.5625 4.31925M26.5625 15.5401C32.8426 16.2552 38.2588 18.1867 43.75 21.2694M26.5625 15.5401C34.8335 13.7596 39.1759 15.5109 43.75 21.2694M26.5625 4.31925C27.3886 5.36931 28.8427 5.89187 31.5881 5.84281M26.5625 4.31925C27.7464 5.46425 29.1677 4.39194 31.5881 5.84281M31.5881 5.84281C32.8633 6.13306 32.2796 5.21462 32.7814 6.25131M31.5881 5.84281C31.6228 6.28556 32.3173 6.56206 32.7814 6.25131M32.7814 6.25131C39.8907 8.41519 41.3232 10.2959 42.9635 10.588M32.7814 6.25131C39.069 8.83756 41.8488 9.39225 42.9635 10.588M42.9635 10.588C44.1216 11.1463 44.2312 14.6862 43.75 21.2694M42.9635 10.588C43.5392 11.6464 44.3795 13.8998 43.75 21.2694" stroke="#4A45AA" stroke-width="0.17" stroke-linecap="round"/>
</svg>
