<svg width="761" height="45" viewBox="0 0 761 45" fill="none" xmlns="http://www.w3.org/2000/svg">
<path d="M7.99551 0.343273C12.2642 -0.00425027 17.8363 0.59407 22.0645 1.33881C23.3897 1.57009 22.6962 2.45595 23.6101 2.65617C25.3974 3.04661 27.0798 2.64217 28.8445 3.09914C29.4292 3.25499 28.6655 4.66567 29.2793 4.79641C32.6434 5.50265 35.8475 5.21065 39.2629 5.59055C56.0861 7.46426 72.6438 8.37059 89.6921 9.40246C95.3134 9.74147 102.124 11.1896 107.947 10.7532C108.627 10.701 108.251 9.43932 108.382 9.33897C110.442 7.80379 109.712 10.3174 111.027 10.683C116.243 12.1269 122.074 12.3727 127.133 12.0022C129.286 11.841 127.188 9.30482 129.319 10.7497C129.467 10.8474 128.893 12.1653 129.479 12.3204C130.807 12.6694 133.347 12.4883 134.38 12.6168C136.37 12.8713 136.701 12.8653 138.587 12.9227C141.167 13.0127 144.22 13.7425 146.995 13.503C147.587 13.448 146.836 12.0669 147.783 11.856C148.731 11.6454 151.224 11.8168 152.058 12.1571C152.892 12.4975 152.51 13.5612 152.653 13.8102C153.832 15.911 156.782 13.1039 157.155 13.0412C163.952 11.9825 169.721 13.7483 176.077 13.8858C180.902 13.9867 186.073 13.562 190.662 13.7388C196.129 13.9546 200.748 14.7972 206.064 14.789C206.625 14.7897 206.003 13.1718 206.689 13.1694C213.969 13.1456 221.191 13.482 228.411 14.7264C229.136 14.8526 228.168 16.2393 228.889 16.4495C233.308 17.7058 240.278 20.642 243.054 14.5724C246.059 14.879 249.709 15.208 252.374 16.5037C254.093 17.3377 252.372 18.8334 254.52 18.2268C255.004 18.0918 254.409 16.7348 255.133 16.6339C258.182 16.2102 261.49 16.721 264.511 16.0943C265.125 15.9637 264.986 14.7567 265.164 14.5438C266.658 12.8215 269.016 15.7766 269.54 15.9993C273.527 17.6611 276.478 17.1082 280.224 17.2304C281.094 17.2595 280.102 15.6201 280.94 15.59C285.285 15.4554 289.777 15.6949 294.01 16.5072C294.951 16.6917 294.051 18.0491 294.5 18.2078C296.477 18.8905 296.977 16.2999 298.874 16.9045C299.274 17.0286 299.021 18.2022 299.092 18.3333C300.196 20.391 301.259 17.5341 301.556 17.4772C305.316 16.6923 307.639 19.7515 311.262 19.4067C311.695 19.3625 310.754 17.8493 311.97 17.816C320.074 17.5854 328.627 18.1866 336.613 19.5587C337.854 19.77 336.94 20.8704 337.015 21.0103C338.245 23.1968 339.136 20.3239 339.545 20.2241C342.767 19.512 345.707 22.0037 347.961 18.6086C361.506 20.1073 375.06 18.4756 388.451 21.8619C388.621 21.9015 388.282 23.3186 388.622 23.3914C392.716 24.2829 391.976 22.0521 394.756 19.4063C395.457 18.7419 397.468 22.0564 397.647 22.3001C398.3 23.1979 397.555 25.3008 397.776 25.4768C399.608 26.8608 399.462 19.848 401.974 19.9019C402.052 19.9153 401.693 21.1975 401.901 21.3304C402.547 21.7476 403.208 21.2497 403.839 21.708C405.283 22.7679 405.729 26.1839 408.014 24.2528C408.303 24.002 407.959 20.0181 410.198 20.256C411.09 20.3543 415.049 20.3747 416.152 20.657C417.254 20.939 416.465 22.2027 416.543 22.2599C419.49 24.0201 418.342 24.6966 419.782 27.2372C421.221 29.7684 420.94 23.8019 421.564 23.1506C422.19 22.5012 424.347 23.9474 424.874 24.4451C425.401 24.9431 424.712 25.7419 425.184 26.0275C428.313 27.895 426.641 23.1017 427.706 22.1796C430.218 19.9959 432.037 24.4566 434.281 24.9399C434.888 25.0705 434.413 24.0532 434.958 23.9712C437.117 23.66 438.38 25.0674 440.855 23.8582C441.26 23.6612 443.297 21.0492 444.534 23.0272C444.709 23.3123 444.169 24.4017 445.081 24.6688C446.441 25.0695 448.903 25.3654 450.383 25.0303C451.476 24.7823 450.271 22.9404 451.626 23.5345C452.229 23.7997 451.078 24.8358 452.212 25.2455C453.339 25.655 456.245 25.6734 457.351 25.6615C458.455 25.6487 457.882 24.2591 457.973 24.1684C458.525 23.6495 460.657 23.0333 460.844 23.0391C470.286 23.0823 478.937 25.5964 488.144 25.0343C488.866 24.9921 488.418 23.5303 488.529 23.5089C491.011 22.9562 488.978 26.7707 490.674 28.1006C490.491 25.1504 491.497 25.7064 493.243 25.4223C494.085 25.2831 493.654 24.1327 493.733 24.0176C495.014 22.3136 495.829 24.5698 496.042 25.0324C496.828 26.7341 497.768 24.7652 498.303 25.9029C498.837 27.0321 497.512 28.6588 499.18 28.6749C499.672 27.6313 498.495 24.849 499.771 24.4309C504.587 22.849 513.457 25.2098 517.293 25.5202C521.122 25.8303 522.364 25.6635 524.59 26.0944C528.609 26.8735 527.176 24.7967 529.703 23.9172C532.237 23.0381 530.902 28.0393 531.24 29.1284C531.57 30.2169 531.982 29.1132 532.41 29.7171C532.836 30.3208 531.868 31.0345 532.897 31.2806C533.927 31.5265 536.798 29.6675 537.19 28.5454C538.019 26.1681 536.801 23.6263 539.518 24.5706C539.675 24.6265 539.134 25.9374 539.734 26.0845C544.5 27.2095 549.473 27.3839 554.235 28.3911C554.89 28.5317 554.269 29.9895 554.649 30.088C558.615 31.118 557.245 28.6059 559.491 25.8995C558.919 29.5552 560.077 31.8254 563.102 31.9147C564.92 31.9697 564.643 30.3613 565.844 29.259C566.205 28.9267 567.467 30.055 567.717 29.3071C568.541 26.8625 567.39 24.0796 570.485 25.2467C570.62 25.3019 570.155 26.6397 570.626 26.7319C573.67 27.3344 574.094 24.7676 577.404 24.5297C580 24.3429 584.57 26.0161 587.513 26.3375C587.359 30.4584 590.165 29.5767 591.359 26.7597C593.27 26.9189 595.34 26.8045 597.181 27.2387C597.815 27.3869 597.37 28.571 597.447 28.7018C598.633 30.7523 599.527 28.0057 599.942 27.9066C604.443 26.9529 608.043 29.1303 612.362 27.1777C612.515 27.1073 612.825 24.2493 613.92 26.3656C613.991 26.5114 612.55 27.7827 614.558 27.9284C616.566 28.0743 620.321 29.6941 623.141 28.4296C623.824 28.1253 625.584 25.839 626.914 27.6858C627.091 27.9365 626.873 28.7533 627.127 29.2162C627.946 30.6915 628.476 27.8076 629.423 30.2888C630.37 32.77 632.412 34.658 635.265 33.0245C635.355 32.9772 636.073 30.6981 636.957 30.7542C638.369 30.8457 640.364 31.3684 641.839 31.3865C642.546 31.3943 642.125 29.9597 642.249 29.9364C647.016 29.2444 650.368 30.5899 655.443 31.2549C656.374 31.3796 659.097 29.4971 660.869 31.0732C662.814 32.7987 660.62 39.7463 665.214 38.1821C667.067 37.5568 669.593 28.7368 672.793 33.4073C679.225 32.4116 685.097 34.8967 691.557 33.414C691.848 33.3484 692.816 30.8927 693.495 30.9416C694.502 31.0189 695.029 32.1886 695.748 32.281C698.757 32.697 701.539 31.7686 704.445 31.9877C705.548 32.0684 705.135 33.2564 706.45 33.3527C707.765 33.4479 708.678 31.8918 710.445 32.6927C711.779 33.303 713.054 36.5539 714.833 36.9693C714.973 33.7939 716.199 33.8868 718.401 33.097C718.824 32.9436 718.399 31.8278 718.6 31.6982C719.421 31.1464 720.148 32.0796 720.929 31.4763C721.118 31.3315 721.152 30.2468 721.308 30.0671C722.641 28.4983 724.723 30.9866 725.081 31.4198C726.451 33.065 727.14 31.6686 728.205 32.3282C729.267 32.9877 727.639 33.746 728.889 34.1598C731.479 35.0157 734.834 34.9154 737.481 35.0245C738.538 35.0613 737.849 33.597 738.001 33.5686C740.195 33.2502 742.37 34.8401 743.647 31.9824C744.995 39.4754 744.981 31.2884 748.071 32.8515C748.314 32.9778 748.548 36.5121 747.592 37.0088C746.636 37.505 745.228 36.3704 743.899 37.1483C743.585 37.3308 741.733 40.5963 741.486 40.7911C739.551 42.3134 739.399 37.0363 739.305 36.7445C738.235 33.5947 735.983 37.107 735.405 37.3402C732.762 38.4091 730.555 37.6181 728.348 38.3738C726.904 38.8619 726.687 42.3115 725.565 42.1807C721.835 41.7478 720.639 36.902 717.023 40.9995C716.248 41.8733 716.914 45.6639 714.274 42.636C714.109 42.4451 712.16 39.6855 710.961 41.3766C710.811 41.5898 710.79 42.6898 710.596 42.7778C709.294 43.3467 708.454 42.4512 707.041 42.8395C705.629 43.2277 703.927 43.8156 702.333 43.4067C701.372 43.162 700.179 41.0852 699.728 40.5732C698.454 39.0988 697.002 41.437 696.232 39.6689C695.456 37.8918 697.11 35.2564 694.997 34.0721C694.854 36.9277 694.606 39.8565 694.415 42.7273C689.73 42.5218 685.14 41.4947 680.435 41.5158C679.851 41.5212 680.413 43.0707 679.787 43.1162C677.145 43.3012 674.866 42.1546 672.122 42.5296C669.998 42.8257 667.64 44.4002 665.418 44.7605C664.139 41.4606 660.83 42.4971 658.451 42.1449C657.618 42.023 657.693 41.151 657.105 40.8528C654.887 39.749 655.873 42.6618 655.248 43.1028C652.567 44.9844 652.488 38.4395 649.375 38.5315C649.21 38.5342 647.118 41.9752 646.836 42.1861C645.042 43.5623 646.572 40.9662 645.475 40.6839C643.472 40.1682 642.091 39.3044 639.706 40.2726C639.01 40.5596 637.309 42.6955 636.009 40.9849C635.838 40.7609 635.961 39.6108 635.821 39.5402C633.282 38.358 633.134 41.977 631.641 43.1705C630.148 44.3636 627.941 41.8137 627.496 41.083C626.333 39.1926 628.438 40.3073 628.507 40.1259C629.322 37.9668 627.663 38.3045 626.406 38.0924C626.303 34.5383 624.534 34.712 625.102 37.8868C625.167 38.2337 626.156 37.9246 626.406 38.0924C625.221 41.5507 623.272 41.9535 621.204 38.6507C620.236 37.1028 621.223 35.3453 618.164 35.9279C616.776 36.1907 617.255 38.647 616.021 39.2862C613.201 40.7444 609.633 38.3832 606.753 38.6782C605.707 38.7853 606.693 40.1461 605.978 40.2654C604.079 40.5862 602.434 39.545 600.524 40.0168C600.351 40.0613 600.74 41.4713 600.149 41.4759C595.67 41.5385 591.792 40.5542 587.12 40.4248C584.862 40.3629 580.808 41.0451 578.473 40.8375C574.424 40.4859 569.483 38.3376 566.009 38.7549C563.743 39.0211 564.207 40.4331 563.218 41.366C561.309 43.1744 558.077 39.7863 557.643 39.2631C557.63 39.2458 559.581 38.9591 558.56 38.2167C557.991 36.7048 557.666 39.2571 557.643 39.2631C557.359 38.9251 553.483 38.5202 552.706 38.7708C552.284 38.9077 552.489 40.2403 552.269 40.2866C547.051 41.3583 541.842 41.5793 536.59 40.8409C536.498 40.812 536.671 39.3305 536.454 39.2811C533.42 38.5528 531.428 40.3254 528.889 41.3474C526.352 42.369 524.366 41.9634 522.935 39.3814C521.031 39.6599 518.335 38.4722 516.784 37.7535C515.234 37.0347 514.951 39.9199 514.811 39.9739C510.473 41.7065 508.026 39.9967 503.573 39.6395C501.456 39.4647 497.242 39.7899 494.94 40.0546C493.121 40.2686 492.043 39.5669 490.362 39.9626C490.135 40.0153 490.335 41.3072 490.265 41.3552C488.365 42.8531 489.332 39.7274 488.959 39.1569C487.609 37.0826 486.77 35.9752 484.36 36.8829C483.804 37.0907 482.098 41.5842 481.088 41.8267C479.775 42.1336 480.304 40.521 478.928 40.8837C478.81 40.9133 478.812 41.9154 477.969 41.8524C474.057 41.5729 469.799 40.8946 465.727 40.9039C465.17 40.9014 465.848 42.506 465.043 42.5285C461.27 42.6325 457.139 42.4812 453.484 41.6555C452.584 41.4472 453.175 40.3475 452.987 40.0129C451.827 37.9875 450.053 40.8529 449.77 40.902C443.015 42.1469 437.928 39.404 431.047 40.5018C430.672 40.5669 427.731 43.6155 426.51 40.9172C426.426 40.7376 425.22 37.9779 424.057 39.8203C423.985 39.9356 424.743 41.3594 423.368 41.1853C421.993 41.0114 419.754 41.9008 417.894 40.3135C417.305 39.8134 415.948 37.0571 414.111 39.1889C413.991 39.3379 411.119 44.1871 410.209 40.7767C410.061 40.2154 410.309 36.6336 408.132 38.4242C407.716 38.7715 408.439 39.5878 407.353 40.0632C405.689 40.796 403.528 39.7869 401.468 41.3389C401.109 41.6137 399.551 44.0138 398.387 42.1397C398.205 41.8461 398.59 40.6571 397.957 40.5089C394.943 39.7986 391.755 40.5284 388.7 39.6314C387.618 39.316 388.218 37.3933 387.094 36.8493C385.971 36.3055 383.695 35.7557 382.488 36.6134C381.28 37.4716 382.509 40.5848 380.723 40.7918C372.962 41.6906 365.339 39.7099 357.619 39.2724C356.474 39.2073 357.399 40.3321 355.71 40.3153C349.483 40.2582 338.712 41.0525 333.362 38.5866C329.076 36.6115 334.555 35.3034 331.264 34.4651C329.676 34.0648 327.869 37.6119 327.482 37.7161C323.692 38.7786 321.112 37.1317 317.713 37.5433C317.011 37.6288 317.665 39.0974 317.068 39.1541C315.029 39.3607 312.906 38.6642 310.96 38.7394C310.087 38.7764 310.223 39.89 309.422 39.7864C307.507 39.5513 305.82 39.0467 303.972 37.9645C303.804 37.8659 304.985 36.5108 303.566 36.4277C301.269 36.2971 298.439 35.207 295.771 36.2077C294.979 36.5089 294.892 39.0451 293.244 37.2554C292.899 36.8816 293.418 33.8454 291.395 36.4336C291.054 36.8636 287.675 40.34 286.106 38.0153C285.692 37.4034 284.657 34.8863 283.705 35.2569C283.576 35.3166 284.058 36.6907 283.273 36.8061C280.508 37.1892 277.623 36.9792 274.783 37.3427C274.024 37.4425 275.118 38.8777 273.989 38.9814C270.883 39.2685 267.022 38.8229 264.002 38.3138C262.889 38.1234 263.687 36.9726 263.609 36.8437C262.348 34.7469 261.513 37.5203 261.076 37.6733C258.356 38.5874 256.331 37.2305 253.836 37.5218C253.148 37.5986 253.605 38.9402 253.465 39.0557C252.022 40.1833 253.131 37.8173 252.24 37.5338C249.745 36.7318 246.942 36.7761 244.397 36.8893C243.462 36.9328 244.477 38.4992 243.638 38.5204C238.675 38.6754 233.525 38.4125 228.707 37.4537C227.799 37.2704 228.399 36.0951 228.215 35.8195C226.949 33.8917 224.974 36.4384 224.527 36.6752C222.495 37.7567 221.739 36.6886 219.963 36.8451C211.286 37.6278 200.614 36.6929 192.453 36.0803C181.819 35.2888 173.583 33.9738 163.423 34.0402C162.777 34.0429 163.393 35.638 162.836 35.6606C155.645 35.881 148.589 35.1052 141.383 35.4008C140.791 35.4222 141.609 36.9396 140.659 37.0244C138.71 37.2088 136.249 37.0723 134.294 36.5499C133.34 36.2979 134.655 35.041 133.695 34.8137C131.458 34.2814 129.052 34.1208 126.739 34.3093C125.754 34.3929 127.202 35.9584 125.925 35.9476C117.225 35.9051 108.678 35.9779 99.9338 33.7969C99.3344 33.6472 98.8754 30.5209 97.5811 31.0895C97.4652 31.9517 97.4477 32.9685 97.385 33.8915C84.7138 34.1059 72.2071 32.746 59.5153 32.295C58.9801 32.2764 59.8683 33.9473 58.8321 33.9196C52.8347 33.761 47.0001 34.0879 40.9016 32.3104C40.2965 32.1364 40.6737 29.2403 38.87 29.6392C38.5518 29.7123 35.8414 30.039 35.1287 30.6536C35.0317 30.7465 35.4943 32.1126 34.6228 32.1326C29.5588 32.2252 24.2638 31.7973 19.2317 30.8564C18.4196 30.7019 19.3199 29.2783 18.7418 29.1558C14.6406 28.2976 10.1365 29.2944 6.23055 27.8962C3.61616 26.9551 4.64718 24.4825 3.30237 21.9959C3.11214 21.645 1.48224 21.5536 1.42984 20.1232C1.29364 16.5261 2.17169 12.6103 1.93316 8.77411C1.88311 7.94785 -0.321255 8.78727 1.01669 6.82321C1.11003 6.69184 2.7086 6.06581 3.1138 5.39844C3.39585 4.93707 2.93893 3.47329 3.50645 2.88731C4.0739 2.3019 4.65553 3.53336 5.58991 2.85089C6.52408 2.1597 6.15729 0.4979 7.99551 0.343273ZM509.802 34.5397C508.383 33.1194 508.055 38.198 509.651 37.0168C509.728 36.9537 509.875 34.6095 509.802 34.5397ZM685.252 37.661C683.406 35.3765 682.036 38.6443 683.334 40.4058C684.632 42.1654 685.814 38.3536 685.252 37.661ZM704.945 36.4638C702.769 34.6464 702.259 41.847 704.664 40.4428C704.804 40.3636 705.072 36.5693 704.945 36.4638ZM9.80926 21.4419C9.79075 21.3739 8.61971 21.2819 8.59019 21.3482C7.92974 22.9487 10.2714 23.1316 9.80926 21.4419ZM724.49 35.1179C723.821 34.1274 721.804 35.2084 722.636 36.4402C723.306 37.4311 725.324 36.3501 724.49 35.1179ZM434.287 27.4226C434.265 27.3464 433.426 27.2593 433.434 27.6879C433.46 29.0683 434.638 28.7052 434.287 27.4226ZM757.644 35.7765C752.752 35.3956 749.916 29.3747 755.235 30.1659C756.198 30.3091 753.11 32.0182 754.328 32.5825C756.555 33.6109 758.133 29.9056 760.384 31.9604C760.791 32.3363 757.923 35.8115 757.635 35.7846C757.638 35.7819 757.641 35.7792 757.644 35.7765ZM509.103 28.4153C509.076 28.3474 507.914 28.2577 507.884 28.3237C507.218 29.9234 509.559 30.1052 509.103 28.4153ZM385.306 23.1823C385.245 23.0376 382.547 22.8432 382.456 22.9733C380.988 25.5808 386.442 25.9815 385.306 23.1823ZM587.557 26.4485C588.863 24.8533 590.386 24.6962 591.353 26.7575C590.094 26.6211 588.824 26.5767 587.557 26.4485Z" fill="#4A45AA"/>
</svg>
