<svg width="217" height="34" viewBox="0 0 217 34" fill="none" xmlns="http://www.w3.org/2000/svg">
<g clip-path="url(#clip0_686_892)">
<path d="M25.5846 5.53747H6.41541C5.49316 5.53747 4.74272 6.2874 4.74272 7.20922V26.7909C4.74272 27.713 5.49265 28.4635 6.41541 28.4635H25.5846C26.5067 28.4635 27.2572 27.7135 27.2572 26.7909V7.20922C27.2566 6.2874 26.5067 5.53747 25.5846 5.53747ZM6.66448 12.414L13.0409 7.51299C13.0884 7.47585 13.1447 7.45821 13.1997 7.45821C13.254 7.45821 13.309 7.47585 13.356 7.51113C13.4496 7.57982 13.4848 7.70482 13.4421 7.81371L12.1595 11.0602H19.6731C19.8164 11.0602 19.9344 11.1762 19.9328 11.3201V13.9218C19.9333 14.065 19.8164 14.1808 19.6726 14.1817L12.1589 14.1808L13.4411 17.4275C13.4837 17.536 13.4484 17.6604 13.3551 17.7309C13.2613 17.8014 13.1329 17.8014 13.0398 17.73L6.6644 12.8269C6.60028 12.777 6.56263 12.7007 6.56263 12.6199C6.56272 12.5389 6.60079 12.4629 6.66448 12.414ZM28.7213 1H3.27866C1.61929 1 0.273438 2.34576 0.273438 4.00497V29.9944C0.273438 31.6542 1.61929 33 3.27866 33H28.7216C30.3812 33 31.7269 31.6542 31.7269 29.9944V4.00497C31.7268 2.34576 30.3812 1 28.7213 1ZM28.4418 26.7909C28.4418 28.3659 27.1601 29.6481 25.5846 29.6481H6.41541C4.84025 29.6481 3.558 28.3664 3.558 26.7909V7.20922C3.558 5.63449 4.83974 4.35233 6.41541 4.35233H25.5846C27.1596 4.35233 28.4418 5.63406 28.4418 7.20922V26.7909Z" fill="#FDF7E6"/>
</g>
<path d="M44.8944 8.036L43.7184 5.866H43.6764V14H42.5284V4.228H43.8864L47.4564 10.192L48.6324 12.362H48.6744V4.228H49.8224V14H48.4644L44.8944 8.036ZM57.1449 14C56.7249 14 56.4216 13.888 56.2349 13.664C56.0576 13.44 55.9456 13.16 55.8989 12.824H55.8289C55.6702 13.272 55.4089 13.608 55.0449 13.832C54.6809 14.056 54.2469 14.168 53.7429 14.168C52.9776 14.168 52.3802 13.972 51.9509 13.58C51.5309 13.188 51.3209 12.656 51.3209 11.984C51.3209 11.3027 51.5682 10.78 52.0629 10.416C52.5669 10.052 53.3462 9.87 54.4009 9.87H55.8289V9.156C55.8289 8.64267 55.6889 8.25067 55.4089 7.98C55.1289 7.70933 54.6996 7.574 54.1209 7.574C53.6822 7.574 53.3136 7.672 53.0149 7.868C52.7256 8.064 52.4829 8.32533 52.2869 8.652L51.6149 8.022C51.8109 7.63 52.1236 7.29867 52.5529 7.028C52.9822 6.748 53.5236 6.608 54.1769 6.608C55.0542 6.608 55.7356 6.82267 56.2209 7.252C56.7062 7.68133 56.9489 8.27867 56.9489 9.044V13.02H57.7749V14H57.1449ZM53.9249 13.216C54.2049 13.216 54.4616 13.1833 54.6949 13.118C54.9282 13.0527 55.1289 12.9593 55.2969 12.838C55.4649 12.7167 55.5956 12.5767 55.6889 12.418C55.7822 12.2593 55.8289 12.0867 55.8289 11.9V10.71H54.3449C53.7009 10.71 53.2296 10.8033 52.9309 10.99C52.6416 11.1767 52.4969 11.4473 52.4969 11.802V12.096C52.4969 12.4507 52.6229 12.726 52.8749 12.922C53.1362 13.118 53.4862 13.216 53.9249 13.216ZM60.44 14L57.906 6.776H59.026L60.286 10.36L61.07 12.824H61.14L61.924 10.36L63.212 6.776H64.29L61.742 14H60.44ZM65.8747 5.082C65.632 5.082 65.4547 5.026 65.3427 4.914C65.24 4.79267 65.1887 4.63867 65.1887 4.452V4.27C65.1887 4.08333 65.24 3.934 65.3427 3.822C65.4547 3.70067 65.632 3.64 65.8747 3.64C66.1173 3.64 66.29 3.70067 66.3927 3.822C66.5047 3.934 66.5607 4.08333 66.5607 4.27V4.452C66.5607 4.63867 66.5047 4.79267 66.3927 4.914C66.29 5.026 66.1173 5.082 65.8747 5.082ZM65.3147 6.776H66.4347V14H65.3147V6.776ZM74.4847 14.798C74.4847 15.5447 74.1907 16.0907 73.6027 16.436C73.024 16.7907 72.1513 16.968 70.9847 16.968C69.8553 16.968 69.0433 16.814 68.5487 16.506C68.054 16.198 67.8067 15.7593 67.8067 15.19C67.8067 14.798 67.9093 14.49 68.1147 14.266C68.32 14.0513 68.6 13.8927 68.9547 13.79V13.636C68.5253 13.4307 68.3107 13.0947 68.3107 12.628C68.3107 12.264 68.4273 11.9887 68.6607 11.802C68.894 11.606 69.1927 11.4613 69.5567 11.368V11.312C69.1273 11.1067 68.7913 10.8127 68.5487 10.43C68.3153 10.0473 68.1987 9.604 68.1987 9.1C68.1987 8.736 68.264 8.4 68.3947 8.092C68.5253 7.784 68.7073 7.52267 68.9407 7.308C69.1833 7.084 69.468 6.91133 69.7947 6.79C70.1307 6.66867 70.504 6.608 70.9147 6.608C71.428 6.608 71.8853 6.70133 72.2867 6.888V6.762C72.2867 6.482 72.352 6.25333 72.4827 6.076C72.6133 5.88933 72.828 5.796 73.1267 5.796H74.2047V6.776H72.8327V7.238C73.094 7.462 73.2947 7.73267 73.4347 8.05C73.584 8.358 73.6587 8.708 73.6587 9.1C73.6587 9.464 73.5933 9.8 73.4627 10.108C73.332 10.416 73.1453 10.682 72.9027 10.906C72.6693 11.1207 72.3847 11.2887 72.0487 11.41C71.7127 11.5313 71.3393 11.592 70.9287 11.592C70.6953 11.592 70.462 11.5687 70.2287 11.522C69.986 11.5873 69.7667 11.6853 69.5707 11.816C69.3747 11.9373 69.2767 12.11 69.2767 12.334C69.2767 12.5487 69.3793 12.6933 69.5847 12.768C69.79 12.8427 70.056 12.88 70.3827 12.88H71.9227C72.8187 12.88 73.4673 13.0527 73.8687 13.398C74.2793 13.734 74.4847 14.2007 74.4847 14.798ZM73.4347 14.882C73.4347 14.5927 73.3227 14.3593 73.0987 14.182C72.884 14.014 72.4967 13.93 71.9367 13.93H69.5287C69.0807 14.1353 68.8567 14.462 68.8567 14.91C68.8567 15.2273 68.9733 15.498 69.2067 15.722C69.4493 15.946 69.8553 16.058 70.4247 16.058H71.4607C72.086 16.058 72.5713 15.96 72.9167 15.764C73.262 15.568 73.4347 15.274 73.4347 14.882ZM70.9287 10.696C71.4047 10.696 71.7827 10.584 72.0627 10.36C72.3427 10.1267 72.4827 9.772 72.4827 9.296V8.904C72.4827 8.428 72.3427 8.078 72.0627 7.854C71.7827 7.62067 71.4047 7.504 70.9287 7.504C70.4527 7.504 70.0747 7.62067 69.7947 7.854C69.5147 8.078 69.3747 8.428 69.3747 8.904V9.296C69.3747 9.772 69.5147 10.1267 69.7947 10.36C70.0747 10.584 70.4527 10.696 70.9287 10.696ZM80.5801 14C80.1601 14 79.8568 13.888 79.6701 13.664C79.4928 13.44 79.3808 13.16 79.3341 12.824H79.2641C79.1055 13.272 78.8441 13.608 78.4801 13.832C78.1161 14.056 77.6821 14.168 77.1781 14.168C76.4128 14.168 75.8155 13.972 75.3861 13.58C74.9661 13.188 74.7561 12.656 74.7561 11.984C74.7561 11.3027 75.0035 10.78 75.4981 10.416C76.0021 10.052 76.7815 9.87 77.8361 9.87H79.2641V9.156C79.2641 8.64267 79.1241 8.25067 78.8441 7.98C78.5641 7.70933 78.1348 7.574 77.5561 7.574C77.1175 7.574 76.7488 7.672 76.4501 7.868C76.1608 8.064 75.9181 8.32533 75.7221 8.652L75.0501 8.022C75.2461 7.63 75.5588 7.29867 75.9881 7.028C76.4175 6.748 76.9588 6.608 77.6121 6.608C78.4895 6.608 79.1708 6.82267 79.6561 7.252C80.1415 7.68133 80.3841 8.27867 80.3841 9.044V13.02H81.2101V14H80.5801ZM77.3601 13.216C77.6401 13.216 77.8968 13.1833 78.1301 13.118C78.3635 13.0527 78.5641 12.9593 78.7321 12.838C78.9001 12.7167 79.0308 12.5767 79.1241 12.418C79.2175 12.2593 79.2641 12.0867 79.2641 11.9V10.71H77.7801C77.1361 10.71 76.6648 10.8033 76.3661 10.99C76.0768 11.1767 75.9321 11.4473 75.9321 11.802V12.096C75.9321 12.4507 76.0581 12.726 76.3101 12.922C76.5715 13.118 76.9215 13.216 77.3601 13.216ZM83.9846 14C83.5926 14 83.294 13.8927 83.0886 13.678C82.8926 13.454 82.7946 13.1647 82.7946 12.81V7.756H81.6046V6.776H82.2766C82.5193 6.776 82.6826 6.72933 82.7666 6.636C82.86 6.53333 82.9066 6.36067 82.9066 6.118V4.774H83.9146V6.776H85.4966V7.756H83.9146V13.02H85.3846V14H83.9846ZM89.5382 14.168C89.0435 14.168 88.5955 14.0793 88.1942 13.902C87.8022 13.7247 87.4615 13.4727 87.1722 13.146C86.8922 12.81 86.6728 12.4133 86.5142 11.956C86.3648 11.4893 86.2902 10.9667 86.2902 10.388C86.2902 9.81867 86.3648 9.30067 86.5142 8.834C86.6728 8.36733 86.8922 7.97067 87.1722 7.644C87.4615 7.308 87.8022 7.05133 88.1942 6.874C88.5955 6.69667 89.0435 6.608 89.5382 6.608C90.0235 6.608 90.4575 6.69667 90.8402 6.874C91.2228 7.05133 91.5495 7.29867 91.8202 7.616C92.0908 7.924 92.2962 8.29267 92.4362 8.722C92.5855 9.15133 92.6602 9.62267 92.6602 10.136V10.668H87.4662V11.004C87.4662 11.312 87.5128 11.6013 87.6062 11.872C87.7088 12.1333 87.8488 12.362 88.0262 12.558C88.2128 12.754 88.4368 12.908 88.6982 13.02C88.9688 13.132 89.2722 13.188 89.6082 13.188C90.0655 13.188 90.4622 13.0807 90.7982 12.866C91.1435 12.6513 91.4095 12.3433 91.5962 11.942L92.3942 12.516C92.1608 13.0107 91.7968 13.412 91.3022 13.72C90.8075 14.0187 90.2195 14.168 89.5382 14.168ZM89.5382 7.546C89.2302 7.546 88.9502 7.602 88.6982 7.714C88.4462 7.81667 88.2268 7.966 88.0402 8.162C87.8628 8.358 87.7228 8.59133 87.6202 8.862C87.5175 9.12333 87.4662 9.41267 87.4662 9.73V9.828H91.4562V9.674C91.4562 9.03 91.2788 8.51667 90.9242 8.134C90.5788 7.742 90.1168 7.546 89.5382 7.546ZM98.5703 14C98.1783 14 97.8797 13.8927 97.6743 13.678C97.4783 13.454 97.3803 13.1647 97.3803 12.81V7.756H96.1903V6.776H96.8623C97.105 6.776 97.2683 6.72933 97.3523 6.636C97.4457 6.53333 97.4923 6.36067 97.4923 6.118V4.774H98.5003V6.776H100.082V7.756H98.5003V13.02H99.9703V14H98.5703ZM101.463 3.64H102.583V7.952H102.639C102.816 7.54133 103.063 7.21467 103.381 6.972C103.707 6.72933 104.141 6.608 104.683 6.608C105.429 6.608 106.017 6.85067 106.447 7.336C106.885 7.812 107.105 8.48867 107.105 9.366V14H105.985V9.562C105.985 8.26467 105.439 7.616 104.347 7.616C104.123 7.616 103.903 7.644 103.689 7.7C103.483 7.756 103.297 7.84 103.129 7.952C102.961 8.064 102.825 8.20867 102.723 8.386C102.629 8.554 102.583 8.75467 102.583 8.988V14H101.463V3.64ZM111.716 14.168C111.221 14.168 110.773 14.0793 110.372 13.902C109.98 13.7247 109.639 13.4727 109.35 13.146C109.07 12.81 108.85 12.4133 108.692 11.956C108.542 11.4893 108.468 10.9667 108.468 10.388C108.468 9.81867 108.542 9.30067 108.692 8.834C108.85 8.36733 109.07 7.97067 109.35 7.644C109.639 7.308 109.98 7.05133 110.372 6.874C110.773 6.69667 111.221 6.608 111.716 6.608C112.201 6.608 112.635 6.69667 113.018 6.874C113.4 7.05133 113.727 7.29867 113.998 7.616C114.268 7.924 114.474 8.29267 114.614 8.722C114.763 9.15133 114.838 9.62267 114.838 10.136V10.668H109.644V11.004C109.644 11.312 109.69 11.6013 109.784 11.872C109.886 12.1333 110.026 12.362 110.204 12.558C110.39 12.754 110.614 12.908 110.876 13.02C111.146 13.132 111.45 13.188 111.786 13.188C112.243 13.188 112.64 13.0807 112.976 12.866C113.321 12.6513 113.587 12.3433 113.774 11.942L114.572 12.516C114.338 13.0107 113.974 13.412 113.48 13.72C112.985 14.0187 112.397 14.168 111.716 14.168ZM111.716 7.546C111.408 7.546 111.128 7.602 110.876 7.714C110.624 7.81667 110.404 7.966 110.218 8.162C110.04 8.358 109.9 8.59133 109.798 8.862C109.695 9.12333 109.644 9.41267 109.644 9.73V9.828H113.634V9.674C113.634 9.03 113.456 8.51667 113.102 8.134C112.756 7.742 112.294 7.546 111.716 7.546ZM119.152 3.64H120.272V7.952H120.328C120.514 7.49467 120.785 7.15867 121.14 6.944C121.504 6.72 121.938 6.608 122.442 6.608C122.89 6.608 123.296 6.69667 123.66 6.874C124.024 7.05133 124.332 7.30333 124.584 7.63C124.845 7.95667 125.041 8.35333 125.172 8.82C125.312 9.28667 125.382 9.80933 125.382 10.388C125.382 10.9667 125.312 11.4893 125.172 11.956C125.041 12.4227 124.845 12.8193 124.584 13.146C124.332 13.4727 124.024 13.7247 123.66 13.902C123.296 14.0793 122.89 14.168 122.442 14.168C121.462 14.168 120.757 13.72 120.328 12.824H120.272V14H119.152V3.64ZM122.134 13.16C122.768 13.16 123.268 12.964 123.632 12.572C123.996 12.1707 124.178 11.648 124.178 11.004V9.772C124.178 9.128 123.996 8.61 123.632 8.218C123.268 7.81667 122.768 7.616 122.134 7.616C121.882 7.616 121.639 7.65333 121.406 7.728C121.182 7.79333 120.986 7.88667 120.818 8.008C120.65 8.12933 120.514 8.27867 120.412 8.456C120.318 8.624 120.272 8.806 120.272 9.002V11.69C120.272 11.9233 120.318 12.1333 120.412 12.32C120.514 12.4973 120.65 12.6513 120.818 12.782C120.986 12.9033 121.182 12.9967 121.406 13.062C121.639 13.1273 121.882 13.16 122.134 13.16ZM129.583 14.168C129.098 14.168 128.654 14.0793 128.253 13.902C127.852 13.7247 127.506 13.4727 127.217 13.146C126.937 12.81 126.718 12.4133 126.559 11.956C126.4 11.4893 126.321 10.9667 126.321 10.388C126.321 9.81867 126.4 9.30067 126.559 8.834C126.718 8.36733 126.937 7.97067 127.217 7.644C127.506 7.308 127.852 7.05133 128.253 6.874C128.654 6.69667 129.098 6.608 129.583 6.608C130.068 6.608 130.507 6.69667 130.899 6.874C131.3 7.05133 131.646 7.308 131.935 7.644C132.224 7.97067 132.448 8.36733 132.607 8.834C132.766 9.30067 132.845 9.81867 132.845 10.388C132.845 10.9667 132.766 11.4893 132.607 11.956C132.448 12.4133 132.224 12.81 131.935 13.146C131.646 13.4727 131.3 13.7247 130.899 13.902C130.507 14.0793 130.068 14.168 129.583 14.168ZM129.583 13.174C130.19 13.174 130.684 12.9873 131.067 12.614C131.45 12.2407 131.641 11.6713 131.641 10.906V9.87C131.641 9.10467 131.45 8.53533 131.067 8.162C130.684 7.78867 130.19 7.602 129.583 7.602C128.976 7.602 128.482 7.78867 128.099 8.162C127.716 8.53533 127.525 9.10467 127.525 9.87V10.906C127.525 11.6713 127.716 12.2407 128.099 12.614C128.482 12.9873 128.976 13.174 129.583 13.174ZM136.997 14.168C136.512 14.168 136.068 14.0793 135.667 13.902C135.266 13.7247 134.92 13.4727 134.631 13.146C134.351 12.81 134.132 12.4133 133.973 11.956C133.814 11.4893 133.735 10.9667 133.735 10.388C133.735 9.81867 133.814 9.30067 133.973 8.834C134.132 8.36733 134.351 7.97067 134.631 7.644C134.92 7.308 135.266 7.05133 135.667 6.874C136.068 6.69667 136.512 6.608 136.997 6.608C137.482 6.608 137.921 6.69667 138.313 6.874C138.714 7.05133 139.06 7.308 139.349 7.644C139.638 7.97067 139.862 8.36733 140.021 8.834C140.18 9.30067 140.259 9.81867 140.259 10.388C140.259 10.9667 140.18 11.4893 140.021 11.956C139.862 12.4133 139.638 12.81 139.349 13.146C139.06 13.4727 138.714 13.7247 138.313 13.902C137.921 14.0793 137.482 14.168 136.997 14.168ZM136.997 13.174C137.604 13.174 138.098 12.9873 138.481 12.614C138.864 12.2407 139.055 11.6713 139.055 10.906V9.87C139.055 9.10467 138.864 8.53533 138.481 8.162C138.098 7.78867 137.604 7.602 136.997 7.602C136.39 7.602 135.896 7.78867 135.513 8.162C135.13 8.53533 134.939 9.10467 134.939 9.87V10.906C134.939 11.6713 135.13 12.2407 135.513 12.614C135.896 12.9873 136.39 13.174 136.997 13.174ZM141.681 3.64H142.801V10.206H142.857L143.963 8.974L146.007 6.776H147.365L144.691 9.632L147.631 14H146.273L143.879 10.318L142.801 11.424V14H141.681V3.64ZM150.776 6.776H151.868L152.638 9.898L153.408 13.062H153.436L154.318 9.898L155.228 6.776H156.222L157.16 9.898L158.056 13.062H158.084L158.826 9.898L159.61 6.776H160.66L158.742 14H157.356L156.348 10.528L155.718 8.33H155.69L155.074 10.528L154.066 14H152.708L150.776 6.776ZM162.418 5.082C162.176 5.082 161.998 5.026 161.886 4.914C161.784 4.79267 161.732 4.63867 161.732 4.452V4.27C161.732 4.08333 161.784 3.934 161.886 3.822C161.998 3.70067 162.176 3.64 162.418 3.64C162.661 3.64 162.834 3.70067 162.936 3.822C163.048 3.934 163.104 4.08333 163.104 4.27V4.452C163.104 4.63867 163.048 4.79267 162.936 4.914C162.834 5.026 162.661 5.082 162.418 5.082ZM161.858 6.776H162.978V14H161.858V6.776ZM166.534 14C166.142 14 165.844 13.8927 165.638 13.678C165.442 13.454 165.344 13.1647 165.344 12.81V7.756H164.154V6.776H164.826C165.069 6.776 165.232 6.72933 165.316 6.636C165.41 6.53333 165.456 6.36067 165.456 6.118V4.774H166.464V6.776H168.046V7.756H166.464V13.02H167.934V14H166.534ZM169.427 3.64H170.547V7.952H170.603C170.78 7.54133 171.027 7.21467 171.345 6.972C171.671 6.72933 172.105 6.608 172.647 6.608C173.393 6.608 173.981 6.85067 174.411 7.336C174.849 7.812 175.069 8.48867 175.069 9.366V14H173.949V9.562C173.949 8.26467 173.403 7.616 172.311 7.616C172.087 7.616 171.867 7.644 171.653 7.7C171.447 7.756 171.261 7.84 171.093 7.952C170.925 8.064 170.789 8.20867 170.687 8.386C170.593 8.554 170.547 8.75467 170.547 8.988V14H169.427V3.64ZM65.8242 23.776H66.9302L63.6962 32.68C63.6122 32.8947 63.5282 33.072 63.4442 33.212C63.3602 33.3613 63.2576 33.478 63.1362 33.562C63.0149 33.646 62.8609 33.7067 62.6742 33.744C62.4969 33.7813 62.2776 33.8 62.0162 33.8H61.4422V32.82H62.5762L63.1222 31.28L60.4202 23.776H61.5402L63.2762 28.69L63.6122 29.866H63.6822L64.0742 28.69L65.8242 23.776ZM70.6002 31.168C70.1149 31.168 69.6715 31.0793 69.2702 30.902C68.8689 30.7247 68.5235 30.4727 68.2342 30.146C67.9542 29.81 67.7349 29.4133 67.5762 28.956C67.4175 28.4893 67.3382 27.9667 67.3382 27.388C67.3382 26.8187 67.4175 26.3007 67.5762 25.834C67.7349 25.3673 67.9542 24.9707 68.2342 24.644C68.5235 24.308 68.8689 24.0513 69.2702 23.874C69.6715 23.6967 70.1149 23.608 70.6002 23.608C71.0855 23.608 71.5242 23.6967 71.9162 23.874C72.3175 24.0513 72.6629 24.308 72.9522 24.644C73.2415 24.9707 73.4655 25.3673 73.6242 25.834C73.7829 26.3007 73.8622 26.8187 73.8622 27.388C73.8622 27.9667 73.7829 28.4893 73.6242 28.956C73.4655 29.4133 73.2415 29.81 72.9522 30.146C72.6629 30.4727 72.3175 30.7247 71.9162 30.902C71.5242 31.0793 71.0855 31.168 70.6002 31.168ZM70.6002 30.174C71.2069 30.174 71.7015 29.9873 72.0842 29.614C72.4669 29.2407 72.6582 28.6713 72.6582 27.906V26.87C72.6582 26.1047 72.4669 25.5353 72.0842 25.162C71.7015 24.7887 71.2069 24.602 70.6002 24.602C69.9935 24.602 69.4989 24.7887 69.1162 25.162C68.7335 25.5353 68.5422 26.1047 68.5422 26.87V27.906C68.5422 28.6713 68.7335 29.2407 69.1162 29.614C69.4989 29.9873 69.9935 30.174 70.6002 30.174ZM79.7362 29.824H79.6802C79.6055 29.992 79.5122 30.16 79.4002 30.328C79.2975 30.4867 79.1668 30.6313 79.0082 30.762C78.8495 30.8833 78.6582 30.9813 78.4342 31.056C78.2102 31.1307 77.9488 31.168 77.6502 31.168C76.9035 31.168 76.3108 30.93 75.8722 30.454C75.4335 29.9687 75.2142 29.2873 75.2142 28.41V23.776H76.3342V28.214C76.3342 29.5113 76.8848 30.16 77.9862 30.16C78.2102 30.16 78.4248 30.132 78.6302 30.076C78.8448 30.02 79.0315 29.936 79.1902 29.824C79.3582 29.712 79.4888 29.572 79.5822 29.404C79.6848 29.2267 79.7362 29.0167 79.7362 28.774V23.776H80.8562V31H79.7362V29.824ZM82.8212 31V23.776H83.9412V25.106H84.0112C84.1419 24.7607 84.3752 24.4527 84.7112 24.182C85.0472 23.9113 85.5092 23.776 86.0972 23.776H86.5312V24.896H85.8732C85.2665 24.896 84.7905 25.0127 84.4452 25.246C84.1092 25.47 83.9412 25.7547 83.9412 26.1V31H82.8212ZM95.6804 31C95.2604 31 94.9571 30.888 94.7704 30.664C94.5931 30.44 94.4811 30.16 94.4344 29.824H94.3644C94.2058 30.272 93.9444 30.608 93.5804 30.832C93.2164 31.056 92.7824 31.168 92.2784 31.168C91.5131 31.168 90.9158 30.972 90.4864 30.58C90.0664 30.188 89.8564 29.656 89.8564 28.984C89.8564 28.3027 90.1038 27.78 90.5984 27.416C91.1024 27.052 91.8818 26.87 92.9364 26.87H94.3644V26.156C94.3644 25.6427 94.2244 25.2507 93.9444 24.98C93.6644 24.7093 93.2351 24.574 92.6564 24.574C92.2178 24.574 91.8491 24.672 91.5504 24.868C91.2611 25.064 91.0184 25.3253 90.8224 25.652L90.1504 25.022C90.3464 24.63 90.6591 24.2987 91.0884 24.028C91.5178 23.748 92.0591 23.608 92.7124 23.608C93.5898 23.608 94.2711 23.8227 94.7564 24.252C95.2418 24.6813 95.4844 25.2787 95.4844 26.044V30.02H96.3104V31H95.6804ZM92.4604 30.216C92.7404 30.216 92.9971 30.1833 93.2304 30.118C93.4638 30.0527 93.6644 29.9593 93.8324 29.838C94.0004 29.7167 94.1311 29.5767 94.2244 29.418C94.3178 29.2593 94.3644 29.0867 94.3644 28.9V27.71H92.8804C92.2364 27.71 91.7651 27.8033 91.4664 27.99C91.1771 28.1767 91.0324 28.4473 91.0324 28.802V29.096C91.0324 29.4507 91.1584 29.726 91.4104 29.922C91.6718 30.118 92.0218 30.216 92.4604 30.216ZM97.4889 31V23.776H98.6089V25.106H98.6789C98.8096 24.7607 99.0429 24.4527 99.3789 24.182C99.7149 23.9113 100.177 23.776 100.765 23.776H101.199V24.896H100.541C99.9343 24.896 99.4583 25.0127 99.1129 25.246C98.7769 25.47 98.6089 25.7547 98.6089 26.1V31H97.4889ZM102.21 31V23.776H103.33V25.106H103.4C103.53 24.7607 103.764 24.4527 104.1 24.182C104.436 23.9113 104.898 23.776 105.486 23.776H105.92V24.896H105.262C104.655 24.896 104.179 25.0127 103.834 25.246C103.498 25.47 103.33 25.7547 103.33 26.1V31H102.21ZM109.592 31.168C109.107 31.168 108.663 31.0793 108.262 30.902C107.861 30.7247 107.515 30.4727 107.226 30.146C106.946 29.81 106.727 29.4133 106.568 28.956C106.409 28.4893 106.33 27.9667 106.33 27.388C106.33 26.8187 106.409 26.3007 106.568 25.834C106.727 25.3673 106.946 24.9707 107.226 24.644C107.515 24.308 107.861 24.0513 108.262 23.874C108.663 23.6967 109.107 23.608 109.592 23.608C110.077 23.608 110.516 23.6967 110.908 23.874C111.309 24.0513 111.655 24.308 111.944 24.644C112.233 24.9707 112.457 25.3673 112.616 25.834C112.775 26.3007 112.854 26.8187 112.854 27.388C112.854 27.9667 112.775 28.4893 112.616 28.956C112.457 29.4133 112.233 29.81 111.944 30.146C111.655 30.4727 111.309 30.7247 110.908 30.902C110.516 31.0793 110.077 31.168 109.592 31.168ZM109.592 30.174C110.199 30.174 110.693 29.9873 111.076 29.614C111.459 29.2407 111.65 28.6713 111.65 27.906V26.87C111.65 26.1047 111.459 25.5353 111.076 25.162C110.693 24.7887 110.199 24.602 109.592 24.602C108.985 24.602 108.491 24.7887 108.108 25.162C107.725 25.5353 107.534 26.1047 107.534 26.87V27.906C107.534 28.6713 107.725 29.2407 108.108 29.614C108.491 29.9873 108.985 30.174 109.592 30.174ZM113.451 23.776H114.543L115.313 26.898L116.083 30.062H116.111L116.993 26.898L117.903 23.776H118.897L119.835 26.898L120.731 30.062H120.759L121.501 26.898L122.285 23.776H123.335L121.417 31H120.031L119.023 27.528L118.393 25.33H118.365L117.749 27.528L116.741 31H115.383L113.451 23.776ZM127.422 20.64H128.542V27.206H128.598L129.704 25.974L131.748 23.776H133.106L130.432 26.632L133.372 31H132.014L129.62 27.318L128.542 28.424V31H127.422V20.64ZM136.869 31.168C136.374 31.168 135.926 31.0793 135.525 30.902C135.133 30.7247 134.792 30.4727 134.503 30.146C134.223 29.81 134.003 29.4133 133.845 28.956C133.695 28.4893 133.621 27.9667 133.621 27.388C133.621 26.8187 133.695 26.3007 133.845 25.834C134.003 25.3673 134.223 24.9707 134.503 24.644C134.792 24.308 135.133 24.0513 135.525 23.874C135.926 23.6967 136.374 23.608 136.869 23.608C137.354 23.608 137.788 23.6967 138.171 23.874C138.553 24.0513 138.88 24.2987 139.151 24.616C139.421 24.924 139.627 25.2927 139.767 25.722C139.916 26.1513 139.991 26.6227 139.991 27.136V27.668H134.797V28.004C134.797 28.312 134.843 28.6013 134.937 28.872C135.039 29.1333 135.179 29.362 135.357 29.558C135.543 29.754 135.767 29.908 136.029 30.02C136.299 30.132 136.603 30.188 136.939 30.188C137.396 30.188 137.793 30.0807 138.129 29.866C138.474 29.6513 138.74 29.3433 138.927 28.942L139.725 29.516C139.491 30.0107 139.127 30.412 138.633 30.72C138.138 31.0187 137.55 31.168 136.869 31.168ZM136.869 24.546C136.561 24.546 136.281 24.602 136.029 24.714C135.777 24.8167 135.557 24.966 135.371 25.162C135.193 25.358 135.053 25.5913 134.951 25.862C134.848 26.1233 134.797 26.4127 134.797 26.73V26.828H138.787V26.674C138.787 26.03 138.609 25.5167 138.255 25.134C137.909 24.742 137.447 24.546 136.869 24.546ZM145.8 23.776H146.906L143.672 32.68C143.588 32.8947 143.504 33.072 143.42 33.212C143.336 33.3613 143.233 33.478 143.112 33.562C142.99 33.646 142.836 33.7067 142.65 33.744C142.472 33.7813 142.253 33.8 141.992 33.8H141.418V32.82H142.552L143.098 31.28L140.396 23.776H141.516L143.252 28.69L143.588 29.866H143.658L144.05 28.69L145.8 23.776ZM150.029 31.168C149.357 31.168 148.793 31.042 148.335 30.79C147.887 30.5287 147.5 30.1833 147.173 29.754L147.971 29.11C148.251 29.4647 148.564 29.74 148.909 29.936C149.255 30.1227 149.656 30.216 150.113 30.216C150.589 30.216 150.958 30.1133 151.219 29.908C151.49 29.7027 151.625 29.4133 151.625 29.04C151.625 28.76 151.532 28.522 151.345 28.326C151.168 28.1207 150.841 27.9807 150.365 27.906L149.791 27.822C149.455 27.7753 149.147 27.7053 148.867 27.612C148.587 27.5093 148.34 27.3787 148.125 27.22C147.92 27.052 147.757 26.8467 147.635 26.604C147.523 26.3613 147.467 26.072 147.467 25.736C147.467 25.3813 147.533 25.0733 147.663 24.812C147.794 24.5413 147.971 24.3173 148.195 24.14C148.429 23.9627 148.704 23.832 149.021 23.748C149.339 23.6547 149.679 23.608 150.043 23.608C150.631 23.608 151.121 23.7107 151.513 23.916C151.915 24.1213 152.265 24.406 152.563 24.77L151.821 25.442C151.663 25.218 151.429 25.0173 151.121 24.84C150.813 24.6533 150.426 24.56 149.959 24.56C149.493 24.56 149.138 24.6627 148.895 24.868C148.662 25.064 148.545 25.3347 148.545 25.68C148.545 26.0347 148.662 26.2913 148.895 26.45C149.138 26.6087 149.483 26.7253 149.931 26.8L150.491 26.884C151.294 27.0053 151.863 27.2387 152.199 27.584C152.535 27.92 152.703 28.3633 152.703 28.914C152.703 29.614 152.465 30.1647 151.989 30.566C151.513 30.9673 150.86 31.168 150.029 31.168ZM154.907 31.168C154.609 31.168 154.389 31.0933 154.249 30.944C154.119 30.7947 154.053 30.5987 154.053 30.356V30.174C154.053 29.9313 154.119 29.7353 154.249 29.586C154.389 29.4367 154.609 29.362 154.907 29.362C155.206 29.362 155.421 29.4367 155.551 29.586C155.691 29.7353 155.761 29.9313 155.761 30.174V30.356C155.761 30.5987 155.691 30.7947 155.551 30.944C155.421 31.0933 155.206 31.168 154.907 31.168Z" fill="#FDF7E6"/>
<g clip-path="url(#clip1_686_892)">
<path d="M191.415 5.53747H210.585C211.507 5.53747 212.257 6.2874 212.257 7.20922V26.7909C212.257 27.713 211.507 28.4635 210.585 28.4635H191.415C190.493 28.4635 189.743 27.7135 189.743 26.7909V7.20922C189.743 6.2874 190.493 5.53747 191.415 5.53747ZM210.336 12.414L203.959 7.51299C203.912 7.47585 203.855 7.45821 203.8 7.45821C203.746 7.45821 203.691 7.47585 203.644 7.51113C203.55 7.57982 203.515 7.70482 203.558 7.81371L204.841 11.0602H197.327C197.184 11.0602 197.066 11.1762 197.067 11.3201V13.9218C197.067 14.065 197.184 14.1808 197.327 14.1817L204.841 14.1808L203.559 17.4275C203.516 17.536 203.552 17.6604 203.645 17.7309C203.739 17.8014 203.867 17.8014 203.96 17.73L210.336 12.8269C210.4 12.777 210.437 12.7007 210.437 12.6199C210.437 12.5389 210.399 12.4629 210.336 12.414ZM188.279 1H213.721C215.381 1 216.727 2.34576 216.727 4.00497V29.9944C216.727 31.6542 215.381 33 213.721 33H188.278C186.619 33 185.273 31.6542 185.273 29.9944V4.00497C185.273 2.34576 186.619 1 188.279 1ZM188.558 26.7909C188.558 28.3659 189.84 29.6481 191.415 29.6481H210.585C212.16 29.6481 213.442 28.3664 213.442 26.7909V7.20922C213.442 5.63449 212.16 4.35233 210.585 4.35233H191.415C189.84 4.35233 188.558 5.63406 188.558 7.20922V26.7909Z" fill="#FDF7E6"/>
</g>
<defs>
<clipPath id="clip0_686_892">
<rect width="32" height="32" fill="white" transform="translate(0 1)"/>
</clipPath>
<clipPath id="clip1_686_892">
<rect width="32" height="32" fill="white" transform="matrix(-1 0 0 1 217 1)"/>
</clipPath>
</defs>
</svg>
